<svg id="Celebration" xmlns="http://www.w3.org/2000/svg" xmlns:xlink="http://www.w3.org/1999/xlink" width="30cm" height="30cm" viewBox="0 0 850.39 850.39"><defs><style>.cls-1{fill:#fa6e64;}.cls-2{fill:url(#linear-gradient);}.cls-3{fill:#e1444c;}.cls-4{fill:#ff9a80;}.cls-5{fill:#ffa291;}.cls-6{opacity:0.8;}.cls-7{fill:#ff9480;}.cls-8{fill:#ff8169;}.cls-9{fill:#fa857d;}.cls-10{fill:#ffd2bf;}.cls-11{fill:#fa7e76;}.cls-12{fill:#fa5d52;}</style><linearGradient id="linear-gradient" x1="425.2" y1="736.83" x2="425.2" y2="879.78" gradientUnits="userSpaceOnUse"><stop offset="0.08" stop-color="#f04851"/><stop offset="0.34" stop-color="#f35557"/><stop offset="0.91" stop-color="#fa6e64"/></linearGradient></defs><g id="background"><rect class="cls-1" width="850.39" height="850.39"/><polygon class="cls-2" points="850.39 810.36 0 810.36 0 732.5 419.34 732.5 850.39 732.5 850.39 810.36"/><path class="cls-3" d="M850.39,850.39H0l1.24-72.3s20.63,17.19,135.83,12,247.5,13.94,357.63,15.47c123.79,1.72,218.35-8.6,357.62-17.19C852,806.87,850.39,850.39,850.39,850.39Z"/></g><g id="stars"><path class="cls-4" d="M218.46,756.38a1.64,1.64,0,0,1-3.28,0A1.64,1.64,0,0,1,218.46,756.38Z"/><path class="cls-4" d="M300.87,757.67a1.64,1.64,0,0,1-3.28,0A1.64,1.64,0,0,1,300.87,757.67Z"/><path class="cls-4" d="M398.26,750.17a1.64,1.64,0,0,1-3.27,0A1.64,1.64,0,0,1,398.26,750.17Z"/><path class="cls-4" d="M729,745.86a1.64,1.64,0,0,1-3.27,0A1.64,1.64,0,0,1,729,745.86Z"/><path class="cls-4" d="M831.65,748.49a1.64,1.64,0,0,1-3.28,0A1.64,1.64,0,0,1,831.65,748.49Z"/><path class="cls-4" d="M555.64,747.83a1.64,1.64,0,0,1-3.28,0A1.64,1.64,0,0,1,555.64,747.83Z"/><path class="cls-4" d="M101.58,760.23a1.64,1.64,0,0,1-3.27,0A1.64,1.64,0,0,1,101.58,760.23Z"/><path class="cls-4" d="M25.24,744A1.64,1.64,0,0,1,22,744,1.64,1.64,0,0,1,25.24,744Z"/><path class="cls-5" d="M152.38,617.75a1.64,1.64,0,0,1-3.27,0A1.64,1.64,0,0,1,152.38,617.75Z"/><path class="cls-5" d="M837.51,404.33a1.64,1.64,0,0,1-3.28,0A1.64,1.64,0,0,1,837.51,404.33Z"/><path class="cls-5" d="M103.82,611.16a1.64,1.64,0,0,1-3.28,0A1.64,1.64,0,0,1,103.82,611.16Z"/><path class="cls-5" d="M56.6,683.68a1.64,1.64,0,0,1-3.28,0A1.64,1.64,0,0,1,56.6,683.68Z"/><path class="cls-5" d="M15.18,668.26a1.64,1.64,0,0,1-3.28,0A1.64,1.64,0,0,1,15.18,668.26Z"/><path class="cls-5" d="M101.37,717.64a1.64,1.64,0,0,1-3.28,0A1.64,1.64,0,0,1,101.37,717.64Z"/><path class="cls-5" d="M220.6,687a1.64,1.64,0,0,1-3.28,0A1.64,1.64,0,0,1,220.6,687Z"/><path class="cls-5" d="M220.17,640a1.64,1.64,0,0,1-3.28,0A1.64,1.64,0,0,1,220.17,640Z"/><path class="cls-5" d="M295.73,721.49a1.64,1.64,0,0,1-3.27,0A1.64,1.64,0,0,1,295.73,721.49Z"/><path class="cls-5" d="M310.07,657.91a1.64,1.64,0,0,1-3.27,0A1.64,1.64,0,0,1,310.07,657.91Z"/><path class="cls-5" d="M374.47,636.48a1.64,1.64,0,0,1-3.27,0A1.64,1.64,0,0,1,374.47,636.48Z"/><path class="cls-5" d="M58.23,106.69a1.64,1.64,0,0,1-3.27,0A1.64,1.64,0,0,1,58.23,106.69Z"/><path class="cls-5" d="M382.21,570.69a1.64,1.64,0,0,1-3.28,0A1.64,1.64,0,0,1,382.21,570.69Z"/><path class="cls-5" d="M53.71,38.3a1.64,1.64,0,0,1-3.28,0A1.64,1.64,0,0,1,53.71,38.3Z"/><path class="cls-5" d="M391.52,699.41a1.64,1.64,0,0,1-3.27,0A1.64,1.64,0,0,1,391.52,699.41Z"/><path class="cls-5" d="M362.33,477.54a1.64,1.64,0,0,1-3.27,0A1.64,1.64,0,0,1,362.33,477.54Z"/><path class="cls-5" d="M495.84,629.73a1.64,1.64,0,0,1-3.27,0A1.64,1.64,0,0,1,495.84,629.73Z"/><path class="cls-5" d="M511,700.41c0,2.12-3.3,2.12-3.27,0A1.64,1.64,0,0,1,511,700.41Z"/><path class="cls-5" d="M549.17,648.68a1.64,1.64,0,0,1-3.27,0A1.64,1.64,0,0,1,549.17,648.68Z"/><path class="cls-5" d="M563.59,619.46a1.64,1.64,0,0,1-3.27,0A1.64,1.64,0,0,1,563.59,619.46Z"/><path class="cls-5" d="M556.62,488a1.64,1.64,0,0,1-3.27,0A1.64,1.64,0,0,1,556.62,488Z"/><path class="cls-5" d="M546.75,462a1.64,1.64,0,0,1-3.27,0A1.64,1.64,0,0,1,546.75,462Z"/><path class="cls-5" d="M435.16,80.68a1.64,1.64,0,0,1-3.28,0A1.64,1.64,0,0,1,435.16,80.68Z"/><path class="cls-5" d="M431.07,442.3a1.64,1.64,0,0,1-3.27,0A1.64,1.64,0,0,1,431.07,442.3Z"/><path class="cls-5" d="M498.44,413a1.64,1.64,0,0,1-3.27,0A1.64,1.64,0,0,1,498.44,413Z"/><path class="cls-5" d="M356.61,306.36a1.64,1.64,0,0,1-3.28,0A1.64,1.64,0,0,1,356.61,306.36Z"/><path class="cls-5" d="M340.82,227.08a1.64,1.64,0,0,1-3.28,0A1.64,1.64,0,0,1,340.82,227.08Z"/><path class="cls-5" d="M348.38,213.59a1.64,1.64,0,0,1-3.27,0A1.64,1.64,0,0,1,348.38,213.59Z"/><path class="cls-5" d="M500.37,522.81a1.64,1.64,0,0,1-3.28,0A1.64,1.64,0,0,1,500.37,522.81Z"/><path class="cls-5" d="M512,52.46a1.64,1.64,0,0,1-3.27,0A1.64,1.64,0,0,1,512,52.46Z"/><path class="cls-5" d="M168.77,194.51a1.64,1.64,0,0,1-3.27,0A1.64,1.64,0,0,1,168.77,194.51Z"/><path class="cls-5" d="M236.53,143.58a1.64,1.64,0,0,1-3.28,0A1.64,1.64,0,0,1,236.53,143.58Z"/><path class="cls-5" d="M309,189.53a1.64,1.64,0,0,1-3.27,0A1.64,1.64,0,0,1,309,189.53Z"/><path class="cls-5" d="M157.26,206a1.64,1.64,0,0,1-3.28,0A1.64,1.64,0,0,1,157.26,206Z"/><path class="cls-5" d="M158.9,236.61a1.64,1.64,0,0,1-3.28,0A1.64,1.64,0,0,1,158.9,236.61Z"/><path class="cls-5" d="M93.84,248a1.64,1.64,0,0,1-3.27,0A1.64,1.64,0,0,1,93.84,248Z"/><path class="cls-5" d="M136.93,89.35a1.64,1.64,0,0,1-3.27,0A1.64,1.64,0,0,1,136.93,89.35Z"/><path class="cls-5" d="M19.74,430.37a1.64,1.64,0,0,1-3.27,0A1.64,1.64,0,0,1,19.74,430.37Z"/><path class="cls-5" d="M8.89,511.64a1.64,1.64,0,0,1-3.28,0A1.64,1.64,0,0,1,8.89,511.64Z"/><path class="cls-5" d="M59.87,480.43a1.64,1.64,0,0,1-3.27,0A1.64,1.64,0,0,1,59.87,480.43Z"/><path class="cls-5" d="M111.5,422.63a1.64,1.64,0,0,1-3.27,0A1.64,1.64,0,0,1,111.5,422.63Z"/><path class="cls-5" d="M123.06,454.42a1.64,1.64,0,0,1-3.27,0A1.64,1.64,0,0,1,123.06,454.42Z"/><path class="cls-5" d="M69.79,347.5a1.64,1.64,0,0,1-3.27,0A1.64,1.64,0,0,1,69.79,347.5Z"/><path class="cls-5" d="M215,504.51a1.64,1.64,0,0,1-3.28,0A1.64,1.64,0,0,1,215,504.51Z"/><path class="cls-5" d="M326.69,353.28a1.64,1.64,0,0,1-3.27,0A1.64,1.64,0,0,1,326.69,353.28Z"/><path class="cls-5" d="M611.43,157.74a1.64,1.64,0,0,1-3.27,0A1.64,1.64,0,0,1,611.43,157.74Z"/><path class="cls-5" d="M523.78,108.61a1.64,1.64,0,0,1-3.28,0A1.64,1.64,0,0,1,523.78,108.61Z"/><path class="cls-5" d="M572.61,41.19a1.64,1.64,0,0,1-3.27,0A1.64,1.64,0,0,1,572.61,41.19Z"/><path class="cls-5" d="M605.65,345.57a1.64,1.64,0,0,1-3.27,0A1.64,1.64,0,0,1,605.65,345.57Z"/><path class="cls-5" d="M637.15,272.37a1.64,1.64,0,0,1-3.27,0A1.64,1.64,0,0,1,637.15,272.37Z"/><path class="cls-5" d="M644.14,451.44a1.64,1.64,0,0,1-3.28,0A1.64,1.64,0,0,1,644.14,451.44Z"/><path class="cls-5" d="M679.66,470.51a1.64,1.64,0,0,1-3.28,0A1.64,1.64,0,0,1,679.66,470.51Z"/><path class="cls-5" d="M725.05,502.09a1.64,1.64,0,0,1-3.27,0A1.64,1.64,0,0,1,725.05,502.09Z"/><path class="cls-5" d="M360.41,139.44a1.64,1.64,0,0,1-3.28,0A1.64,1.64,0,0,1,360.41,139.44Z"/><path class="cls-5" d="M379,388a1.64,1.64,0,0,1-3.28,0A1.64,1.64,0,0,1,379,388Z"/><path class="cls-5" d="M830.09,212.64a1.64,1.64,0,0,1-3.27,0A1.64,1.64,0,0,1,830.09,212.64Z"/><path class="cls-5" d="M772.3,237.69a1.64,1.64,0,0,1-3.28,0A1.64,1.64,0,0,1,772.3,237.69Z"/><path class="cls-5" d="M654.49,236.73a1.64,1.64,0,0,1-3.28,0A1.64,1.64,0,0,1,654.49,236.73Z"/><path class="cls-5" d="M592.17,690.42a1.64,1.64,0,0,1-3.28,0A1.64,1.64,0,0,1,592.17,690.42Z"/><path class="cls-5" d="M676.64,673.08a1.64,1.64,0,0,1-3.27,0A1.64,1.64,0,0,1,676.64,673.08Z"/><path class="cls-5" d="M708,638.62a1.64,1.64,0,0,1-3.28,0A1.64,1.64,0,0,1,708,638.62Z"/><path class="cls-5" d="M727.36,606.38a1.64,1.64,0,0,1-3.27,0A1.64,1.64,0,0,1,727.36,606.38Z"/><path class="cls-5" d="M728,665.92a1.64,1.64,0,0,1-3.28,0A1.64,1.64,0,0,1,728,665.92Z"/><path class="cls-5" d="M827.2,650a1.64,1.64,0,0,1-3.27,0A1.64,1.64,0,0,1,827.2,650Z"/><path class="cls-5" d="M836.83,316.68a1.64,1.64,0,0,1-3.27,0A1.64,1.64,0,0,1,836.83,316.68Z"/><path class="cls-5" d="M833.62,588.29a1.64,1.64,0,0,1-3.27,0A1.64,1.64,0,0,1,833.62,588.29Z"/><path class="cls-5" d="M342.68,446.72a1.64,1.64,0,0,1-3.27,0A1.64,1.64,0,0,1,342.68,446.72Z"/><path class="cls-5" d="M221,244.43a1.64,1.64,0,0,1-3.27,0A1.64,1.64,0,0,1,221,244.43Z"/><path class="cls-5" d="M271.11,251.17a1.64,1.64,0,0,1-3.27,0A1.64,1.64,0,0,1,271.11,251.17Z"/><path class="cls-5" d="M29,639.93a1.64,1.64,0,0,1-3.28,0A1.64,1.64,0,0,1,29,639.93Z"/><path class="cls-5" d="M419.56,252.1a1.64,1.64,0,0,1-3.28,0A1.64,1.64,0,0,1,419.56,252.1Z"/><path class="cls-5" d="M575.55,397.37a1.64,1.64,0,0,1-3.28,0A1.64,1.64,0,0,1,575.55,397.37Z"/><path class="cls-5" d="M460.16,295.37a1.64,1.64,0,0,1-3.28,0A1.64,1.64,0,0,1,460.16,295.37Z"/><path class="cls-5" d="M556.39,260.35a1.64,1.64,0,0,1-3.27,0A1.64,1.64,0,0,1,556.39,260.35Z"/><path class="cls-5" d="M546.28,184.11a1.64,1.64,0,0,1-3.28,0A1.64,1.64,0,0,1,546.28,184.11Z"/><path class="cls-5" d="M524,338.64a1.64,1.64,0,0,1-3.27,0A1.64,1.64,0,0,1,524,338.64Z"/><path class="cls-5" d="M737.29,217.08a1.64,1.64,0,0,1-3.27,0A1.64,1.64,0,0,1,737.29,217.08Z"/><path class="cls-5" d="M682.69,125.38a1.64,1.64,0,0,1-3.27,0A1.64,1.64,0,0,1,682.69,125.38Z"/><path class="cls-5" d="M539.41,346.4a1.64,1.64,0,0,1-3.28,0A1.64,1.64,0,0,1,539.41,346.4Z"/><g class="cls-6"><path class="cls-7" d="M855.13,12.54c0,1.93-27.72,2.26-55,2.67-2,0-2-3.23,0-3.25C825.48,11.84,855.1,10.77,855.13,12.54Z"/><path class="cls-7" d="M846.41,54.58c-.76,1.77-26.22-9.28-51.33-20.08-1.86-.8-.51-3.77,1.36-2.95C819.64,41.81,847.1,53,846.41,54.58Z"/><path class="cls-7" d="M821.5,89.16C820.09,90.47,801.3,70,782.75,50c-1.38-1.49,1.06-3.65,2.44-2.14C802.22,66.62,822.79,88,821.5,89.16Z"/><path class="cls-7" d="M781.64,111.59c-1.84.57-9.88-26-17.88-52.13-.59-1.94,2.55-2.83,3.13-.88C774.07,82.92,783.33,111.07,781.64,111.59Z"/><path class="cls-7" d="M731.53,113.66c-1.89-.37,3.62-27.58,9-54.38.4-2,3.58-1.29,3.17.71C738.45,84.82,733.27,114,731.53,113.66Z"/><path class="cls-7" d="M692.47,96.45c-1.57-1.11,14.53-23.72,30.3-46,1.17-1.66,3.8.29,2.6,1.94C710.52,72.92,693.92,97.47,692.47,96.45Z"/><path class="cls-7" d="M662.81,63.13c-1-1.67,23.22-15.32,47-28.84,1.76-1,3.32,1.87,1.53,2.86C689.14,49.48,663.69,64.67,662.81,63.13Z"/><path class="cls-7" d="M650,18.65c-.13-1.92,27.59-3.56,54.86-5.27,2-.13,2.16,3.14.12,3.24C679.63,18,650.09,20.42,650,18.65Z"/><path class="cls-8" d="M619.62-4.21c.2-3,43.43,1.75,86,6.3,3.16.34,2.7,5.43-.48,5.06C665.66,2.53,619.44-1.44,619.62-4.21Z"/><path class="cls-8" d="M625,54.15c-1.11-2.81,40-17,80.43-31.1,3-1,4.76,3.76,1.73,4.78C669.46,40.55,626,56.73,625,54.15Z"/><path class="cls-8" d="M654.77,104.61c-2.2-2.06,28.89-32.48,59.4-62.51,2.26-2.23,5.91,1.36,3.61,3.58C689.17,73.29,656.8,106.51,654.77,104.61Z"/><path class="cls-8" d="M703.3,137.47c-2.88-.92,12.22-41.71,26.94-81.91,1.09-3,5.92-1.3,4.79,1.69C721,94.45,705.94,138.32,703.3,137.47Z"/><path class="cls-8" d="M761.22,146.42c-3,.39-6.81-42.93-10.7-85.56-.29-3.17,4.8-3.71,5.06-.53C758.8,100,764,146.06,761.22,146.42Z"/><path class="cls-8" d="M817.39,129.73c-2.53,1.63-24.51-35.9-46.27-72.77-1.61-2.74,2.75-5.4,4.35-2.63C795.33,88.77,819.73,128.22,817.39,129.73Z"/><path class="cls-8" d="M861,90.6c-1.59,2.57-37.51-21.95-72.95-46-2.63-1.79.17-6.06,2.8-4.24C823.56,63,862.49,88.24,861,90.6Z"/><path class="cls-8" d="M883.73,36.57c-.34,3-43.3-3.79-85.6-10.34-3.14-.49-2.44-5.56.71-5C838.07,27.67,884.05,33.81,883.73,36.57Z"/><path class="cls-8" d="M881.14-22c1,2.86-40.76,15.1-81.8,27.28-3.05.9-4.58-4-1.51-4.86C836.06-10.49,880.24-24.6,881.14-22Z"/></g><path class="cls-9" d="M212.09,307.85c1.78-.15,2.82,25.47,3.92,50.67.09,1.87-2.92,2.05-3,.17C212.23,335.27,210.46,308,212.09,307.85Z"/><path class="cls-9" d="M241.64,311.92c1.71.51-6.72,24.72-14.94,48.57-.61,1.77-3.47.84-2.84-.94C231.71,337.48,240.08,311.45,241.64,311.92Z"/><path class="cls-9" d="M267.64,326.54c1.4,1.1-15.32,20.53-31.71,39.71-1.22,1.42-3.54-.5-2.3-1.92C249,346.67,266.36,325.52,267.64,326.54Z"/><path class="cls-9" d="M286.47,349.67c.89,1.54-21.79,13.48-44.07,25.31-1.66.88-3.11-1.76-1.44-2.63C261.77,361.58,285.64,348.26,286.47,349.67Z"/><path class="cls-9" d="M295.49,378.1c.27,1.76-25.21,4.55-50.28,7.38-1.86.21-2.25-2.78-.37-3C268.15,380.12,295.24,376.49,295.49,378.1Z"/><path class="cls-9" d="M293.46,407.86c-.39,1.74-25.12-5-49.48-11.58-1.81-.49-1.07-3.41.74-2.9C267.28,399.7,293.82,406.27,293.46,407.86Z"/><path class="cls-9" d="M280.65,434.8c-1,1.47-21.53-13.88-41.78-28.92-1.51-1.12.25-3.57,1.75-2.43C259.29,417.61,281.58,433.45,280.65,434.8Z"/><path class="cls-9" d="M258.86,455.16c-1.47,1-14.94-20.81-28.27-42.23-1-1.59,1.55-3.22,2.53-1.61C245.29,431.33,260.21,454.24,258.86,455.16Z"/><path class="cls-9" d="M231.11,466.11c-1.73.39-6.26-24.84-10.8-49.66-.33-1.84,2.62-2.43,2.94-.57C227.24,439,232.71,465.75,231.11,466.11Z"/><path class="cls-9" d="M201.29,466.12c-1.76-.27,3.28-25.4,8.16-50.16.37-1.84,3.33-1.3,3,.55C207.64,439.45,202.9,466.37,201.29,466.12Z"/><path class="cls-9" d="M173.53,455.19c-1.53-.9,12.38-22.43,26-43.67,1-1.58,3.58,0,2.54,1.59C189.23,432.7,175,456,173.53,455.19Z"/><path class="cls-9" d="M151.73,434.84c-1.1-1.4,19.74-16.33,40.2-31.09,1.52-1.1,3.32,1.32,1.78,2.41C174.57,419.68,152.74,436.13,151.73,434.84Z"/><path class="cls-9" d="M138.91,407.91c-.51-1.71,24.35-8,48.8-14.18,1.81-.46,2.6,2.45.77,2.9C165.72,402.18,139.37,409.48,138.91,407.91Z"/><path class="cls-9" d="M136.86,378.15c.15-1.77,25.57,1.54,50.6,4.72,1.85.23,1.52,3.23-.35,3C163.9,382.66,136.71,379.78,136.86,378.15Z"/><path class="cls-9" d="M147.72,346.51c.86-1.55,22.71,11.86,44.25,25,1.6,1,.08,3.58-1.52,2.58C170.56,361.68,146.93,348,147.72,346.51Z"/><path class="cls-9" d="M175.05,319.15c1.49-1,14.46,21.15,27.29,42.87.95,1.61-1.62,3.19-2.56,1.56C188.07,343.28,173.68,320,175.05,319.15Z"/></g><g id="fireworks"><path class="cls-10" d="M12.32,391.81a1.64,1.64,0,0,1-3.28,0A1.64,1.64,0,0,1,12.32,391.81Z"/><path class="cls-5" d="M119.88,314.78a1.64,1.64,0,0,1-3.27,0A1.64,1.64,0,0,1,119.88,314.78Z"/><path class="cls-5" d="M701.26,458.42c0,3-4.68,3-4.63,0S701.31,455.41,701.26,458.42Z"/><path class="cls-5" d="M689.62,453.87c0,3-4.68,3-4.64,0S689.67,450.86,689.62,453.87Z"/><path class="cls-5" d="M693.94,449.78c0,3-4.68,3-4.64,0S694,446.77,693.94,449.78Z"/><path class="cls-5" d="M709.59,453.41c0,3-4.69,3-4.64,0S709.63,450.4,709.59,453.41Z"/><path class="cls-5" d="M703,440.23c0,3-4.69,3-4.64,0S703.08,437.22,703,440.23Z"/><path class="cls-5" d="M715.54,434.32c.05,3-4.68,3-4.64,0S715.59,431.31,715.54,434.32Z"/><path class="cls-5" d="M736.91,421.36c.05,3-4.68,3-4.63,0S737,418.35,736.91,421.36Z"/><path class="cls-5" d="M737.37,441.82c0,3-4.68,3-4.64,0S737.41,438.81,737.37,441.82Z"/><path class="cls-5" d="M725.32,454.1c0,3-4.68,3-4.64,0S725.36,451.09,725.32,454.1Z"/><path class="cls-5" d="M732.37,460.92c0,3-4.69,3-4.64,0S732.41,457.91,732.37,460.92Z"/><path class="cls-5" d="M745.78,457.05c.05,3-4.68,3-4.64,0S745.83,454,745.78,457.05Z"/><path class="cls-5" d="M752.37,442.5c0,3-4.68,3-4.63,0S752.42,439.49,752.37,442.5Z"/><path class="cls-5" d="M755.1,456.82c0,3-4.68,3-4.64,0S755.15,453.82,755.1,456.82Z"/><path class="cls-5" d="M762.38,453.87c0,3-4.68,3-4.64,0S762.42,450.86,762.38,453.87Z"/><path class="cls-5" d="M762.38,438.18c0,3-4.68,3-4.64,0S762.42,435.17,762.38,438.18Z"/><path class="cls-5" d="M752.83,429.31c0,3-4.68,3-4.64,0S752.87,426.3,752.83,429.31Z"/><path class="cls-5" d="M769.65,430c.05,3-4.68,3-4.63,0S769.7,427,769.65,430Z"/><path class="cls-5" d="M777.16,438.86c0,3-4.69,3-4.64,0S777.2,435.85,777.16,438.86Z"/><path class="cls-5" d="M774.88,447.5c0,3-4.68,3-4.63,0S774.93,444.49,774.88,447.5Z"/><path class="cls-5" d="M785.34,436.36c0,3-4.68,3-4.64,0S785.39,433.35,785.34,436.36Z"/><path class="cls-5" d="M781.48,425.68c0,3-4.69,3-4.64,0S781.52,422.67,781.48,425.68Z"/><path class="cls-5" d="M791.48,414.76c0,3-4.68,3-4.64,0S791.52,411.75,791.48,414.76Z"/><path class="cls-5" d="M792.39,425.9c0,3-4.68,3-4.64,0S792.43,422.89,792.39,425.9Z"/><path class="cls-5" d="M798.76,431.36c0,3-4.69,3-4.64,0S798.8,428.35,798.76,431.36Z"/><path class="cls-5" d="M801.48,420.9c0,3-4.68,3-4.63,0S801.53,417.89,801.48,420.9Z"/><path class="cls-5" d="M799.44,407.71c0,3-4.68,3-4.64,0S799.48,404.71,799.44,407.71Z"/><path class="cls-5" d="M809.9,413.85c0,3-4.69,3-4.64,0S809.94,410.84,809.9,413.85Z"/><path class="cls-5" d="M818.54,403.62c0,3-4.69,3-4.64,0S818.58,400.61,818.54,403.62Z"/><path class="cls-5" d="M811.26,396.8c0,3-4.68,3-4.64,0S811.31,393.79,811.26,396.8Z"/><path class="cls-5" d="M806.26,389.07c0,3-4.68,3-4.64,0S806.3,386.06,806.26,389.07Z"/><path class="cls-5" d="M814.9,382c0,3-4.68,3-4.64,0S814.94,379,814.9,382Z"/><path class="cls-5" d="M822.63,385.43c0,3-4.68,3-4.64,0S822.67,382.42,822.63,385.43Z"/><path class="cls-5" d="M823.31,377.48c.05,3-4.68,3-4.64,0S823.36,374.47,823.31,377.48Z"/><path class="cls-5" d="M821,362c0,3-4.68,3-4.64,0S821.08,359,821,362Z"/><path class="cls-5" d="M811.85,351.19c0,3-4.69,3-4.64,0S811.89,348.18,811.85,351.19Z"/><path class="cls-5" d="M804,340.19c0,3-4.69,3-4.64,0S804,337.18,804,340.19Z"/><path class="cls-5" d="M816,337.5c0,3-4.69,3-4.64,0S816.08,334.5,816,337.5Z"/><path class="cls-5" d="M820.13,350c0,3-4.68,3-4.64,0S820.17,347,820.13,350Z"/><path class="cls-5" d="M825.89,355.89c0,3-4.68,3-4.64,0S825.93,352.88,825.89,355.89Z"/><path class="cls-5" d="M823.54,341.6c0,3-4.68,3-4.64,0S823.58,338.59,823.54,341.6Z"/><path class="cls-5" d="M778.07,336.78c0,3-4.69,3-4.64,0S778.11,333.77,778.07,336.78Z"/><path class="cls-5" d="M794.66,324.05c.05,3-4.68,3-4.63,0S794.71,321,794.66,324.05Z"/><path class="cls-5" d="M800.8,312.68c.05,3-4.68,3-4.64,0S800.85,309.67,800.8,312.68Z"/><path class="cls-5" d="M786.25,310.4c0,3-4.68,3-4.64,0S786.3,307.39,786.25,310.4Z"/><path class="cls-5" d="M789.21,301.31c0,3-4.69,3-4.64,0S789.25,298.3,789.21,301.31Z"/><path class="cls-5" d="M783,291.08c.05,3-4.68,3-4.64,0S783.07,288.07,783,291.08Z"/><path class="cls-5" d="M776.47,293.58c0,3-4.68,3-4.63,0S776.52,290.57,776.47,293.58Z"/><path class="cls-5" d="M769.65,283.12c.05,3-4.68,3-4.63,0S769.7,280.11,769.65,283.12Z"/><path class="cls-5" d="M759.65,288.8c0,3-4.68,3-4.64,0S759.69,285.8,759.65,288.8Z"/><path class="cls-5" d="M761.7,297.9c0,3-4.69,3-4.64,0S761.74,294.89,761.7,297.9Z"/><path class="cls-5" d="M749.87,290.17c0,3-4.68,3-4.63,0S749.92,287.16,749.87,290.17Z"/><path class="cls-5" d="M761.24,278.8c0,3-4.68,3-4.64,0S761.29,275.79,761.24,278.8Z"/><path class="cls-5" d="M750.56,278.8c0,3-4.69,3-4.64,0S750.6,275.79,750.56,278.8Z"/><path class="cls-5" d="M739.87,282.89c0,3-4.68,3-4.64,0S739.91,279.88,739.87,282.89Z"/><path class="cls-5" d="M736.41,274.94c.05,3-4.68,3-4.63,0S736.46,271.93,736.41,274.94Z"/><path class="cls-5" d="M728.68,279.71c.05,3-4.68,3-4.63,0S728.73,276.7,728.68,279.71Z"/><path class="cls-5" d="M724.64,272.66c0,3-4.69,3-4.64,0S724.68,269.65,724.64,272.66Z"/><path class="cls-5" d="M717.13,279.71c0,3-4.68,3-4.63,0S717.18,276.7,717.13,279.71Z"/><path class="cls-5" d="M709.86,277.44c0,3-4.68,3-4.64,0S709.9,274.43,709.86,277.44Z"/><path class="cls-5" d="M705.08,287.67c0,3-4.68,3-4.63,0S705.13,284.66,705.08,287.67Z"/><path class="cls-5" d="M696.22,282.67c0,3-4.69,3-4.64,0S696.26,279.66,696.22,282.67Z"/><path class="cls-5" d="M709.86,297.67c0,3-4.68,3-4.64,0S709.9,294.66,709.86,297.67Z"/><path class="cls-5" d="M723,291.53c.05,3-4.68,3-4.63,0S723.09,288.52,723,291.53Z"/><path class="cls-5" d="M801.48,301.08c0,3-4.68,3-4.63,0S801.53,298.07,801.48,301.08Z"/><path class="cls-5" d="M811.94,314.27c0,3-4.68,3-4.64,0S812,311.26,811.94,314.27Z"/><path class="cls-5" d="M811.94,325.86c0,3-4.68,3-4.64,0S812,322.86,811.94,325.86Z"/><path class="cls-5" d="M777.16,358.6c0,3-4.69,3-4.64,0S777.2,355.6,777.16,358.6Z"/><path class="cls-5" d="M767.84,368.84c0,3-4.69,3-4.64,0S767.88,365.83,767.84,368.84Z"/><path class="cls-5" d="M754.19,328.37c0,3-4.68,3-4.63,0S754.24,325.36,754.19,328.37Z"/><path class="cls-5" d="M736.73,304.72c0,3-4.68,3-4.64,0S736.78,301.71,736.73,304.72Z"/><path class="cls-5" d="M725.62,337.66c0,3-4.68,3-4.64,0S725.67,334.65,725.62,337.66Z"/><path class="cls-5" d="M735.63,362.21c0,3-4.69,3-4.64,0S735.67,359.2,735.63,362.21Z"/><path class="cls-5" d="M740.48,382.52c0,3-4.69,3-4.64,0S740.52,379.51,740.48,382.52Z"/><path class="cls-5" d="M714.71,383.74c0,3-4.68,3-4.64,0S714.75,380.73,714.71,383.74Z"/><path class="cls-5" d="M707.74,411c0,3-4.69,3-4.64,0S707.78,408,707.74,411Z"/><path class="cls-5" d="M693.18,428.6c.05,3-4.68,3-4.63,0S693.23,425.59,693.18,428.6Z"/><path class="cls-5" d="M682.68,401.42c0,3-4.68,3-4.64,0S682.73,398.41,682.68,401.42Z"/><path class="cls-5" d="M672,382.33c0,3-4.68,3-4.63,0S672,379.32,672,382.33Z"/><path class="cls-5" d="M681.06,365.05c0,3-4.68,3-4.64,0S681.1,362,681.06,365.05Z"/><path class="cls-5" d="M662.57,350.69c0,3-4.69,3-4.64,0S662.61,347.68,662.57,350.69Z"/><path class="cls-5" d="M671,329.09c0,3-4.68,3-4.64,0S671,326.08,671,329.09Z"/><path class="cls-5" d="M654.61,337.5c0,3-4.68,3-4.64,0S654.65,334.5,654.61,337.5Z"/><path class="cls-5" d="M656.2,323.86c0,3-4.68,3-4.64,0S656.25,320.85,656.2,323.86Z"/><path class="cls-5" d="M655.52,317.09c0,3-4.68,3-4.64,0S655.56,314.08,655.52,317.09Z"/><path class="cls-5" d="M648.47,327.55c0,3-4.68,3-4.64,0S648.51,324.54,648.47,327.55Z"/><path class="cls-5" d="M641.88,333.46c0,3-4.69,3-4.64,0S641.92,330.45,641.88,333.46Z"/><path class="cls-5" d="M640.74,342.55c0,3-4.68,3-4.64,0S640.78,339.54,640.74,342.55Z"/><path class="cls-5" d="M643.7,350.51c0,3-4.69,3-4.64,0S643.74,347.5,643.7,350.51Z"/><path class="cls-5" d="M638.24,355.06c0,3-4.68,3-4.64,0S638.28,352.05,638.24,355.06Z"/><path class="cls-5" d="M638.47,364.61c0,3-4.69,3-4.64,0S638.51,361.6,638.47,364.61Z"/><path class="cls-5" d="M647.56,361c.05,3-4.68,3-4.64,0S647.61,358,647.56,361Z"/><path class="cls-5" d="M649.38,378.25c0,3-4.68,3-4.64,0S649.42,375.24,649.38,378.25Z"/><path class="cls-5" d="M637.78,393c.05,3-4.68,3-4.63,0S637.83,390,637.78,393Z"/><path class="cls-5" d="M637.78,379.61c.05,3-4.68,3-4.63,0S637.83,376.6,637.78,379.61Z"/><path class="cls-5" d="M657.79,391c.05,3-4.68,3-4.64,0S657.84,388,657.79,391Z"/><path class="cls-5" d="M647.56,399.17c.05,3-4.68,3-4.64,0S647.61,396.16,647.56,399.17Z"/><path class="cls-5" d="M641.42,403c.05,3-4.68,3-4.64,0S641.47,400,641.42,403Z"/><path class="cls-5" d="M645.06,411.9c0,3-4.68,3-4.64,0S645.1,408.89,645.06,411.9Z"/><path class="cls-5" d="M652.79,413c0,3-4.68,3-4.64,0S652.83,410,652.79,413Z"/><path class="cls-5" d="M654.15,421.9c.05,3-4.68,3-4.63,0S654.2,418.89,654.15,421.9Z"/><path class="cls-5" d="M694.81,327.76c0,3-4.69,3-4.64,0S694.85,324.75,694.81,327.76Z"/><path class="cls-5" d="M673,308.36c0,3-4.68,3-4.64,0S673,305.35,673,308.36Z"/><path class="cls-5" d="M663.89,311.09c0,3-4.69,3-4.64,0S663.93,308.08,663.89,311.09Z"/><path class="cls-5" d="M666.61,299.57c0,3-4.68,3-4.63,0S666.66,296.56,666.61,299.57Z"/><path class="cls-5" d="M676,293.5c0,3-4.68,3-4.64,0S676.06,290.49,676,293.5Z"/><path class="cls-5" d="M683.89,286.53c.05,3-4.68,3-4.63,0S683.94,283.52,683.89,286.53Z"/><path class="cls-5" d="M690.87,295.32c0,3-4.69,3-4.64,0S690.91,292.31,690.87,295.32Z"/><path class="cls-5" d="M673,417.19c0,3-4.68,3-4.64,0S673,414.18,673,417.19Z"/><path class="cls-5" d="M663.58,428.4c0,3-4.68,3-4.64,0S663.63,425.4,663.58,428.4Z"/><path class="cls-5" d="M674.5,427.19c0,3-4.69,3-4.64,0S674.54,424.18,674.5,427.19Z"/><path class="cls-5" d="M672.68,442.05c0,3-4.69,3-4.64,0S672.72,439,672.68,442.05Z"/><path class="cls-5" d="M666.31,436.59c0,3-4.68,3-4.64,0S666.36,433.58,666.31,436.59Z"/><path class="cls-5" d="M681.36,448.31c0,3-4.68,3-4.64,0S681.41,445.3,681.36,448.31Z"/><path class="cls-5" d="M807.62,377.48c0,3-4.68,3-4.63,0S807.67,374.47,807.62,377.48Z"/><path class="cls-5" d="M817,370c0,3-4.69,3-4.64,0S817,367,817,370Z"/><path class="cls-5" d="M804,363.83c0,3-4.69,3-4.64,0S804,360.82,804,363.83Z"/><path class="cls-5" d="M791.25,373.38c0,3-4.68,3-4.63,0S791.3,370.37,791.25,373.38Z"/><path class="cls-5" d="M786.48,391.12c0,3-4.68,3-4.64,0S786.52,388.11,786.48,391.12Z"/><path class="cls-5" d="M713,460.69c0,3-4.69,3-4.64,0S713,457.68,713,460.69Z"/><path class="cls-5" d="M119.08,116.64c.06,3.83-6,3.83-5.9,0S119.14,112.82,119.08,116.64Z"/><path class="cls-5" d="M104.28,110.86c0,3.83-6,3.83-5.9,0S104.33,107,104.28,110.86Z"/><path class="cls-5" d="M109.77,105.66c.06,3.82-6,3.82-5.9,0S109.83,101.83,109.77,105.66Z"/><path class="cls-5" d="M129.66,110.28c.06,3.83-6,3.83-5.9,0S129.72,106.46,129.66,110.28Z"/><path class="cls-5" d="M121.34,93.51c0,3.83-6,3.83-5.9,0S121.39,89.68,121.34,93.51Z"/><path class="cls-5" d="M137.24,86c.06,3.83-6,3.83-5.9,0S137.3,82.17,137.24,86Z"/><path class="cls-5" d="M164.42,69.51c.06,3.83-5.95,3.83-5.9,0S164.48,65.68,164.42,69.51Z"/><path class="cls-5" d="M165,95.53c.06,3.83-6,3.83-5.9,0S165.06,91.71,165,95.53Z"/><path class="cls-5" d="M149.67,111.15c.06,3.83-5.95,3.83-5.9,0S149.73,107.32,149.67,111.15Z"/><path class="cls-5" d="M158.64,119.82c.05,3.83-6,3.83-5.9,0S158.69,116,158.64,119.82Z"/><path class="cls-5" d="M175.7,114.91c.05,3.83-6,3.83-5.9,0S175.76,111.08,175.7,114.91Z"/><path class="cls-5" d="M184.08,96.4c.06,3.83-6,3.83-5.89,0S184.14,92.58,184.08,96.4Z"/><path class="cls-5" d="M187.55,114.62c.06,3.83-6,3.83-5.89,0S187.61,110.79,187.55,114.62Z"/><path class="cls-5" d="M196.81,110.86c.05,3.83-6,3.83-5.9,0S196.86,107,196.81,110.86Z"/><path class="cls-5" d="M196.81,90.91c.05,3.82-6,3.82-5.9,0S196.86,87.08,196.81,90.91Z"/><path class="cls-5" d="M184.66,79.63c.06,3.83-5.95,3.83-5.9,0S184.72,75.8,184.66,79.63Z"/><path class="cls-5" d="M206.06,80.5c.06,3.82-5.95,3.82-5.9,0S206.12,76.67,206.06,80.5Z"/><path class="cls-5" d="M215.6,91.78c.06,3.82-5.95,3.82-5.9,0S215.66,88,215.6,91.78Z"/><path class="cls-5" d="M212.71,102.76c.06,3.83-6,3.83-5.9,0S212.77,98.94,212.71,102.76Z"/><path class="cls-5" d="M226,88.59c.06,3.83-5.95,3.83-5.9,0S226.07,84.77,226,88.59Z"/><path class="cls-5" d="M221.1,75c.05,3.83-6,3.83-5.9,0S221.15,71.18,221.1,75Z"/><path class="cls-5" d="M233.82,61.12c.06,3.83-5.95,3.83-5.9,0S233.88,57.3,233.82,61.12Z"/><path class="cls-5" d="M235,75.29c.05,3.83-6,3.83-5.9,0S235,71.47,235,75.29Z"/><path class="cls-5" d="M243.07,82.23c.06,3.83-5.95,3.83-5.9,0S243.13,78.41,243.07,82.23Z"/><path class="cls-5" d="M246.54,68.93c.06,3.83-5.95,3.83-5.9,0S246.6,65.1,246.54,68.93Z"/><path class="cls-5" d="M243.94,52.16C244,56,238,56,238,52.16S244,48.33,243.94,52.16Z"/><path class="cls-5" d="M257.24,60c.06,3.82-6,3.82-5.9,0S257.3,56.14,257.24,60Z"/><path class="cls-5" d="M268.23,47c.06,3.82-6,3.82-5.9,0S268.29,43.13,268.23,47Z"/><path class="cls-5" d="M259,38.28c0,3.83-6,3.83-5.9,0S259,34.45,259,38.28Z"/><path class="cls-5" d="M252.62,28.45c0,3.83-6,3.83-5.9,0S252.67,24.62,252.62,28.45Z"/><path class="cls-5" d="M263.6,19.48c.06,3.83-6,3.83-5.89,0S263.66,15.66,263.6,19.48Z"/><path class="cls-5" d="M273.44,23.82c.05,3.83-6,3.83-5.9,0S273.49,20,273.44,23.82Z"/><path class="cls-5" d="M274.3,13.7c.06,3.83-5.95,3.83-5.9,0S274.36,9.87,274.3,13.7Z"/><path class="cls-5" d="M179.27,28c.06,3.83-6,3.83-5.9,0S179.33,24.15,179.27,28Z"/><path class="cls-5" d="M127.31,56.36c.06,3.83-6,3.83-5.9,0S127.37,52.54,127.31,56.36Z"/><path class="cls-5" d="M108.81,78.72c0,3.83-6,3.83-5.9,0S108.86,74.9,108.81,78.72Z"/><path class="cls-5" d="M120.72,19c0,3.83-6,3.83-5.9,0S120.77,15.16,120.72,19Z"/><path class="cls-5" d="M81.82,19.87c.05,3.83-6,3.83-5.9,0S81.87,16,81.82,19.87Z"/><path class="cls-5" d="M93.38-2.11c.06,3.83-5.95,3.83-5.9,0S93.44-5.93,93.38-2.11Z"/><path class="cls-5" d="M39.21-2.67c.06,3.83-6,3.83-5.9,0S39.27-6.49,39.21-2.67Z"/><path class="cls-5" d="M53.09,14.68c.06,3.83-6,3.83-5.9,0S53.15,10.86,53.09,14.68Z"/><path class="cls-5" d="M38.35,33.48c0,3.83-6,3.83-5.9,0S38.4,29.65,38.35,33.48Z"/><path class="cls-5" d="M38.35,16.42c0,3.83-6,3.83-5.9,0S38.4,12.59,38.35,16.42Z"/><path class="cls-5" d="M63.79,30.88c.06,3.82-5.95,3.82-5.9,0S63.85,27.05,63.79,30.88Z"/><path class="cls-5" d="M50.78,41.29c.06,3.82-6,3.82-5.9,0S50.84,37.46,50.78,41.29Z"/><path class="cls-5" d="M43,46.2C43,50,37,50,37.07,46.2S43,42.38,43,46.2Z"/><path class="cls-5" d="M47.6,57.48c.06,3.83-6,3.83-5.9,0S47.66,53.65,47.6,57.48Z"/><path class="cls-5" d="M57.43,58.93c.06,3.82-6,3.82-5.9,0S57.49,55.1,57.43,58.93Z"/><path class="cls-5" d="M59.17,70.2c0,3.83-6,3.83-5.9,0S59.22,66.38,59.17,70.2Z"/><path class="cls-5" d="M83.11,64.21c0,3.83-6,3.83-5.9,0S83.16,60.38,83.11,64.21Z"/><path class="cls-5" d="M71.16,78.47c0,3.83-6,3.83-5.9,0S71.21,74.65,71.16,78.47Z"/><path class="cls-5" d="M85,76.93c0,3.83-6,3.83-5.9,0S85.09,73.1,85,76.93Z"/><path class="cls-5" d="M82.72,95.82c.06,3.83-6,3.83-5.9,0S82.78,92,82.72,95.82Z"/><path class="cls-5" d="M74.63,88.88c.05,3.83-6,3.83-5.9,0S74.68,85.06,74.63,88.88Z"/><path class="cls-5" d="M93.77,103.79c0,3.82-6,3.82-5.9,0S93.83,100,93.77,103.79Z"/><path class="cls-5" d="M254.35,13.7c.06,3.83-5.95,3.83-5.9,0S254.41,9.87,254.35,13.7Z"/><path class="cls-5" d="M266.21,4.16c.05,3.83-6,3.83-5.9,0S266.26.33,266.21,4.16Z"/><path class="cls-5" d="M233.53,8.5c.06,3.82-5.95,3.82-5.9,0S233.59,4.67,233.53,8.5Z"/><path class="cls-5" d="M227.46,31.05c0,3.83-6,3.83-5.9,0S227.52,27.22,227.46,31.05Z"/><path class="cls-5" d="M134,119.54c.06,3.82-5.95,3.82-5.9,0S134.06,115.71,134,119.54Z"/><path class="cls-5" d="M78.39,291.8c0,2.4-3.74,2.4-3.7,0S78.42,289.4,78.39,291.8Z"/><path class="cls-5" d="M69.1,288.17c0,2.4-3.74,2.4-3.7,0S69.13,285.77,69.1,288.17Z"/><path class="cls-5" d="M72.55,284.9c0,2.41-3.74,2.41-3.71,0S72.58,282.5,72.55,284.9Z"/><path class="cls-5" d="M85,287.81c0,2.4-3.74,2.4-3.7,0S85.07,285.41,85,287.81Z"/><path class="cls-5" d="M79.8,277.28c0,2.4-3.73,2.4-3.7,0S79.84,274.88,79.8,277.28Z"/><path class="cls-5" d="M89.79,272.57c0,2.4-3.74,2.4-3.71,0S89.82,270.16,89.79,272.57Z"/><path class="cls-5" d="M106.84,262.22c0,2.4-3.74,2.4-3.7,0S106.88,259.82,106.84,262.22Z"/><path class="cls-5" d="M107.21,278.55c0,2.4-3.74,2.4-3.71,0S107.24,276.15,107.21,278.55Z"/><path class="cls-5" d="M97.59,288.35c0,2.4-3.74,2.4-3.7,0S97.62,286,97.59,288.35Z"/><path class="cls-5" d="M103.21,293.8c0,2.4-3.73,2.4-3.7,0S103.25,291.39,103.21,293.8Z"/><path class="cls-5" d="M113.92,290.71c0,2.4-3.74,2.4-3.7,0S114,288.31,113.92,290.71Z"/><path class="cls-5" d="M119.18,279.1c0,2.4-3.74,2.4-3.7,0S119.22,276.7,119.18,279.1Z"/><path class="cls-5" d="M121.36,290.53c0,2.4-3.74,2.4-3.7,0S121.39,288.13,121.36,290.53Z"/><path class="cls-5" d="M127.17,288.17c0,2.4-3.74,2.4-3.71,0S127.2,285.77,127.17,288.17Z"/><path class="cls-5" d="M127.17,275.65c0,2.4-3.74,2.4-3.71,0S127.2,273.25,127.17,275.65Z"/><path class="cls-5" d="M119.54,268.57c0,2.4-3.73,2.4-3.7,0S119.58,266.17,119.54,268.57Z"/><path class="cls-5" d="M133,269.12c0,2.4-3.74,2.4-3.7,0S133,266.72,133,269.12Z"/><path class="cls-5" d="M139,276.19c0,2.41-3.74,2.41-3.7,0S139,273.79,139,276.19Z"/><path class="cls-5" d="M137.15,283.09c0,2.4-3.74,2.4-3.71,0S137.18,280.69,137.15,283.09Z"/><path class="cls-5" d="M145.49,274.2c0,2.4-3.73,2.4-3.7,0S145.53,271.8,145.49,274.2Z"/><path class="cls-5" d="M142.41,265.67c0,2.4-3.74,2.4-3.7,0S142.44,263.27,142.41,265.67Z"/><path class="cls-5" d="M150.39,257c0,2.4-3.73,2.4-3.7,0S150.43,254.56,150.39,257Z"/><path class="cls-5" d="M151.12,265.85c0,2.4-3.74,2.4-3.7,0S151.15,263.45,151.12,265.85Z"/><path class="cls-5" d="M156.2,270.21c0,2.4-3.74,2.4-3.7,0S156.23,267.8,156.2,270.21Z"/><path class="cls-5" d="M158.38,261.86c0,2.4-3.74,2.4-3.71,0S158.41,259.46,158.38,261.86Z"/><path class="cls-5" d="M156.74,251.33c0,2.41-3.73,2.41-3.7,0S156.78,248.93,156.74,251.33Z"/><path class="cls-5" d="M165.09,256.23c0,2.41-3.74,2.41-3.7,0S165.13,253.83,165.09,256.23Z"/><path class="cls-5" d="M172,248.07c0,2.4-3.74,2.4-3.71,0S172,245.67,172,248.07Z"/><path class="cls-5" d="M166.18,242.62c0,2.41-3.74,2.41-3.7,0S166.21,240.22,166.18,242.62Z"/><path class="cls-5" d="M162.19,236.46c0,2.4-3.74,2.4-3.7,0S162.22,234.05,162.19,236.46Z"/><path class="cls-5" d="M169.08,230.83c0,2.4-3.73,2.4-3.7,0S169.12,228.43,169.08,230.83Z"/><path class="cls-5" d="M175.25,233.55c0,2.4-3.74,2.4-3.7,0S175.29,231.15,175.25,233.55Z"/><path class="cls-5" d="M175.8,227.2c0,2.4-3.74,2.4-3.71,0S175.83,224.8,175.8,227.2Z"/><path class="cls-5" d="M174,214.86c0,2.4-3.74,2.4-3.7,0S174,212.46,174,214.86Z"/><path class="cls-5" d="M166.65,206.22c0,2.4-3.74,2.4-3.71,0S166.68,203.82,166.65,206.22Z"/><path class="cls-5" d="M160.37,197.44c0,2.4-3.73,2.4-3.7,0S160.41,195,160.37,197.44Z"/><path class="cls-5" d="M170,195.3c0,2.4-3.74,2.4-3.7,0S170,192.9,170,195.3Z"/><path class="cls-5" d="M173.26,205.28c0,2.4-3.74,2.4-3.71,0S173.29,202.88,173.26,205.28Z"/><path class="cls-5" d="M177.85,210c0,2.41-3.73,2.41-3.7,0S177.89,207.57,177.85,210Z"/><path class="cls-5" d="M176,198.57c0,2.4-3.74,2.4-3.7,0S176,196.17,176,198.57Z"/><path class="cls-5" d="M139.69,194.72c0,2.4-3.74,2.4-3.71,0S139.72,192.32,139.69,194.72Z"/><path class="cls-5" d="M152.93,184.56c0,2.4-3.73,2.4-3.7,0S153,182.16,152.93,184.56Z"/><path class="cls-5" d="M157.83,175.48c0,2.41-3.74,2.41-3.7,0S157.87,173.08,157.83,175.48Z"/><path class="cls-5" d="M146.22,173.67c0,2.4-3.74,2.4-3.7,0S146.25,171.27,146.22,173.67Z"/><path class="cls-5" d="M148.58,166.41c0,2.4-3.74,2.4-3.7,0S148.61,164,148.58,166.41Z"/><path class="cls-5" d="M143.64,158.25c0,2.4-3.74,2.4-3.7,0S143.68,155.84,143.64,158.25Z"/><path class="cls-5" d="M138.42,160.24c0,2.4-3.74,2.4-3.71,0S138.45,157.84,138.42,160.24Z"/><path class="cls-5" d="M133,151.9c0,2.4-3.74,2.4-3.7,0S133,149.49,133,151.9Z"/><path class="cls-5" d="M125,156.43c0,2.4-3.74,2.4-3.7,0S125,154,125,156.43Z"/><path class="cls-5" d="M126.62,163.69c0,2.4-3.74,2.4-3.7,0S126.66,161.29,126.62,163.69Z"/><path class="cls-5" d="M117.19,157.52c0,2.4-3.74,2.4-3.71,0S117.22,155.12,117.19,157.52Z"/><path class="cls-5" d="M126.26,148.45c0,2.4-3.74,2.4-3.7,0S126.29,146.05,126.26,148.45Z"/><path class="cls-5" d="M117.73,148.45c0,2.4-3.74,2.4-3.7,0S117.77,146.05,117.73,148.45Z"/><path class="cls-5" d="M109.2,151.71c0,2.41-3.74,2.41-3.7,0S109.24,149.31,109.2,151.71Z"/><path class="cls-5" d="M106.44,145.36c0,2.4-3.73,2.4-3.7,0S106.48,143,106.44,145.36Z"/><path class="cls-5" d="M100.27,149.17c0,2.4-3.73,2.4-3.7,0S100.31,146.77,100.27,149.17Z"/><path class="cls-5" d="M97,143.55c0,2.4-3.73,2.4-3.7,0S97.08,141.15,97,143.55Z"/><path class="cls-5" d="M91.06,149.17c0,2.4-3.74,2.4-3.71,0S91.09,146.77,91.06,149.17Z"/><path class="cls-5" d="M85.25,147.36c0,2.4-3.74,2.4-3.7,0S85.28,145,85.25,147.36Z"/><path class="cls-5" d="M81.44,155.52c0,2.41-3.74,2.41-3.7,0S81.47,153.12,81.44,155.52Z"/><path class="cls-5" d="M74.36,151.53c0,2.4-3.74,2.4-3.7,0S74.4,149.13,74.36,151.53Z"/><path class="cls-5" d="M85.25,163.51c0,2.4-3.74,2.4-3.7,0S85.28,161.11,85.25,163.51Z"/><path class="cls-5" d="M95.77,158.61c0,2.4-3.73,2.4-3.7,0S95.81,156.21,95.77,158.61Z"/><path class="cls-5" d="M158.38,166.23c0,2.4-3.74,2.4-3.71,0S158.41,163.83,158.38,166.23Z"/><path class="cls-5" d="M166.72,176.76c0,2.4-3.73,2.4-3.7,0S166.76,174.35,166.72,176.76Z"/><path class="cls-5" d="M166.72,186c0,2.4-3.73,2.4-3.7,0S166.76,183.61,166.72,186Z"/><path class="cls-5" d="M139,212.14c0,2.4-3.74,2.4-3.7,0S139,209.74,139,212.14Z"/><path class="cls-5" d="M131.52,220.31c0,2.4-3.74,2.4-3.7,0S131.56,217.9,131.52,220.31Z"/><path class="cls-5" d="M120.63,188c0,2.4-3.73,2.4-3.7,0S120.67,185.6,120.63,188Z"/><path class="cls-5" d="M106.7,169.13c0,2.41-3.74,2.41-3.7,0S106.73,166.73,106.7,169.13Z"/><path class="cls-5" d="M97.83,195.42c0,2.4-3.74,2.4-3.7,0S97.87,193,97.83,195.42Z"/><path class="cls-5" d="M105.81,215c0,2.4-3.73,2.4-3.7,0S105.85,212.62,105.81,215Z"/><path class="cls-5" d="M109.68,231.23c0,2.4-3.73,2.4-3.7,0S109.72,228.83,109.68,231.23Z"/><path class="cls-5" d="M89.12,232.2c0,2.4-3.74,2.4-3.7,0S89.16,229.8,89.12,232.2Z"/><path class="cls-5" d="M83.55,254c0,2.4-3.73,2.4-3.7,0S83.59,251.57,83.55,254Z"/><path class="cls-5" d="M71.94,268c0,2.41-3.74,2.41-3.7,0S72,265.6,71.94,268Z"/><path class="cls-5" d="M63.56,246.31c0,2.41-3.74,2.41-3.7,0S63.59,243.91,63.56,246.31Z"/><path class="cls-5" d="M55,231.07c0,2.4-3.74,2.4-3.71,0S55,228.67,55,231.07Z"/><path class="cls-5" d="M62.26,217.28c0,2.4-3.73,2.4-3.7,0S62.3,214.88,62.26,217.28Z"/><path class="cls-5" d="M47.51,205.82c0,2.41-3.74,2.41-3.71,0S47.54,203.42,47.51,205.82Z"/><path class="cls-5" d="M54.22,188.59c0,2.4-3.74,2.4-3.7,0S54.25,186.18,54.22,188.59Z"/><path class="cls-5" d="M41.15,195.3c0,2.4-3.73,2.4-3.7,0S41.19,192.9,41.15,195.3Z"/><path class="cls-5" d="M42.42,184.41c0,2.4-3.73,2.4-3.7,0S42.46,182,42.42,184.41Z"/><path class="cls-5" d="M41.88,179c0,2.4-3.74,2.4-3.7,0S41.92,176.6,41.88,179Z"/><path class="cls-5" d="M36.25,187.35c0,2.4-3.73,2.4-3.7,0S36.29,185,36.25,187.35Z"/><path class="cls-5" d="M31,192.07c0,2.4-3.73,2.4-3.7,0S31,189.67,31,192.07Z"/><path class="cls-5" d="M30.09,199.33c0,2.4-3.74,2.4-3.71,0S30.12,196.93,30.09,199.33Z"/><path class="cls-5" d="M32.44,205.68c0,2.4-3.73,2.4-3.7,0S32.48,203.28,32.44,205.68Z"/><path class="cls-5" d="M28.09,209.31c0,2.4-3.74,2.4-3.7,0S28.12,206.91,28.09,209.31Z"/><path class="cls-5" d="M28.27,216.93c0,2.4-3.74,2.4-3.7,0S28.31,214.53,28.27,216.93Z"/><path class="cls-5" d="M35.53,214c0,2.4-3.74,2.4-3.7,0S35.56,211.63,35.53,214Z"/><path class="cls-5" d="M37,227.82c0,2.4-3.74,2.4-3.7,0S37,225.42,37,227.82Z"/><path class="cls-5" d="M27.73,239.61c0,2.4-3.74,2.4-3.71,0S27.76,237.21,27.73,239.61Z"/><path class="cls-5" d="M27.73,228.91c0,2.4-3.74,2.4-3.71,0S27.76,226.5,27.73,228.91Z"/><path class="cls-5" d="M43.69,238c0,2.4-3.73,2.4-3.7,0S43.73,235.58,43.69,238Z"/><path class="cls-5" d="M35.53,244.51c0,2.4-3.74,2.4-3.7,0S35.56,242.11,35.53,244.51Z"/><path class="cls-5" d="M30.63,247.6c0,2.4-3.74,2.4-3.7,0S30.66,245.2,30.63,247.6Z"/><path class="cls-5" d="M33.53,254.67c0,2.4-3.73,2.4-3.7,0S33.57,252.27,33.53,254.67Z"/><path class="cls-5" d="M39.7,255.58c0,2.4-3.73,2.4-3.7,0S39.74,253.18,39.7,255.58Z"/><path class="cls-5" d="M40.79,262.66c0,2.4-3.74,2.4-3.7,0S40.83,260.26,40.79,262.66Z"/><path class="cls-5" d="M73.24,187.52c0,2.4-3.74,2.4-3.71,0S73.27,185.12,73.24,187.52Z"/><path class="cls-5" d="M55.82,172c0,2.4-3.74,2.4-3.71,0S55.85,169.64,55.82,172Z"/><path class="cls-5" d="M48.56,174.21c0,2.41-3.74,2.41-3.7,0S48.59,171.81,48.56,174.21Z"/><path class="cls-5" d="M50.74,165c0,2.4-3.74,2.4-3.71,0S50.77,162.62,50.74,165Z"/><path class="cls-5" d="M58.24,160.18c0,2.4-3.74,2.4-3.71,0S58.27,157.78,58.24,160.18Z"/><path class="cls-5" d="M64.53,154.62c0,2.4-3.74,2.4-3.71,0S64.56,152.22,64.53,154.62Z"/><path class="cls-5" d="M70.09,161.63c0,2.41-3.74,2.41-3.7,0S70.13,159.23,70.09,161.63Z"/><path class="cls-5" d="M55.82,258.9c0,2.4-3.74,2.4-3.71,0S55.85,256.49,55.82,258.9Z"/><path class="cls-5" d="M48.32,267.85c0,2.4-3.74,2.4-3.71,0S48.35,265.45,48.32,267.85Z"/><path class="cls-5" d="M57,266.88c0,2.4-3.74,2.4-3.71,0S57.06,264.48,57,266.88Z"/><path class="cls-5" d="M55.57,278.73c0,2.41-3.73,2.41-3.7,0S55.61,276.33,55.57,278.73Z"/><path class="cls-5" d="M50.49,274.38c0,2.4-3.73,2.4-3.7,0S50.53,272,50.49,274.38Z"/><path class="cls-5" d="M62.51,283.73c0,2.4-3.74,2.4-3.71,0S62.54,281.33,62.51,283.73Z"/><path class="cls-5" d="M163.28,227.2c0,2.4-3.74,2.4-3.71,0S163.31,224.8,163.28,227.2Z"/><path class="cls-5" d="M170.72,221.21c0,2.4-3.74,2.4-3.71,0S170.75,218.81,170.72,221.21Z"/><path class="cls-5" d="M160.37,216.31c0,2.4-3.73,2.4-3.7,0S160.41,213.91,160.37,216.31Z"/><path class="cls-5" d="M150.21,223.93c0,2.41-3.74,2.41-3.7,0S150.25,221.53,150.21,223.93Z"/><path class="cls-5" d="M146.4,238.09c0,2.4-3.74,2.4-3.7,0S146.44,235.69,146.4,238.09Z"/><path class="cls-5" d="M87.75,293.61c0,2.41-3.73,2.41-3.7,0S87.79,291.21,87.75,293.61Z"/><path class="cls-11" d="M550.5,128.77a1.87,1.87,0,0,0,.41-3.69L488.72,111c1.85-.83,58.26,12.28,58,7.82-4.52-6.49-94.17-14.17-98.66-20.61.52-1.53,94.15,17.33,79.47,7.45l-22.43-3.17,28.42,2.28c2.4.23,2.72-3.57.3-3.73l-7.34-.59,16.94.7c11-5-66.22-4-64.29-5.14l66.41-2.44a1.87,1.87,0,1,0-.14-3.74l-64.76,2.39,58.24-6.67a1.87,1.87,0,0,0,1.65-2.07c1.44-4.34-49.18,4.73-50.13,3.86.54-.74,29.65-4.71,27.88-7.1a1.24,1.24,0,0,0-1.47-1l-36,7.5c28.08-8.93,67.09-15.5,60-18.93-.19,0-.6,0-56.07,15.26C509.38,74.76,529.14,72.62,529.9,68c-1.63-3.61-9.56,1.57-23.48,4.84,13.14-5.82,38.87-12.66,28.08-15-15,6.29-60.86,23.34-79.82,28.78l78-34.29a1.88,1.88,0,0,0,1-2.47c.15-4.49-37.24,15.33-38.39,14.85.35-.8,23.11-9.65,20.79-11.44-.14-2.92-23.79,10.79-24.65,10.53.43-1.28,40.43-19.43,36.78-22.08a1.87,1.87,0,0,0-2.54-.75L457.85,77.78l56.43-35.73a1.87,1.87,0,1,0-2-3.16l-45.63,28.9,51.9-36a1.87,1.87,0,1,0-2.13-3.07L465.35,64.14l45.91-37.22c7.52-15.86-57.79,44-56.82,41.25C453.2,67.24,520.35,11.36,504,16.3L461.2,56.66c11.07-14.52,30.35-30.75,21.68-30.37-.4.14-.73.25-14.73,16.51C468.06,41.41,497.19,9,492.82,8c-2.48-2.17-5.7,5.07-7.1,6.09a1.87,1.87,0,0,0-3.34-.94l-22.71,30.1L485.42,5.1c2.72-17.92-48.3,67.73-48.07,64.5L476.06,6a1.87,1.87,0,0,0-.62-2.57c-2.17-4.22-24.19,37.86-25.27,37.9C459.07,19,478.12-11,469.23-7.7c-.27.17-.51.34-4.73,9.26A1.87,1.87,0,0,0,461,1.11l-17.84,40.7L455.84,2.43C456.61.14,453-1,452.28,1.28L443.67,27.9l10-35.31c-2.29-11.94-20,66-20.63,63.78l12.44-54.1c.58-2.35-3.13-3.21-3.64-.83l-8.94,38.89c1.14-17,6.52-34.67,11.47-49.82a1.87,1.87,0,0,0-1.18-2.37c-4.09-.06-3.67,7.74-5.42,10.82.39-7.36,4-15.92-1.8-12.83-.28.36-.6.78-4.95,37.85-1.6,6.52-3.1,13.09-4.5,19.51-.93-.84,6.39-57.57,2.07-55.5-3.95-2.49-4.31,47.75-5.31,48.4l-1.56-53a1.87,1.87,0,0,0-1.92-1.81A1.87,1.87,0,0,0,418-16.5c.83,21,1.44,50.9.3,71.93-2.15-31.46.55-63.17-3.84-64.85-4.5,1,.34,35.33.2,67.78-4.91-34.29-7-72.36-10-76.29-5.78,3.18-1.5-1.42,5.71,71.89-.47-1.84-.94-3.68-1.43-5.51l-12.84-64c-.44-2.37-4.18-1.64-3.67.74l5.69,28.34c-5.3-15.21-9.64-25.6-9.74-25.83-.9-2.25-4.41-.78-3.44,1.44,0,.13,1.33,3.2,3.32,8.35-6.34-1.24,15.13,40.25,20.71,78.8-8.11-26.14-12.73-55-16.91-57.73-4.22,3.45-1.55-.3,10.41,48C389.55,37.21,373.62-20.8,370-9.35c0,.37,0,.76,17.86,47.94L369.75-.27c-9.43-7.52,26.07,59.14,24.18,57.93-1.39.57-37.36-78.62-36.76-61.33l14.75,27.8c-5.71-8.2-9.18-20-12-13.47,0,.55,0,.94,22,37.5C367.47,28,349.37-6.57,349.66,6.09c.4.6,24.83,37.51,44.56,67.46C371.18,46,338.72-4,340.34,10.2c.42.54,31.43,40.4,55,71-28.45-31.5-66-73-65.21-64.38.43.41,35.17,33.05,62.73,65.31C370.28,59.2,341.36,27,343,35.78c.38.35,29.87,27.74,53.08,53.44L364.5,57.79a1.25,1.25,0,0,0-1.76,0c-2.93,1,26.49,27.22,26.39,28.05-25.7-17.91-71-56.65-65.81-43.66.55.39,35.18,25.08,62.72,46L317,43.7a1.87,1.87,0,1,0-2,3.14l65.74,42.39L309.24,53.4a1.87,1.87,0,0,0-2.51.84C303.8,57.57,357.14,80.39,357.89,82l-53.84-20c-2.25-.88-3.59,2.69-1.3,3.5l7.81,2.91a1.88,1.88,0,0,0,.4,3.3l17.6,6.4c-2.39,2.08,2.44,2.84,3.62,3.33-.76.44-31.67-10.17-31.18-7.22-1.14,3.37,80.69,22.08,81.62,23.56l3.92,1.43c-.5,1.4-96.78-25.73-88.42-17.84l62.05,14.31-63.12-8.77c-2.39-.37-2.92,3.4-.51,3.7l10.92,1.52a1.87,1.87,0,0,0-.79,3.31l-13.11-1.14c-17.68,6.41,93.54,10.17,90.3,11.6-.39,1.68-104.6-1.75-88,5.73l27-.61c-1.17,1-40.62-.79-38.92,3.21-1.93,4.12,41.82-.48,42.65.41l-29.94,2.67c-2.32.16-2.15,3.78.16,3.73.15,0,11-1,11.2-1l-21.2,2.26c-2.41.23-2,4,.4,3.72l56.75-6.06c-30.53,7.31-59.49,12.65-50.35,16.88a559.37,559.37,0,0,1,76.62-18c-50.17,12.88-93.64,25.35-81.5,28.62.46-.19,39.16-16.08,100.39-29a2.17,2.17,0,0,1-.07.24c-46.38,14.18-110.73,41-96.37,42.71a631.66,631.66,0,0,1,77.79-33c-33.81,15.08-71.94,28.7-70.95,33.13,2.47,2.78,4.34-.65,12.11-3.5.06,6.13,8.54-1.73,20.54-6.8-15.61,9.19-26.26,12.54-26,15.73,2.8,2.4,48.42-27.43,78.25-38.42-37.51,19.28-83.22,43.59-74.69,44.86.41-.27,38.07-24.62,76.51-43-74.16,42.08-125.6,80.89-17.91,13.29-16.42,10.7-36.89,25.89-49.17,35.56-7.78,6.12-7.78,6.18-7.78,7.28.07,7.58,25.48-18.46,47.72-32.11-16,13.86-38.64,29.71-27.4,28.1.27-.24,19.06-16.85,39.47-33-11.62,11.88-27.48,22-20.17,23.26-12.72,13.79-28.15,25.26-23.34,26.62,2.94-1.82,28.56-28.87,49.1-48.64-20.43,23.5-46.15,52-46.49,52.34-2.13,13,25.24-24.11,45.21-45.18-39.14,48.29-39.27,48.69-39.39,49,.28,11.32,27.39-30.72,49.64-55.75L348.5,202.64a1.88,1.88,0,0,0,1.52,3c1.2,1,10.16-13.25,10.9-13.76l-14.65,21.65a1.87,1.87,0,1,0,3.09,2.1L386,161.41c-11,19.32-23.45,42.27-33.49,63.53a1.87,1.87,0,1,0,3.38,1.6c8.65-18.33,19.12-37.92,28.88-55.34-9.94,24.45-25.22,48.32-19.37,49,3.27-1,10.53-22.49,22.41-46.67-9.18,24.9-27.45,62.66-17,54C372,224,390.9,175.23,403.1,146.06l-19.25,60.1a1.87,1.87,0,0,0,1.23,2.36L378,232c2.79,18.72,31.12-97,31.87-93.29l.06.1c-22.61,97-22.61,97.46-22.61,97.73,5,11.59,12.63-45.21,22.62-81.3l-12.19,78.21a1.87,1.87,0,0,0,3.69.57l9-57.46-3.87,62.86a1.87,1.87,0,0,0,3.74.23l4.13-67.22L416,234.39a1.87,1.87,0,0,0,3.74-.09l-1.49-60.43c4.73,26.49,3.92,56.75,8.4,57.54,3.68-1,.25-9.43-.29-21.31,4.06,21.7,2.5,36.86,6.73,37.51,4.43-2-4.48-45-10-80.87,4.77,21.66,9.32,49.33,9.38,49.7,8.93,10.4-3.44-37.14-7.3-57.4h0c13.65,45.18,17,75.4,17.07,75.72,8.54,9.06-.7-31.61-13.54-77a7.74,7.74,0,0,0,4.25-2.06l25.57,80a1.87,1.87,0,0,0,2.35,1.21c4.58.77-15.05-50.08-14.36-51.06,13.12,29.35,18.93,55.42,23.65,55.43,4-3-19.38-52.93-34-89.62.22-.34.43-.69.63-1l15.35,36.21c.92,2.25,4.42.75,3.44-1.46L439.71,148l16.23,27.85,22.43,49.11a1.86,1.86,0,0,0,1.7,1.09,1.88,1.88,0,0,0,1.7-2.64c-9.17-20.07-28.25-61.89-37.27-81.63,1.66-.72,53.39,99.65,52.18,81.66l-33.37-57,7,10.33a1.88,1.88,0,0,0,3.39-1.34l24.86,33.62c15.31,8.17-38.05-55.36-35.54-54.34.8.53,8.32,10.06,9.42,9.48l17.44,19c1.62,1.81,4.43-.77,2.76-2.53L459.18,144.2l57.45,51.92a1.87,1.87,0,0,0,2.51-2.78c-.42-.69-80.33-72-80.34-72.92,12.3,3.41,76.7,54.91,87.95,63.19a1.87,1.87,0,0,0,2.27-3l-54.65-41.75c1.41-.23,43.85,32.55,44.66,28.08,3.81-2.34-37.89-26.88-38.12-28.16l52.82,31.52a1.88,1.88,0,0,0,2.56-.65c3.59-2.74-47.5-29.36-47.85-30.73l26.19,13.43c2.12,1.14,3.89-2.25,1.7-3.33l-13.46-6.9c5.33-3.07-44-23.38-44-24.72,56.26,15.75,77.87,42,82.83,40.15C543.78,151,505,131,490.57,124.84c1.44-.49,44.36,18.29,44.28,13.9a1.87,1.87,0,0,0-1.13-2.39L461.9,110.58c56.45,14.66,85.86,29.36,88,29.8,8.76-3.59-19-12-53.62-23.85C496.69,116.58,550.1,128.82,550.5,128.77Z"/><path class="cls-11" d="M455.88,112.7a2.23,2.23,0,0,1,.3-.2l4,1.42C458.75,113.51,457.32,113.1,455.88,112.7Z"/><path class="cls-5" d="M310.33,92.76c0,2.93-4.57,2.93-4.52,0S310.37,89.82,310.33,92.76Z"/><path class="cls-5" d="M295.66,96.09c0,2.94-4.57,2.94-4.53,0S295.7,93.16,295.66,96.09Z"/><path class="cls-5" d="M298.06,109.7c0,2.93-4.57,2.93-4.53,0S298.1,106.76,298.06,109.7Z"/><path class="cls-5" d="M288.05,114.1c.05,2.93-4.56,2.93-4.52,0S288.1,111.17,288.05,114.1Z"/><path class="cls-5" d="M299.06,119.1c0,2.93-4.57,2.93-4.53,0S299.1,116.17,299.06,119.1Z"/><path class="cls-5" d="M289.25,124.1c.05,2.94-4.56,2.94-4.52,0S289.3,121.17,289.25,124.1Z"/><path class="cls-5" d="M295.86,134.91c0,2.93-4.57,2.93-4.53,0S295.9,132,295.86,134.91Z"/><path class="cls-5" d="M290.25,145.71c.05,2.94-4.56,2.94-4.52,0S290.3,142.78,290.25,145.71Z"/><path class="cls-5" d="M294.06,159.72c0,2.93-4.57,2.93-4.53,0S294.1,156.78,294.06,159.72Z"/><path class="cls-5" d="M303.46,160.72c0,2.93-4.57,2.93-4.52,0S303.5,157.78,303.46,160.72Z"/><path class="cls-5" d="M315.66,158.52c0,2.93-4.56,2.93-4.52,0S315.71,155.58,315.66,158.52Z"/><path class="cls-5" d="M329.54,143.18c0,2.93-4.57,2.93-4.53,0S329.58,140.24,329.54,143.18Z"/><path class="cls-5" d="M320.2,128.24c0,2.93-4.57,2.93-4.52,0S320.24,125.3,320.2,128.24Z"/><path class="cls-5" d="M337.27,116.23c.05,2.94-4.56,2.94-4.52,0S337.32,113.3,337.27,116.23Z"/><path class="cls-5" d="M359.41,124.36c0,2.94-4.56,2.94-4.52,0S359.46,121.43,359.41,124.36Z"/><path class="cls-5" d="M386.62,108.36c.05,2.93-4.56,2.93-4.52,0S386.67,105.42,386.62,108.36Z"/><path class="cls-5" d="M384.08,122.64c.05,2.93-4.56,2.93-4.52,0S384.13,119.7,384.08,122.64Z"/><path class="cls-5" d="M388.89,85c0,2.93-4.57,2.93-4.53,0S388.93,82.09,388.89,85Z"/><path class="cls-5" d="M368.75,92c0,2.93-4.56,2.93-4.52,0S368.79,89,368.75,92Z"/><path class="cls-5" d="M335.67,93c0,2.94-4.56,2.94-4.52,0S335.72,90.09,335.67,93Z"/><path class="cls-5" d="M331.47,79.09c0,2.93-4.57,2.93-4.52,0S331.51,76.15,331.47,79.09Z"/><path class="cls-5" d="M314.46,70.35c0,2.93-4.57,2.93-4.53,0S314.5,67.41,314.46,70.35Z"/><path class="cls-5" d="M304.46,74.48c0,2.94-4.57,2.94-4.52,0S304.5,71.55,304.46,74.48Z"/><path class="cls-5" d="M300.66,80.09c0,2.93-4.57,2.93-4.52,0S300.7,77.15,300.66,80.09Z"/><path class="cls-5" d="M299.06,88.69c0,2.93-4.57,2.93-4.53,0S299.1,85.76,299.06,88.69Z"/><path class="cls-5" d="M305.66,63.68c0,2.93-4.57,2.93-4.52,0S305.7,60.75,305.66,63.68Z"/><path class="cls-5" d="M310.66,55.08c0,2.93-4.56,2.93-4.52,0S310.71,52.14,310.66,55.08Z"/><path class="cls-5" d="M318.6,43.94c0,2.93-4.57,2.93-4.52,0S318.64,41,318.6,43.94Z"/><path class="cls-5" d="M326.07,40.88c0,2.93-4.57,2.93-4.52,0S326.11,37.94,326.07,40.88Z"/><path class="cls-5" d="M346.08,34.87c0,2.93-4.57,2.93-4.53,0S346.12,31.93,346.08,34.87Z"/><path class="cls-5" d="M332.34,14.86c.05,2.93-4.56,2.93-4.52,0S332.39,11.93,332.34,14.86Z"/><path class="cls-5" d="M344.08,9.06c0,2.93-4.57,2.93-4.53,0S344.12,6.12,344.08,9.06Z"/><path class="cls-5" d="M353.48,5.06c0,2.93-4.57,2.93-4.52,0S353.52,2.12,353.48,5.06Z"/><path class="cls-5" d="M364.08,10.66c.05,2.93-4.56,2.93-4.52,0S364.13,7.72,364.08,10.66Z"/><path class="cls-5" d="M366.35,23.66c0,2.94-4.57,2.94-4.52,0S366.39,20.73,366.35,23.66Z"/><path class="cls-5" d="M370.89.25c0,2.94-4.57,2.94-4.53,0S370.93-2.68,370.89.25Z"/><path class="cls-5" d="M389.69-1.55c.05,2.94-4.56,2.94-4.52,0S389.74-4.48,389.69-1.55Z"/><path class="cls-5" d="M400,1.79c.05,2.93-4.56,2.93-4.52,0S400-1.15,400,1.79Z"/><path class="cls-5" d="M409.83,13.79c.05,2.94-4.56,2.94-4.52,0S409.88,10.86,409.83,13.79Z"/><path class="cls-5" d="M426.64,25.53c0,2.94-4.57,2.94-4.52,0S426.68,22.6,426.64,25.53Z"/><path class="cls-5" d="M421.84,55.27c0,2.93-4.57,2.93-4.52,0S421.88,52.34,421.84,55.27Z"/><path class="cls-5" d="M408.23,64.87c0,2.94-4.56,2.94-4.52,0S408.28,61.94,408.23,64.87Z"/><path class="cls-5" d="M425.57,69.14c.05,2.94-4.56,2.94-4.52,0S425.62,66.21,425.57,69.14Z"/><path class="cls-5" d="M436.65,45.27c0,2.94-4.57,2.94-4.52,0S436.69,42.34,436.65,45.27Z"/><path class="cls-5" d="M446,.72c0,2.94-4.57,2.94-4.53,0S446-2.21,446,.72Z"/><path class="cls-5" d="M456.39,2.06c0,2.93-4.56,2.93-4.52,0S456.43-.88,456.39,2.06Z"/><path class="cls-5" d="M464.66.72c0,2.94-4.56,2.94-4.52,0S464.7-2.21,464.66.72Z"/><path class="cls-5" d="M477.86,4.46c0,2.93-4.57,2.93-4.52,0S477.9,1.52,477.86,4.46Z"/><path class="cls-5" d="M468.32,17.73c.05,2.93-4.56,2.93-4.52,0S468.37,14.79,468.32,17.73Z"/><path class="cls-5" d="M486.93,2.86c0,2.93-4.57,2.93-4.52,0S487-.08,486.93,2.86Z"/><path class="cls-5" d="M486.4,15c0,2.93-4.57,2.93-4.53,0S486.44,12.07,486.4,15Z"/><path class="cls-5" d="M495.2,8.19c0,2.94-4.57,2.94-4.52,0S495.24,5.26,495.2,8.19Z"/><path class="cls-5" d="M487.2,27.13c0,2.94-4.57,2.94-4.53,0S487.24,24.2,487.2,27.13Z"/><path class="cls-5" d="M453.44,57.54c.05,2.94-4.56,2.94-4.52,0S453.49,54.61,453.44,57.54Z"/><path class="cls-5" d="M450.65,72.22c0,2.93-4.57,2.93-4.52,0S450.69,69.28,450.65,72.22Z"/><path class="cls-5" d="M440.78,74.08c0,2.94-4.57,2.94-4.52,0S440.82,71.15,440.78,74.08Z"/><path class="cls-5" d="M436.51,86.09c0,2.93-4.56,2.93-4.52,0S436.55,83.15,436.51,86.09Z"/><path class="cls-5" d="M430.91,96.23c0,2.93-4.57,2.93-4.52,0S431,93.29,430.91,96.23Z"/><path class="cls-5" d="M415.44,101.83c0,2.93-4.57,2.93-4.53,0S415.48,98.89,415.44,101.83Z"/><path class="cls-5" d="M409.57,94.89c0,2.94-4.57,2.94-4.53,0S409.61,92,409.57,94.89Z"/><path class="cls-5" d="M409.3,116.9c0,2.93-4.57,2.93-4.52,0S409.34,114,409.3,116.9Z"/><path class="cls-5" d="M422.64,124.1c0,2.93-4.57,2.93-4.52,0S422.68,121.16,422.64,124.1Z"/><path class="cls-5" d="M421.31,110.36c0,2.94-4.57,2.94-4.53,0S421.35,107.43,421.31,110.36Z"/><path class="cls-5" d="M362.22,141.84c0,2.94-4.56,2.94-4.52,0S362.26,138.91,362.22,141.84Z"/><path class="cls-5" d="M343.14,160.25c0,2.93-4.56,2.93-4.52,0S343.18,157.32,343.14,160.25Z"/><path class="cls-5" d="M309.26,165.59c0,2.93-4.56,2.93-4.52,0S309.3,162.65,309.26,165.59Z"/><path class="cls-5" d="M311.26,172.32c.05,2.94-4.56,2.94-4.52,0S311.31,169.39,311.26,172.32Z"/><path class="cls-5" d="M309.06,180.32c0,2.94-4.56,2.94-4.52,0S309.1,177.39,309.06,180.32Z"/><path class="cls-5" d="M315.46,186.53c.05,2.93-4.56,2.93-4.52,0S315.51,183.59,315.46,186.53Z"/><path class="cls-5" d="M332.67,181.12c0,2.94-4.57,2.94-4.52,0S332.71,178.19,332.67,181.12Z"/><path class="cls-5" d="M353.08,170.92c0,2.93-4.57,2.93-4.52,0S353.12,168,353.08,170.92Z"/><path class="cls-5" d="M417.57,141.31c0,2.93-4.57,2.93-4.52,0S417.61,138.38,417.57,141.31Z"/><path class="cls-5" d="M426.91,134.11c0,2.93-4.57,2.93-4.53,0S427,131.17,426.91,134.11Z"/><path class="cls-5" d="M427.44,142.38c0,2.93-4.57,2.93-4.52,0S427.48,139.44,427.44,142.38Z"/><path class="cls-5" d="M438.65,133.57c0,2.94-4.57,2.94-4.53,0S438.69,130.64,438.65,133.57Z"/><path class="cls-5" d="M433.84,119.43c.05,2.94-4.56,2.94-4.52,0S433.89,116.5,433.84,119.43Z"/><path class="cls-5" d="M430.78,106.36c0,2.94-4.56,2.94-4.52,0S430.82,103.43,430.78,106.36Z"/><path class="cls-5" d="M439.05,105c0,2.93-4.56,2.93-4.52,0S439.09,102.09,439.05,105Z"/><path class="cls-5" d="M446.05,95.89c.05,2.94-4.56,2.94-4.52,0S446.1,93,446.05,95.89Z"/><path class="cls-5" d="M449.58,104.23c.05,2.93-4.56,2.93-4.52,0S449.63,101.29,449.58,104.23Z"/><path class="cls-5" d="M444.78,114.37c0,2.93-4.57,2.93-4.52,0S444.82,111.43,444.78,114.37Z"/><path class="cls-5" d="M445.72,139.18c0,2.93-4.57,2.93-4.52,0S445.76,136.24,445.72,139.18Z"/><path class="cls-5" d="M440.78,150.51c0,2.93-4.57,2.93-4.52,0S440.82,147.57,440.78,150.51Z"/><path class="cls-5" d="M431.18,156.64c0,2.94-4.57,2.94-4.53,0S431.22,153.71,431.18,156.64Z"/><path class="cls-5" d="M419.7,157.32c.05,2.93-4.56,2.93-4.52,0S419.75,154.38,419.7,157.32Z"/><path class="cls-5" d="M452.78,130.11c.05,2.93-4.56,2.93-4.52,0S452.83,127.17,452.78,130.11Z"/><path class="cls-5" d="M461.05,115.17c.05,2.93-4.56,2.93-4.52,0S461.1,112.23,461.05,115.17Z"/><path class="cls-5" d="M458.39,106.63c0,2.93-4.57,2.93-4.53,0S458.43,103.7,458.39,106.63Z"/><path class="cls-5" d="M465.18,83.42c.05,2.93-4.56,2.93-4.52,0S465.23,80.49,465.18,83.42Z"/><path class="cls-5" d="M475.19,89.56c.05,2.93-4.56,2.93-4.52,0S475.24,86.62,475.19,89.56Z"/><path class="cls-5" d="M495.33,76.08c.05,2.94-4.56,2.94-4.52,0S495.38,73.15,495.33,76.08Z"/><path class="cls-5" d="M491.73,51.14c0,2.94-4.56,2.94-4.52,0S491.78,48.21,491.73,51.14Z"/><path class="cls-5" d="M503.68,30.87c0,2.93-4.57,2.93-4.53,0S503.72,27.93,503.68,30.87Z"/><path class="cls-5" d="M507.34,18.66c0,2.94-4.57,2.94-4.52,0S507.38,15.73,507.34,18.66Z"/><path class="cls-5" d="M513.34,26.26c0,2.94-4.57,2.94-4.52,0S513.38,23.33,513.34,26.26Z"/><path class="cls-5" d="M519.74,30.27c0,2.93-4.56,2.93-4.52,0S519.79,27.33,519.74,30.27Z"/><path class="cls-5" d="M515.54,40.47c0,2.93-4.56,2.93-4.52,0S515.58,37.54,515.54,40.47Z"/><path class="cls-5" d="M517.14,53.88c.05,2.93-4.56,2.93-4.52,0S517.19,50.94,517.14,53.88Z"/><path class="cls-5" d="M528.75,42.67c0,2.94-4.57,2.94-4.53,0S528.79,39.74,528.75,42.67Z"/><path class="cls-5" d="M534.15,50.67c0,2.94-4.57,2.94-4.52,0S534.19,47.74,534.15,50.67Z"/><path class="cls-5" d="M537.35,59.68c0,2.93-4.57,2.93-4.52,0S537.39,56.74,537.35,59.68Z"/><path class="cls-5" d="M530.35,68.48c0,2.94-4.57,2.94-4.53,0S530.39,65.55,530.35,68.48Z"/><path class="cls-5" d="M543.15,69.08c.05,2.94-4.56,2.94-4.52,0S543.2,66.15,543.15,69.08Z"/><path class="cls-5" d="M521.14,79.49c.05,2.93-4.56,2.93-4.52,0S521.19,76.55,521.14,79.49Z"/><path class="cls-5" d="M519.14,92c.05,2.93-4.56,2.93-4.52,0S519.19,89,519.14,92Z"/><path class="cls-5" d="M541,83.69c0,2.93-4.56,2.93-4.52,0S541,80.75,541,83.69Z"/><path class="cls-5" d="M548.15,92.35c.05,2.93-4.56,2.93-4.52,0S548.2,89.42,548.15,92.35Z"/><path class="cls-5" d="M545.75,99.89c0,2.94-4.56,2.94-4.52,0S545.8,97,545.75,99.89Z"/><path class="cls-5" d="M536.55,102.09c0,2.94-4.57,2.94-4.52,0S536.59,99.16,536.55,102.09Z"/><path class="cls-5" d="M529.55,107.5c0,2.93-4.57,2.93-4.53,0S529.59,104.56,529.55,107.5Z"/><path class="cls-5" d="M494.73,114.7c0,2.93-4.56,2.93-4.52,0S494.78,111.77,494.73,114.7Z"/><path class="cls-5" d="M547.15,118.5c.05,2.93-4.56,2.93-4.52,0S547.2,115.57,547.15,118.5Z"/><path class="cls-5" d="M552.76,126.9c0,2.94-4.57,2.94-4.53,0S552.8,124,552.76,126.9Z"/><path class="cls-5" d="M552.16,138.51c0,2.93-4.57,2.93-4.53,0S552.2,135.57,552.16,138.51Z"/><path class="cls-5" d="M535.35,138.11c0,2.93-4.57,2.93-4.52,0S535.39,135.17,535.35,138.11Z"/><path class="cls-5" d="M543.75,156.12c0,2.93-4.56,2.93-4.52,0S543.8,153.18,543.75,156.12Z"/><path class="cls-5" d="M503.74,140.91c0,2.93-4.57,2.93-4.53,0S503.78,138,503.74,140.91Z"/><path class="cls-5" d="M517.74,150.71c0,2.94-4.56,2.94-4.52,0S517.79,147.78,517.74,150.71Z"/><path class="cls-5" d="M519.74,165.92c0,2.93-4.56,2.93-4.52,0S519.79,163,519.74,165.92Z"/><path class="cls-5" d="M537,168.72c0,2.93-4.57,2.93-4.52,0S537,165.79,537,168.72Z"/><path class="cls-5" d="M530.15,182.13c0,2.93-4.57,2.93-4.53,0S530.19,179.19,530.15,182.13Z"/><path class="cls-5" d="M519.54,193.93c.05,2.93-4.56,2.93-4.52,0S519.59,191,519.54,193.93Z"/><path class="cls-5" d="M493.53,181.93c.05,2.93-4.56,2.93-4.52,0S493.58,179,493.53,181.93Z"/><path class="cls-5" d="M474.73,162.32c0,2.93-4.57,2.93-4.53,0S474.77,159.38,474.73,162.32Z"/><path class="cls-5" d="M474.13,175.72c0,2.94-4.57,2.94-4.53,0S474.17,172.79,474.13,175.72Z"/><path class="cls-5" d="M445.31,160.92c.05,2.93-4.56,2.93-4.52,0S445.36,158,445.31,160.92Z"/><path class="cls-5" d="M460.32,175.72c0,2.94-4.57,2.94-4.52,0S460.36,172.79,460.32,175.72Z"/><path class="cls-5" d="M456.12,186.13c0,2.93-4.57,2.93-4.52,0S456.16,183.19,456.12,186.13Z"/><path class="cls-5" d="M432.31,173.32c0,2.94-4.57,2.94-4.52,0S432.35,170.39,432.31,173.32Z"/><path class="cls-5" d="M434.11,182.33c0,2.93-4.57,2.93-4.52,0S434.15,179.39,434.11,182.33Z"/><path class="cls-5" d="M440.11,202.93c.05,2.94-4.56,2.94-4.52,0S440.16,200,440.11,202.93Z"/><path class="cls-5" d="M436.51,216.14c0,2.93-4.56,2.93-4.52,0S436.55,213.2,436.51,216.14Z"/><path class="cls-5" d="M446.31,234.55c.05,2.93-4.56,2.93-4.52,0S446.36,231.61,446.31,234.55Z"/><path class="cls-5" d="M435.31,245c0,2.93-4.57,2.93-4.52,0S435.35,242,435.31,245Z"/><path class="cls-5" d="M427.51,228.94c0,2.94-4.57,2.94-4.53,0S427.55,226,427.51,228.94Z"/><path class="cls-5" d="M419.1,183.33c0,2.93-4.56,2.93-4.52,0S419.15,180.39,419.1,183.33Z"/><path class="cls-5" d="M387.89,206.73c0,2.94-4.56,2.94-4.52,0S387.94,203.8,387.89,206.73Z"/><path class="cls-5" d="M382.09,232.54c0,2.94-4.57,2.94-4.52,0S382.13,229.61,382.09,232.54Z"/><path class="cls-5" d="M391.49,236.55c.05,2.93-4.56,2.93-4.52,0S391.54,233.61,391.49,236.55Z"/><path class="cls-5" d="M401.44,233.35c0,2.93-4.57,2.93-4.53,0S401.48,230.41,401.44,233.35Z"/><path class="cls-5" d="M413.1,209.34c0,2.93-4.56,2.93-4.52,0S413.15,206.4,413.1,209.34Z"/><path class="cls-5" d="M372.35,194.53c0,2.93-4.56,2.93-4.52,0S372.4,191.6,372.35,194.53Z"/><path class="cls-5" d="M367.55,217.74c0,2.93-4.57,2.93-4.52,0S367.59,214.81,367.55,217.74Z"/><path class="cls-5" d="M371.42,227.14c0,2.94-4.57,2.94-4.52,0S371.46,224.21,371.42,227.14Z"/><path class="cls-5" d="M356.48,225.74c0,2.94-4.57,2.94-4.52,0S356.52,222.81,356.48,225.74Z"/><path class="cls-5" d="M352.28,203.73c0,2.94-4.57,2.94-4.52,0S352.32,200.8,352.28,203.73Z"/><path class="cls-5" d="M349.21,215.07c0,2.94-4.57,2.94-4.52,0S349.25,212.14,349.21,215.07Z"/><path class="cls-5" d="M340.27,207.47c.05,2.93-4.56,2.93-4.52,0S340.32,204.53,340.27,207.47Z"/><path class="cls-5" d="M334,204.13c.05,2.94-4.56,2.94-4.52,0S334.05,201.2,334,204.13Z"/><path class="cls-5" d="M329.74,197.73c0,2.94-4.57,2.94-4.53,0S329.78,194.8,329.74,197.73Z"/><path class="cls-5" d="M410.7,240.35c0,2.93-4.56,2.93-4.52,0S410.74,237.41,410.7,240.35Z"/><path class="cls-5" d="M420.1,234.35c0,2.93-4.56,2.93-4.52,0S420.15,231.41,420.1,234.35Z"/><path class="cls-5" d="M462.22,235.56c0,2.93-4.56,2.93-4.52,0S462.26,232.62,462.22,235.56Z"/><path class="cls-5" d="M471.72,239.55c0,2.93-4.56,2.93-4.52,0S471.77,236.61,471.72,239.55Z"/><path class="cls-5" d="M482.33,224.14c0,2.94-4.57,2.94-4.52,0S482.37,221.21,482.33,224.14Z"/><path class="cls-5" d="M497.33,224.34c.05,2.94-4.56,2.94-4.52,0S497.38,221.41,497.33,224.34Z"/><path class="cls-5" d="M502.34,207.94c0,2.93-4.57,2.93-4.53,0S502.38,205,502.34,207.94Z"/><path class="cls-5" d="M470.92,133.51c.05,2.93-4.56,2.93-4.52,0S471,130.57,470.92,133.51Z"/><path class="cls-5" d="M473.59,56.74c0,2.94-4.56,2.94-4.52,0S473.64,53.81,473.59,56.74Z"/><path class="cls-5" d="M393.29,33.8c0,2.94-4.56,2.94-4.52,0S393.34,30.87,393.29,33.8Z"/><path class="cls-5" d="M394.29,20.46c0,2.94-4.56,2.94-4.52,0S394.34,17.53,394.29,20.46Z"/><path class="cls-5" d="M376.22,51.14c0,2.94-4.57,2.94-4.52,0S376.26,48.21,376.22,51.14Z"/><path class="cls-5" d="M364.75,58.34c0,2.94-4.57,2.94-4.52,0S364.79,55.41,364.75,58.34Z"/><path class="cls-5" d="M392.69,54.54c.05,2.94-4.56,2.94-4.52,0S392.74,51.61,392.69,54.54Z"/><path class="cls-5" d="M651.7,537.3c6,.28,8.86,0,14.64.12s10.59,1.45,14.13,1.93C675.65,533.69,657,533.76,651.7,537.3Z"/><path class="cls-5" d="M619.57,728c2.8-25.15,3.85-149.6.46-174.35C617.9,565.5,617.11,717.13,619.57,728Z"/><path class="cls-12" d="M617.42,803.56c1.39-.08,3-.1,4.43-.15-.09-.46-1.15-58.76-2.81-66.29C617.23,736.47,617.52,803.75,617.42,803.56Z"/><path class="cls-5" d="M594.25,595.06c3.74-9,12.61-37.75,21.62-43.4C605.55,554.82,592.6,589.4,594.25,595.06Z"/><path class="cls-5" d="M583.69,571.21c6.07-6.55,11.53-16.4,31-21.8C605.23,546,582.83,564.42,583.69,571.21Z"/><path class="cls-5" d="M566.06,570.48c.9.66,1.74-1,4.54-3.39,8.21-10.46,21-16.44,32.53-18.64C592.71,543.77,565.68,562.69,566.06,570.48Z"/><path class="cls-5" d="M549.79,557.46c14.79-7.39,48.52-15.42,65-9.88C602.43,536.38,554.09,546.71,549.79,557.46Z"/><path class="cls-5" d="M565.43,539c.42,1,2,.49,5.57-.17,13.46-2.51,26.79-1.25,36.93,3C601.8,532.93,569.55,532.84,565.43,539Z"/><path class="cls-5" d="M589.05,496.31c12.33,12.65,21.54,21.56,28.25,42.44C619.71,527,593.51,493.22,589.05,496.31Z"/><path class="cls-5" d="M647.54,495c-6.35,4.84-22.45,29.44-22.12,37.2C625.56,517.19,637.76,495.52,647.54,495Z"/><path class="cls-5" d="M586.59,512.94a123.32,123.32,0,0,1,15.13,11.32c5.56,3.93,14.8,17.86,15.13,20.69C615.1,530.07,593.07,511.41,586.59,512.94Z"/><path class="cls-5" d="M650.78,506.24c-6.45,3.81-22.32,23.6-24.91,30.19C628.62,525.82,644.63,505.42,650.78,506.24Z"/><path class="cls-5" d="M665.4,509.32c.13,1.27-1.87,1.63-5.55,4.07a142.45,142.45,0,0,0-14.21,9.69c-7.68,4.79-19.25,17.3-20.12,21.24C629.36,526.91,658.15,509,665.4,509.32Z"/><path class="cls-5" d="M667.76,529c-5.11,1.25-9.34,1.22-17.15,3.7-6.51,1.06-15.26,6.06-19.5,8.63C635,532.88,662.66,525,667.76,529Z"/><path class="cls-5" d="M664.75,546.51c-2.75.06-8.37-1.06-17-1.22a122.39,122.39,0,0,0-21.72,1.32C632.2,540.13,661.83,540.72,664.75,546.51Z"/><path class="cls-5" d="M649.94,579.11c-2.6-5-4.22-7.06-9.13-14.66s-12-13.27-14.74-15.76C634.94,549.52,652.71,573.24,649.94,579.11Z"/><path class="cls-5" d="M640.56,590.08c-2.4-7.12-8.34-23.12-12.83-29.86-3.13-5-4.15-6.05-4.5-7.31C631.55,554.66,644.65,585,640.56,590.08Z"/><path class="cls-5" d="M584,524.11c15.16,8.13,20.1,7.78,32.75,23C615.25,537.85,590.16,521.6,584,524.11Z"/><path class="cls-5" d="M620.25,548.7c1.55-1.56,1.55-23.16,1.92-34.15-.15-12.33.67-27.34-1.44-26.8S619,543,620.25,548.7Z"/><path class="cls-5" d="M626.17,509.07c.25.33,1.69-2.63,6-9.27,2.06-3.19,6.83-7.31,7.78-10.62C633.78,490.24,625.88,503.73,626.17,509.07Z"/><path class="cls-5" d="M615.49,522.94c-.33.25-.89-3-3.16-10.56A124.55,124.55,0,0,0,607.8,500C613.41,502.74,617.25,517.89,615.49,522.94Z"/><path class="cls-5" d="M637.12,549.3c3.85,2.09,9.1,4.79,13.16,7.39s7.6,6.58,10.75,9.42C660.28,558.71,643.7,548.66,637.12,549.3Z"/></g><g id="palm_trees" data-name="palm trees"><path class="cls-3" d="M522.36,540.21c-19.48-5.45-43.37-4.89-60.12,7.43,10.37-12.15,24.33-14.2,38.28-16.56-6.33-1.32-13.86-.41-20,1.57,6.8-5.06,1-4.12-2.77-1,.77-2,1.82-5,.87-7,6.79-2.94,11.89-8.41,18.11-12.16,1.76-1.2,5.07-1.49,5.8-3.61-3.13-1.4-7.59,2.25-11.31,1.56,7.36-5.94-9.67.21-11,2.87-7.7,3.61-12,13.2-18.64,18.82,2.05-11.39,16.4-29.61,15.57-30.29s-8.95,7.93-11.9,11.5c.95-3.89,6.77-9.55,6.17-10.31s-7.12,5.35-9.72,8.93c2-5.84,8.37-7.79,10.81-13,2.14-9.89,3.33-14.65-5.26-4.19-1.34,1.61-.44,4.32-1.8,5.91,1.35-7.65-3.48,1.64-5.74,3-.22-2.84.26-7.4-3-8.57-.42-6-5.32,3.08-4.86,7-6.12-9.19,4.1,13.84,2.38,20.33-3.41-9.51-9.21-18.3-14.07-27.5-.74-1.46-2.2-.52-3.25-2.61-.32-.64-1.28-1.54-1.79-1-2.41,4.8,7.12,17.14,8.29,23.44-8.3-7.16,3.73,11.18,4.88,13.52-2.86-.65,2.7,6.64,3,8.06-2.63.18-2.33-4.37-5.1-4.28-.57-.34-.57-1.14-.85-1.73-.57-1.27-2.3-1.54-3.15-2.64-.57-1-1.86-2.45-1.56-.65-2-2.31-3.67-4.65-6.88-5.43-4.68-1.82-15-10.55-12.88-5.25-2.86-2.52-4.15-.71-1.37,1.43,7.21,5.46,16.67,8.41,22.1,16-7.79-5.45-16.42-12.16-26.1-11.69-.71-.45-2.44-.81-2.27.49,11.86,6.3,29.5,8.92,35.06,23.09-7.38-6.62-35.59-8.23-37.73-6.35-3.37.16-9.23-.13-9.39,1.12,3.82,2.23,23.29.57,28.9,1.53,4.33,0-.88.72,8.67,1.44a16.3,16.3,0,0,1,7.06,2.25c-11.14-1.84-28.51-2.6-42,1.61-10.52,1.76-9.31,4.17-9.31,4.17-30.63,16.32,39.63-17.93,56.16-1-10.17-6-23.88,2-24.86,2-5.78.08-4.74,1.92-5.21,2-2.65.48-1.48,1.6-2.33,1.77-6.58,1.28-5,2.79-5.78,3.29-6.66,4.25-6.26,5.62-7.14,8.91-.69,2.54-6.59,5.94-5.62,6.82,7.69-3.91,29.51-30.77,49-25.21-2.25-1.62-32.61,10.22-33,14.93-.08.89-5.54,3.38-8.11,5.06s-2.65,4.5-3.69,6.91-4.33,5.69-3.69,5.94c.53.74,23.4-25.9,29.94-25.45-2.52.5-20.73,15.94-18.7,19.59,1,.8,5.29-6.35,9.31-10.68s10.59-7.79,10.59-7.79c.54,0-19.73,18.38-15,20.23-3.57,5.75-.58,5.66,2.25-1.28,3-6.08,6.81-7.19,10.09-12.92-1,7.44,11.34-20.33,22.81-12.67-8.65,1-21.75,39-21.26,40.68,1.28.56,1.85-3.21,3.37-5.62,7.7-9.84,5.59-27.1,17.91-34.32,10,52.78-1.92,228.78,1.12,277.14-.64,12.19,7.06,5.14,7.06,5.14-2.57-58.35,1.44-223.26.35-280.46,5.12,6.55,5.09,15.51,9.31,22.6,1.13,5.46,1.13,10.87,4.67,15.24,5.4,4.78-3.05-23.19-4.7-24.86a146.46,146.46,0,0,0-8.54-14.13c.43-3.18,4.45-.81,6.43.7,4.24,2.94,4.85,8.55,7.89,12.34,3.29,2,3.46,6.57,6.64,8.48,4.39,3.18,2.85-.35,1.39-3.08-3-8.86-8.93-18-18.64-20.65,12.54-.59,24.46,2.86,36.35,6.36,12.29,4-4.63-3.8-8-3.85,2.63-3-29.15-4.55-32.05-3,15.05-9.11,34.84-2.93,48.87,5.43,1.22,1,1.55-.24.43-1-3.39-3.81-8.52-4.22-12.31-7.06-2-.85-3.28-3.51-5.31-3.72-3.2-.2-3.19-2-5-1.81-3.61.33-2.65-1.09-4.29-1.08-4.51,1.42-9.33,1.14-13.66,3.16,10.09-6.52,23.61-2.35,34.82-5.4C506.62,538.37,525.27,543.22,522.36,540.21Z"/><path class="cls-1" d="M462.15,544.22c2.41-3.85,6.31-6.23,10.35-8.08Q467.52,540.43,462.15,544.22Z"/><path class="cls-1" d="M465.57,536a96.33,96.33,0,0,1,11.88-10.76A43,43,0,0,1,465.57,536Z"/><path class="cls-1" d="M477,520.63c2.4-1.88,4.92-3.62,7.39-5.4-5.24,5.93-11.82,10.33-17.76,15.64A65.22,65.22,0,0,1,477,520.63Z"/><path class="cls-3" d="M831,540.21c-19.48-5.45-43.37-4.89-60.12,7.43,10.38-12.15,24.34-14.2,38.28-16.56-6.33-1.32-13.86-.41-20,1.57,6.81-5.06,1-4.12-2.77-1,.78-2,1.83-5,.88-7,6.78-2.94,11.88-8.41,18.1-12.16,1.77-1.2,5.07-1.49,5.81-3.61-3.14-1.4-7.6,2.25-11.32,1.56,7.37-5.94-9.66.21-11,2.87-7.71,3.61-12,13.2-18.65,18.82,2.06-11.39,16.4-29.61,15.57-30.29s-9,7.93-11.9,11.5c1-3.89,6.78-9.55,6.17-10.31s-7.12,5.35-9.71,8.93c2-5.84,8.37-7.79,10.81-13,2.14-9.89,3.33-14.65-5.27-4.19-1.34,1.61-.44,4.32-1.8,5.91,1.35-7.65-3.47,1.64-5.73,3-.22-2.84.26-7.4-3-8.57-.43-6-5.33,3.08-4.87,7-6.11-9.19,4.11,13.84,2.39,20.33-3.42-9.51-9.22-18.3-14.08-27.5-.74-1.46-2.2-.52-3.24-2.61-.32-.64-1.29-1.54-1.79-1-2.42,4.8,7.12,17.14,8.29,23.44-8.31-7.16,3.72,11.18,4.88,13.52-2.87-.65,2.7,6.64,3,8.06-2.63.18-2.33-4.37-5.11-4.28-.56-.34-.57-1.14-.84-1.73-.58-1.27-2.31-1.54-3.15-2.64-.57-1-1.87-2.45-1.57-.65-2-2.31-3.67-4.65-6.87-5.43-4.69-1.82-15-10.55-12.88-5.25-2.86-2.52-4.16-.71-1.37,1.43,7.2,5.46,16.66,8.41,22.1,16-7.8-5.45-16.43-12.16-26.11-11.69-.71-.45-2.43-.81-2.26.49,11.86,6.3,29.5,8.92,35,23.09-7.38-6.62-35.59-8.23-37.72-6.35-3.37.16-9.23-.13-9.39,1.12,3.81,2.23,23.28.57,28.89,1.53,4.34,0-.88.72,8.67,1.44a16.37,16.37,0,0,1,7.07,2.25c-11.15-1.84-28.52-2.6-42,1.61-10.51,1.76-9.31,4.17-9.31,4.17-30.62,16.32,39.63-17.93,56.16-1-10.17-6-23.88,2-24.85,2-5.78.08-4.75,1.92-5.22,2-2.65.48-1.48,1.6-2.33,1.77-6.58,1.28-5,2.79-5.78,3.29-6.66,4.25-6.26,5.62-7.14,8.91-.68,2.54-6.58,5.94-5.62,6.82,7.7-3.91,29.52-30.77,49-25.21-2.26-1.62-32.61,10.22-33,14.93-.08.89-5.53,3.38-8.1,5.06s-2.65,4.5-3.7,6.91-4.33,5.69-3.69,5.94c.54.74,23.4-25.9,29.94-25.45-2.51.5-20.73,15.94-18.7,19.59,1,.8,5.3-6.35,9.31-10.68s10.6-7.79,10.6-7.79c.54,0-19.74,18.38-15,20.23-3.58,5.75-.59,5.66,2.24-1.28,3-6.08,6.81-7.19,10.09-12.92-1,7.44,11.34-20.33,22.81-12.67-8.65,1-21.74,39-21.26,40.68,1.29.56,1.85-3.21,3.37-5.62,7.7-9.84,5.6-27.1,17.91-34.32,10,52.78-1.91,228.78,1.12,277.14-.64,12.19,7.06,5.14,7.06,5.14-2.56-58.35,1.44-223.26.36-280.46,5.11,6.55,5.09,15.51,9.3,22.6,1.13,5.46,1.14,10.87,4.67,15.24,5.41,4.78-3-23.19-4.7-24.86a142.53,142.53,0,0,0-8.54-14.13c.43-3.18,4.45-.81,6.43.7,4.24,2.94,4.86,8.55,7.9,12.34,3.28,2,3.45,6.57,6.64,8.48,4.38,3.18,2.85-.35,1.38-3.08-3-8.86-8.93-18-18.63-20.65,12.53-.59,24.46,2.86,36.35,6.36,12.28,4-4.64-3.8-8-3.85,2.63-3-29.15-4.55-32.05-3,15.05-9.11,34.85-2.93,48.87,5.43,1.22,1,1.55-.24.43-1-3.38-3.81-8.51-4.22-12.31-7.06-2-.85-3.28-3.51-5.31-3.72-3.19-.2-3.19-2-5-1.81-3.61.33-2.66-1.09-4.3-1.08-4.51,1.42-9.33,1.14-13.65,3.16,10.08-6.52,23.61-2.35,34.82-5.4C815.28,538.37,833.93,543.22,831,540.21Z"/><path class="cls-1" d="M770.81,544.22c2.4-3.85,6.3-6.23,10.34-8.08Q776.19,540.43,770.81,544.22Z"/><path class="cls-1" d="M774.22,536a96.42,96.42,0,0,1,11.89-10.76A43,43,0,0,1,774.22,536Z"/><path class="cls-1" d="M785.63,520.63c2.4-1.88,4.92-3.62,7.4-5.4-5.25,5.93-11.83,10.33-17.76,15.64A65.58,65.58,0,0,1,785.63,520.63Z"/><path class="cls-3" d="M353.36,540.21c-19.48-5.45-43.37-4.89-60.12,7.43,10.37-12.15,24.33-14.2,38.28-16.56-6.33-1.32-13.86-.41-20,1.57,6.8-5.06,1-4.12-2.77-1,.77-2,1.82-5,.87-7,6.79-2.94,11.89-8.41,18.11-12.16,1.76-1.2,5.07-1.49,5.8-3.61-3.13-1.4-7.59,2.25-11.31,1.56,7.36-5.94-9.67.21-11,2.87-7.7,3.61-12,13.2-18.64,18.82,2.05-11.39,16.4-29.61,15.57-30.29s-8.95,7.93-11.9,11.5c.95-3.89,6.77-9.55,6.17-10.31s-7.12,5.35-9.72,8.93c2-5.84,8.37-7.79,10.81-13,2.14-9.89,3.33-14.65-5.26-4.19-1.34,1.61-.44,4.32-1.8,5.91,1.35-7.65-3.48,1.64-5.74,3-.22-2.84.26-7.4-3-8.57-.42-6-5.32,3.08-4.86,7-6.12-9.19,4.1,13.84,2.38,20.33-3.41-9.51-9.21-18.3-14.07-27.5-.74-1.46-2.21-.52-3.25-2.61-.32-.64-1.28-1.54-1.79-1-2.41,4.8,7.12,17.14,8.29,23.44-8.3-7.16,3.73,11.18,4.88,13.52-2.86-.65,2.7,6.64,3,8.06-2.63.18-2.33-4.37-5.1-4.28-.57-.34-.57-1.14-.85-1.73-.57-1.27-2.3-1.54-3.15-2.64-.57-1-1.86-2.45-1.56-.65-2-2.31-3.67-4.65-6.88-5.43-4.68-1.82-15-10.55-12.88-5.25-2.86-2.52-4.15-.71-1.37,1.43,7.21,5.46,16.67,8.41,22.1,16-7.79-5.45-16.42-12.16-26.1-11.69-.71-.45-2.44-.81-2.27.49,11.86,6.3,29.5,8.92,35.06,23.09-7.38-6.62-35.6-8.23-37.73-6.35-3.37.16-9.23-.13-9.39,1.12,3.82,2.23,23.29.57,28.9,1.53,4.33,0-.88.72,8.67,1.44a16.3,16.3,0,0,1,7.06,2.25c-11.14-1.84-28.51-2.6-42,1.61-10.52,1.76-9.31,4.17-9.31,4.17-30.63,16.32,39.63-17.93,56.16-1-10.17-6-23.88,2-24.86,2-5.78.08-4.74,1.92-5.21,2-2.65.48-1.48,1.6-2.33,1.77-6.58,1.28-5,2.79-5.78,3.29-6.66,4.25-6.26,5.62-7.15,8.91-.68,2.54-6.58,5.94-5.61,6.82,7.69-3.91,29.51-30.77,49-25.21-2.26-1.62-32.61,10.22-33,14.93-.08.89-5.54,3.38-8.11,5.06s-2.65,4.5-3.69,6.91-4.33,5.69-3.69,5.94c.53.74,23.4-25.9,29.94-25.45-2.52.5-20.74,15.94-18.7,19.59,1,.8,5.29-6.35,9.31-10.68s10.59-7.79,10.59-7.79c.54,0-19.73,18.38-15,20.23-3.57,5.75-.58,5.66,2.25-1.28,3-6.08,6.81-7.19,10.09-12.92-1,7.44,11.34-20.33,22.81-12.67-8.65,1-21.75,39-21.26,40.68,1.28.56,1.84-3.21,3.37-5.62,7.7-9.84,5.59-27.1,17.91-34.32,10,52.78-1.92,228.78,1.12,277.14-.64,12.19,7.06,5.14,7.06,5.14-2.57-58.35,1.44-223.26.35-280.46,5.12,6.55,5.09,15.51,9.31,22.6,1.13,5.46,1.13,10.87,4.67,15.24,5.4,4.78-3.05-23.19-4.7-24.86a146.46,146.46,0,0,0-8.54-14.13c.43-3.18,4.45-.81,6.43.7,4.24,2.94,4.85,8.55,7.89,12.34,3.29,2,3.46,6.57,6.64,8.48,4.39,3.18,2.85-.35,1.39-3.08-3-8.86-8.93-18-18.64-20.65,12.54-.59,24.46,2.86,36.35,6.36,12.29,4-4.63-3.8-8-3.85,2.63-3-29.15-4.55-32.05-3,15.05-9.11,34.84-2.93,48.87,5.43,1.22,1,1.55-.24.43-1-3.39-3.81-8.52-4.22-12.31-7.06-2-.85-3.28-3.51-5.31-3.72-3.2-.2-3.19-2-5-1.81-3.61.33-2.65-1.09-4.29-1.08-4.51,1.42-9.33,1.14-13.66,3.16,10.09-6.52,23.61-2.35,34.82-5.4C337.62,538.37,356.27,543.22,353.36,540.21Z"/><path class="cls-1" d="M293.15,544.22c2.41-3.85,6.31-6.23,10.35-8.08Q298.52,540.43,293.15,544.22Z"/><path class="cls-1" d="M296.57,536a96.33,96.33,0,0,1,11.88-10.76A43,43,0,0,1,296.57,536Z"/><path class="cls-1" d="M308,520.63c2.41-1.88,4.92-3.62,7.4-5.4-5.24,5.93-11.82,10.33-17.76,15.64A65.58,65.58,0,0,1,308,520.63Z"/><path class="cls-3" d="M173.89,540.21c-19.48-5.45-43.37-4.89-60.12,7.43,10.38-12.15,24.33-14.2,38.28-16.56-6.33-1.32-13.86-.41-20.05,1.57,6.81-5.06,1-4.12-2.77-1,.77-2,1.83-5,.88-7,6.78-2.94,11.88-8.41,18.1-12.16,1.77-1.2,5.07-1.49,5.81-3.61-3.14-1.4-7.6,2.25-11.32,1.56,7.37-5.94-9.66.21-11,2.87-7.71,3.61-12,13.2-18.65,18.82,2.06-11.39,16.4-29.61,15.57-30.29s-8.95,7.93-11.9,11.5c1-3.89,6.78-9.55,6.17-10.31s-7.12,5.35-9.71,8.93c2-5.84,8.37-7.79,10.8-13,2.15-9.89,3.34-14.65-5.26-4.19-1.34,1.61-.44,4.32-1.8,5.91,1.35-7.65-3.47,1.64-5.73,3-.23-2.84.26-7.4-3-8.57-.43-6-5.33,3.08-4.87,7-6.11-9.19,4.11,13.84,2.39,20.33-3.42-9.51-9.22-18.3-14.08-27.5-.74-1.46-2.2-.52-3.25-2.61-.31-.64-1.28-1.54-1.78-1-2.42,4.8,7.12,17.14,8.29,23.44-8.31-7.16,3.72,11.18,4.87,13.52-2.86-.65,2.71,6.64,3,8.06-2.63.18-2.34-4.37-5.11-4.28-.56-.34-.57-1.14-.84-1.73-.58-1.27-2.31-1.54-3.15-2.64-.58-1-1.87-2.45-1.57-.65-2-2.31-3.67-4.65-6.88-5.43-4.68-1.82-15-10.55-12.87-5.25-2.86-2.52-4.16-.71-1.38,1.43,7.21,5.46,16.67,8.41,22.11,16C85.32,528.28,76.69,521.57,67,522c-.71-.45-2.44-.81-2.26.49,11.85,6.3,29.5,8.92,35.05,23.09-7.38-6.62-35.59-8.23-37.72-6.35-3.38.16-9.23-.13-9.4,1.12,3.82,2.23,23.29.57,28.9,1.53,4.34,0-.88.72,8.67,1.44a16.3,16.3,0,0,1,7.06,2.25c-11.14-1.84-28.51-2.6-42,1.61C44.82,549,46,551.39,46,551.39c-30.62,16.32,39.63-17.93,56.16-1-10.17-6-23.88,2-24.85,2-5.78.08-4.75,1.92-5.22,2-2.65.48-1.48,1.6-2.33,1.77-6.58,1.28-5,2.79-5.78,3.29-6.66,4.25-6.26,5.62-7.14,8.91-.68,2.54-6.58,5.94-5.62,6.82,7.7-3.91,29.52-30.77,49-25.21C98,548.4,67.6,560.24,67.21,565c-.08.89-5.54,3.38-8.1,5.06s-2.65,4.5-3.7,6.91-4.33,5.69-3.69,5.94c.54.74,23.4-25.9,29.94-25.45-2.51.5-20.73,15.94-18.7,19.59,1,.8,5.3-6.35,9.31-10.68s10.6-7.79,10.6-7.79c.54,0-19.74,18.38-15,20.23-3.58,5.75-.59,5.66,2.24-1.28,3-6.08,6.81-7.19,10.09-12.92-1,7.44,11.34-20.33,22.81-12.67-8.65,1-21.74,39-21.26,40.68,1.29.56,1.85-3.21,3.37-5.62,7.7-9.84,5.6-27.1,17.91-34.32,10,52.78-1.91,228.78,1.12,277.14-.64,12.19,7.06,5.14,7.06,5.14-2.56-58.35,1.44-223.26.36-280.46,5.11,6.55,5.09,15.51,9.3,22.6,1.13,5.46,1.13,10.87,4.67,15.24,5.41,4.78-3-23.19-4.7-24.86a142.53,142.53,0,0,0-8.54-14.13c.43-3.18,4.45-.81,6.43.7,4.24,2.94,4.86,8.55,7.89,12.34,3.29,2,3.46,6.57,6.65,8.48,4.38,3.18,2.85-.35,1.38-3.08-3-8.86-8.93-18-18.64-20.65,12.54-.59,24.47,2.86,36.36,6.36,12.28,4-4.64-3.8-8-3.85,2.63-3-29.15-4.55-32.05-3,15-9.11,34.85-2.93,48.87,5.43,1.22,1,1.55-.24.43-1-3.38-3.81-8.51-4.22-12.31-7.06-2-.85-3.28-3.51-5.31-3.72-3.19-.2-3.19-2-5-1.81-3.61.33-2.66-1.09-4.3-1.08-4.51,1.42-9.33,1.14-13.65,3.16,10.08-6.52,23.61-2.35,34.82-5.4C158.16,538.37,176.81,543.22,173.89,540.21Z"/><path class="cls-1" d="M113.69,544.22c2.4-3.85,6.3-6.23,10.34-8.08Q119.07,540.43,113.69,544.22Z"/><path class="cls-1" d="M117.1,536A96.42,96.42,0,0,1,129,525.26,43.15,43.15,0,0,1,117.1,536Z"/><path class="cls-1" d="M128.51,520.63c2.4-1.88,4.92-3.62,7.4-5.4-5.25,5.93-11.83,10.33-17.76,15.64A65.58,65.58,0,0,1,128.51,520.63Z"/></g></svg>