<svg id="music" xmlns="http://www.w3.org/2000/svg" xmlns:xlink="http://www.w3.org/1999/xlink" width="30cm" height="30cm" viewBox="0 0 850.39 850.39"><defs><style>.cls-1{fill:#4d6666;}.cls-2{fill:#bdcfd6;}.cls-3{fill:url(#linear-gradient);}.cls-4{fill-rule:evenodd;fill:url(#linear-gradient-2);}.cls-5{fill:#f2e6da;}.cls-6{fill:#eda174;}.cls-7{fill:#dd8b66;}.cls-8{fill:#95bfd8;}.cls-9{fill:#adcadb;}.cls-10{fill:#fff;}.cls-11{fill:#faece0;}.cls-12{fill:#eddac5;}</style><linearGradient id="linear-gradient" x1="425.12" y1="718.02" x2="425.12" y2="632.01" gradientUnits="userSpaceOnUse"><stop offset="0" stop-color="#f2e6da"/><stop offset="1" stop-color="#bdcfd6"/></linearGradient><linearGradient id="linear-gradient-2" x1="605.5" y1="736.12" x2="605.5" y2="606.33" gradientUnits="userSpaceOnUse"><stop offset="0.23" stop-color="#eaba9b"/><stop offset="0.49" stop-color="#ebb492"/><stop offset="0.94" stop-color="#eda478"/><stop offset="1" stop-color="#eda174"/></linearGradient></defs><g id="sky"><rect class="cls-1" width="850.39" height="704.6"/><rect class="cls-2" width="850.39" height="704.6"/><rect class="cls-3" x="-0.31" y="630.39" width="850.85" height="82.46"/></g><g id="sun"><path class="cls-4" d="M605.5,526A177.51,177.51,0,0,1,745.8,812.24c-32.47,41.84-243.85,44-276.41,5.2A177.51,177.51,0,0,1,605.5,526Z"/><circle class="cls-5" cx="603.5" cy="704.5" r="55"/><circle class="cls-6" cx="603.5" cy="704.5" r="3.5"/><path class="cls-7" d="M450,703c0-84.92,69.08-154,154-154s154,69.08,154,154c0,21.47-4.42,40.3-12.4,56.45h2.23C755.66,743.24,760,724.4,760,703c0-86-70-156-156-156S448,617,448,703c0,21.4,4.34,40.24,12.17,56.45h2.23C454.42,743.3,450,724.47,450,703Z"/><path class="cls-7" d="M476.25,703a127.75,127.75,0,1,1,242.33,56.45h2.23A128.89,128.89,0,0,0,733.75,703c0-71.54-58.21-129.75-129.75-129.75S474.25,631.46,474.25,703a128.89,128.89,0,0,0,12.94,56.45h2.23A127,127,0,0,1,476.25,703Z"/><path class="cls-7" d="M502.5,703a101.5,101.5,0,1,1,185.81,56.45h2.4a103.5,103.5,0,1,0-173.42,0h2.4A100.9,100.9,0,0,1,502.5,703Z"/></g><g id="water"><rect class="cls-8" y="704" width="850.39" height="146.39"/><path class="cls-9" d="M658.61,704H548.41c-.68,48.8-1,97.6-.7,146.39H659.05C659.67,764.5,658.91,722.48,658.61,704Z"/></g><g id="plane"><path class="cls-10" d="M534,218s157.8-72.57,163.8-75.57,17.14-8.22,17.77-7C716.32,137,699,144,689,149,681.36,152.82,534,218,534,218Z"/></g><g id="sun-2" data-name="sun"><circle class="cls-11" cx="216.5" cy="228.5" r="56.5"/><path class="cls-12" d="M168.26,219.25a56.26,56.26,0,0,1,10.5-32.79,56.49,56.49,0,1,0,83.74,74.83,56.49,56.49,0,0,1-94.24-42Z"/></g></svg>