<svg id="Places" xmlns="http://www.w3.org/2000/svg" width="30cm" height="30cm" viewBox="0 0 850.39 850.39"><defs><style>.cls-1{fill:#f1e4de;}.cls-2{fill:#bdd0a7;}.cls-3{fill:#d5e2c3;}.cls-4{fill:#bfd6a9;}.cls-5{fill:#cde0b8;}.cls-6{fill:#d8e6c6;}.cls-7{fill:#93ae78;}.cls-8{fill:#a6bf8d;}.cls-9{fill:#94af79;}.cls-10{fill:#cdcdb4;}</style></defs><g id="background"><rect class="cls-1" x="-0.1" width="850.49" height="850.4"/></g><g id="city"><rect class="cls-2" x="460.2" y="428.73" width="56.51" height="88.3"/><rect class="cls-3" x="540.26" y="458.7" width="26.11" height="187.73"/><rect class="cls-3" x="561.66" y="434.3" width="35.53" height="212.13"/><rect class="cls-3" x="587.78" y="504.08" width="35.53" height="142.35"/><polygon class="cls-4" points="680.14 660.56 614.22 660.56 615.18 446.29 681.11 446.29 680.14 660.56"/><rect class="cls-2" x="64.95" y="389.24" width="20.87" height="64.86"/><rect class="cls-2" x="145.86" y="398.87" width="25.04" height="64.86"/><rect class="cls-2" x="183.1" y="357.45" width="25.04" height="64.86"/><rect class="cls-2" x="262.31" y="339.9" width="38.74" height="64.86"/><rect class="cls-3" x="83.89" y="365.8" width="56.51" height="88.3"/><polygon class="cls-2" points="140.4 454.1 149.71 466.94 149.71 378.65 140.4 365.8 140.4 454.1"/><rect class="cls-2" y="300.94" width="56.6" height="148.34"/><polygon class="cls-3" points="56.6 449.28 68.16 463.09 68.16 314.75 56.6 300.94 56.6 449.28"/><rect class="cls-5" x="191.21" y="302.23" width="55.77" height="148.34"/><polygon class="cls-2" points="246.99 450.57 255.9 464.38 255.9 316.03 246.99 302.23 246.99 450.57"/><rect class="cls-1" x="235.09" y="302.23" width="1" height="148.34"/><rect class="cls-1" x="223.69" y="302.23" width="1" height="148.34"/><rect class="cls-1" x="212.3" y="302.23" width="1" height="148.34"/><rect class="cls-1" x="201.65" y="302.23" width="1" height="148.34"/><rect class="cls-5" x="437.38" y="353.43" width="55.77" height="148.34" transform="translate(930.53 855.19) rotate(-180)"/><polygon class="cls-2" points="437.38 501.77 428.46 515.57 428.46 367.23 437.38 353.43 437.38 501.77"/><rect class="cls-1" x="448.27" y="353.43" width="1" height="148.34"/><rect class="cls-1" x="459.67" y="353.43" width="1" height="148.34"/><rect class="cls-1" x="471.07" y="353.43" width="1" height="148.34"/><rect class="cls-1" x="481.71" y="353.43" width="1" height="148.34"/><rect class="cls-5" x="655.09" y="461.65" width="83.03" height="220.83" transform="translate(1393.21 1144.14) rotate(-180)"/><polygon class="cls-6" points="655.09 682.48 637.32 703.03 637.32 482.21 655.09 461.65 655.09 682.48"/><polygon class="cls-1" points="56.6 413.89 42.33 413.89 42.33 392.2 56.6 392.2 56.6 391.2 42.33 391.2 42.33 369.51 56.6 369.51 56.6 368.51 42.33 368.51 42.33 346.82 56.6 346.82 56.6 345.82 42.33 345.82 42.33 324.13 56.6 324.13 56.6 323.13 42.33 323.13 42.33 300.94 41.33 300.94 41.33 323.13 27.56 323.13 27.56 300.94 26.56 300.94 26.56 323.13 12.79 323.13 12.79 300.94 11.79 300.94 11.79 323.13 0 323.13 0 324.13 11.79 324.13 11.79 345.82 0 345.82 0 346.82 11.79 346.82 11.79 368.51 0 368.51 0 369.51 11.79 369.51 11.79 391.2 0 391.2 0 392.2 11.79 392.2 11.79 413.89 0 413.89 0 414.89 11.79 414.89 11.79 449.28 12.79 449.28 12.79 414.89 26.56 414.89 26.56 449.28 27.56 449.28 27.56 414.89 41.33 414.89 41.33 449.28 42.33 449.28 42.33 414.89 56.6 414.89 56.6 413.89"/><rect class="cls-2" x="27.56" y="369.51" width="13.77" height="21.69"/><rect class="cls-2" x="27.56" y="346.82" width="13.77" height="21.69"/><rect class="cls-2" x="27.56" y="324.13" width="13.77" height="21.69"/><rect class="cls-2" x="12.79" y="324.13" width="13.77" height="21.69"/><rect class="cls-2" x="12.79" y="346.82" width="13.77" height="21.69"/><rect class="cls-2" x="12.79" y="369.51" width="13.77" height="21.69"/><rect class="cls-2" x="12.79" y="392.2" width="13.77" height="21.69"/><rect class="cls-2" x="27.56" y="392.2" width="13.77" height="21.69"/></g><g id="trees"><rect class="cls-7" x="821.1" y="723.17" width="9.95" height="104.03"/><rect class="cls-7" x="759.77" y="721.24" width="9.95" height="112.38"/><rect class="cls-7" x="702.94" y="730.23" width="9.31" height="113.34"/><path class="cls-8" d="M700,737.48l-3.35-2.19a86.49,86.49,0,0,0-9.79,21.06V730.23h-8.67v17c-3.34-13.61-8.57-19.85-8.88-20.2l-1.51,1.31c.09.1,7.92,9.44,10.39,30.29v91.82h8.67V774.65C688,766.61,691.19,751,700,737.48Z"/><path class="cls-7" d="M752.75,738.65l-2.65-1.42c-4.73,8.84-8.21,20.12-10.55,29.46V733.12H727.67V841.44h11.88V780.75C741.19,772.06,745.53,752.11,752.75,738.65Z"/><path class="cls-7" d="M783.86,721.24v16.19c-3.9-14.43-8.75-18.43-9-18.65L773,721.13c.08.06,7.38,6.37,10.9,31.81v77.47h12.2V721.24Z"/><path class="cls-8" d="M551.08,563c.08-.16.17-.31.25-.48a10.4,10.4,0,0,0-2.48-12.14,10.19,10.19,0,0,0,2.36-9.53,18,18,0,0,0-5.36-8.59c2.83-2,3.4-6.33,1.67-9.34a10.43,10.43,0,0,0-8.75-4.78c3-3.21,1.93-9.17-1.95-11.18,2.45-.11,5.16-.51,6.69-2.43s1.28-4.61.14-6.68a15.93,15.93,0,0,0-5-5,5.74,5.74,0,0,0,.29-7.14,7.22,7.22,0,0,0-6.89-2.63A9,9,0,0,0,528,485a7.58,7.58,0,0,0-1-3.56,5.86,5.86,0,0,0-10.49,1.05A4,4,0,0,0,511.3,488a7.4,7.4,0,0,0-6.34-3.53,5.17,5.17,0,0,0-1.72.42,3.21,3.21,0,0,0,.12-.33c.9-3.17-.9-7.13-4.14-7.76a10.58,10.58,0,0,0-3.83-8.85,9.3,9.3,0,0,0-9.44-1.24,8.32,8.32,0,0,0-4.79,8.09,7.14,7.14,0,0,0-3.93-2.2,2.61,2.61,0,0,0-.83.09,6.35,6.35,0,0,0,0-1.07c-.23-3-3.25-5.59-6.17-5a6.34,6.34,0,0,0-.39-7.46,6.2,6.2,0,0,0-3.13-1.9,23.45,23.45,0,0,0,.41-3.64c.11-2.86-.64-6.35-3.36-7.25,2.58-4.23-.06-10.63-4.87-11.82,1.41-3.23-.46-7.36-3.67-8.81a8.72,8.72,0,0,0-9.66,2.22,11.44,11.44,0,0,0-2.53,9.88l-5.64-6.85a19.45,19.45,0,0,0,6.1-2.67c1.65-1.09,3.23-2.61,3.46-4.58s-1.68-4.13-3.55-3.48a6.48,6.48,0,0,0-6.37-10.68,14.93,14.93,0,0,0-13.23-11.86,11.83,11.83,0,0,0,.21-6.89,6.86,6.86,0,0,0-1.77-2.84,13.44,13.44,0,0,0,1.32-9.21,10.45,10.45,0,0,0-17.79-4.53,3.66,3.66,0,0,0-2.94,6.71,42.55,42.55,0,0,0-7.9-1.59c2.62-2.94,2.38-7.84-.2-10.82a10.54,10.54,0,0,0-10.8-2.86,14.07,14.07,0,0,0-19.88-13.86,13,13,0,0,0-9.74-7.82,11.84,11.84,0,0,0-2.66-.12,14.83,14.83,0,0,0-.07-4.41c-1.1-6.41-6.88-11.87-13.38-12.09.9-4.58-4-8.75-8.66-8.61s-8.72,3.29-11.78,6.83a10.42,10.42,0,0,0-6.71,19.13A16.94,16.94,0,0,0,301,370.23a9.44,9.44,0,0,0-6.65.74,8.39,8.39,0,0,0-7.49-8.05c.53-4.58-3.74-8.71-8.31-9.28s-10.31-.76-12.65,4.58c-10.18-1.65-18.53,10.95-9.85,19.78-4.1.49-5.74,5-5,9a7.65,7.65,0,0,0,9,6c-7,2-10,11-4,16-7-2-12,4-14,9a12.7,12.7,0,0,0,1.63,13.94,20.16,20.16,0,0,0,1.7,1.51c.39.31.78.59,1.19.87,0,.1,0,.2-.05.3l.53.38-.53-.38c-4.41,29.09-5.22,58.6-5.48,88q-.21,22.29,0,44.59"/><path class="cls-8" d="M0,373.72c4.24,2,7.63,7.65,6.19,12.12,7.89-.49,15.26,7.18,14.46,15a7.39,7.39,0,0,1,8.48,2c-1.67-3.11,0-7.41,3.15-8.95a8.18,8.18,0,0,1,9.54,2.37,10.19,10.19,0,0,1,1.3,10c5.66-.31,10.79,5.53,9.74,11.1a6.1,6.1,0,0,1,7.29,2.93,6.57,6.57,0,0,1,1.08-6.86,11.49,11.49,0,0,1,6.25-3.58c2.67-.64,5.66-.63,7.94.9s3.42,4.88,1.86,7.14c3.64-.52,7.28,1.74,9.21,4.87s2.42,6.94,2.28,10.61c-.54,14.72-10.4,28-23.08,35.53s-27.8,9.86-42.53,9.85c-12,0-6.34,9-16.53,2.56S-.66,411.61,0,373.72Z"/><path class="cls-4" d="M644.44,704.23c2.19-2.28,4-6.39,1.69-8.5a8.11,8.11,0,0,0-2-15.41c.77-8.33-7.41-10.34-10.32-9.13,3.54-1.61,5.46-5.87,4.86-9.71a12.66,12.66,0,0,0-6.86-8.89,9.23,9.23,0,0,0-13.57-12.41,6.42,6.42,0,0,0-2.35-6.47c4.08-2.39,6.86-7.2,6.14-11.88s-5.44-8.6-10.1-7.79c1.19-3.56-2.47-7.13-6.18-7.69a11.38,11.38,0,0,0-11.45,5.76,5.22,5.22,0,0,0-6.82,2.23A7.64,7.64,0,0,0,576.07,624a4.56,4.56,0,0,0-3.68.69c-.52-2.66-1.53-5.49-4-6.22A11.82,11.82,0,0,0,575,612.2a8.71,8.71,0,0,0-1.16-8.85c-1.6-1.85-4.76-2.72-6.43-.93a9.33,9.33,0,0,0-10.9-7.15c1.64-2.58,3-5.51,2.82-8.56s-2.52-6.13-5.58-6.24a9.29,9.29,0,0,0,5-11.26,9.83,9.83,0,0,0-7.71-6.21,7.48,7.48,0,0,0-3.76-6,11,11,0,0,0-8.77-1.07c-.27-7.25-1.73-11.31-9.32-13.8.65-5.14.32-10.16-4.08-14.76a18.46,18.46,0,0,0-17.52-5,13.54,13.54,0,0,0-21.2-13c-.45-3.88-1.79-7.84-4.71-10.44s-7.68-3.35-10.73-.92a10.47,10.47,0,0,0-20-2.22c.05-6.23-6.81-11.3-12.89-9.93s-10.1,8.28-8.84,14.39c-2.57-2.48-6.89-1.43-9.91.48A14.88,14.88,0,0,0,413,508c-1.09,3.13-.52,7,1.94,9.18-4.33.65-16,27.77-24.4,48l-149.53,2a758.18,758.18,0,0,0-99.06,10c-51.74,8.83-69.4-.31-111.24,31.38-9,6.79-37.81,108.27-19.7,113.26,46.71,12.88,96.05,11,144.48,9.06,2.66-.11,5.44-.3,8.19-.67,19.37,4.56,39.22,7.54,59,6.24,5.85-.38,11.79-1.17,17.05-3.75l.19-.11c.25.32.51.63.79.93,4.05,4.23,12.16,3.18,15-2,4.48,2.73,11.23.18,12.79-4.83a15.71,15.71,0,0,0,19-.54c-1.34,3.72,1.94,7.87,5.8,8.79s7.86-.51,11.42-2.26c.84,4.36,7,6.6,10.41,3.81a6.14,6.14,0,0,0,8,3.24c4.95,6.24,15.06,7,21.36,2.43a7.88,7.88,0,0,0,2.91,6.07,8.2,8.2,0,0,0,11.57-2.32,10.88,10.88,0,0,0,12.87-5.52c4.31,2.28,10.41-.27,11.82-4.95,3.41,2.37,9-1,8.51-5.07a8.43,8.43,0,0,0,9.16-5.06,9,9,0,0,0,11,5.06c-1.56,3.54,2.33,8.07,6.06,7,.27,2,1.72,4.07,3.76,4.28s4-2.26,2.9-4l3.22,1.82c-2,1.79-1.33,5.45,1,6.78a5.53,5.53,0,0,0,7-1.8,7.37,7.37,0,0,0,.17-7.57c4.36,1.43,9.55-2.38,9.5-7a10.81,10.81,0,0,0,10.47-4.26,7.63,7.63,0,0,0,8.87.11c1.55,2.7,3.9,5.82,7,5.28,1.13-.2,2.16-.9,3.3-.86s2.29.93,3.38,1.56c4.53,2.62,11.22-.2,12.51-5.28,5.42,2.28,12,0,15.62-4.57a4.36,4.36,0,0,0,3.59,2.32c1.19,0,2.56-.37,3.42.44s.64,1.81.78,2.79a5.42,5.42,0,0,0,6.61,4.22,7.91,7.91,0,0,0,3.07,6c2.38,1.81,5.54,2.11,8.53,2.33,3.24.25,6.57.49,9.71-.36s6.14-3,7.07-6.12a7.58,7.58,0,0,0,8.74-6.52,10.43,10.43,0,0,0,15.25-9.81,9.51,9.51,0,0,0,9-8A10.27,10.27,0,0,0,596,703.86c3.74,2.65,9.76.8,11.38-3.48a7.35,7.35,0,0,0,7,.77c0,.63,0,1.29.09,1.9a8.07,8.07,0,0,0,7.35,7.09c-1.47,3.61,2,7.72,5.88,8.25s10.68-2.61,13.91-4.78a6.81,6.81,0,0,0,2.93-4.15C645.34,707.23,646.47,705.42,644.44,704.23Z"/><path class="cls-7" d="M639.1,704.17c-2.59,1.36-9.89.66-12.31-1a10.42,10.42,0,0,1-4.41-6.49,3.58,3.58,0,0,1-5.4-2.55,20.74,20.74,0,0,1-7.2,3c-2.58.38-5.49-.34-7.06-2.44s-1.11-5.63,1.26-6.74a18.71,18.71,0,0,1-15.41.43,6.22,6.22,0,0,0,5.59,5.17,8.32,8.32,0,0,1-7.52,5.66,8.64,8.64,0,0,1-15.08.41c-3.62,3.83-9.72,5.52-14.39,3.09a9.63,9.63,0,0,1-4.87-8.08,15.32,15.32,0,0,1-3.79.44c-6,0-12.94-4-12.35-9.94A12.67,12.67,0,0,1,525,690.86a11.54,11.54,0,0,1-15.42,14.51c-3,5.22-11.95,5.22-14.95,0-5.43,2.94-13.24-1.54-13.43-7.72a8.08,8.08,0,0,1-9.8,6.89,8.87,8.87,0,0,1-15.79,4.82,6.45,6.45,0,0,1-8.75,1.75,12.68,12.68,0,0,1-15.13-2.16,9,9,0,0,1-16.4-2.33,5,5,0,0,1-5.29-8.55,7,7,0,0,1-6-7.69c-.71,6.1-6.89,10.34-13,11.12-2.14.28-4.61.1-6-1.55-.54,4.2-2.89,8.54-6.9,9.89s-9.31-1.84-8.78-6.05a8.56,8.56,0,0,1-5.71,1.25,7.64,7.64,0,0,1-10,10c-.8,3.42-5.14,5-8.52,4s-6-3.59-8.41-6.13l-2.24-2.34c-5.33,1-10.5-5.26-8.5-10.31a6.08,6.08,0,0,1,.73-11.9l.15-.35a10,10,0,0,1-7.25-.26,10.56,10.56,0,0,1-5.21,6,7.41,7.41,0,0,1-6.66,12.46,10,10,0,0,1-17.57,5c-1.69,3.35-6.32,4.34-9.82,3s-6.05-4.39-8.13-7.52c-2.31-3.48-4.23-8.18-1.9-11.66-5.61,4.2-14.63,2.59-18.44-3.28.15,4.7-6.21,8.08-10,5.34a5.68,5.68,0,0,1-11.15-1.73,7.92,7.92,0,0,1-9.44-7c-3.35,2.29-7.87-.08-10.93-2.75s-6.47-5.91-10.48-5.32a11.67,11.67,0,0,1,6.21,12.17A7.36,7.36,0,0,1,215.5,697c4.18-3.79,12.28.61,11.38,6.18s-10,7.2-12.75,2.29a12,12,0,0,1-21.71-5.31c-6.4,4.19-16.44.18-18.2-7.27-2.07-8.82,5.85-16.53,13-22.14,21-16.56,42.52-33.38,67.65-42.57,3.81-1.38-8.87-26.06-28.34-60.3a743.12,743.12,0,0,0-84.57,9.35C90.18,586.1-1.23,604.7-1.23,604.7l1,114.81S107,732.93,155.46,731c2.66-.11,5.44-.3,8.19-.67,19.37,4.56,39.22,7.54,59,6.24,5.85-.38,11.79-1.17,17.05-3.75l.19-.11c.25.32.51.63.79.93,4.05,4.23,12.16,3.18,15-2,4.48,2.73,11.23.18,12.79-4.83a15.71,15.71,0,0,0,19-.54c-1.34,3.72,1.94,7.87,5.8,8.79s7.86-.51,11.42-2.26c.84,4.36,7,6.6,10.41,3.81a6.14,6.14,0,0,0,8,3.24c4.95,6.24,15.06,7,21.36,2.43a7.88,7.88,0,0,0,2.91,6.07,8.2,8.2,0,0,0,11.57-2.32,10.88,10.88,0,0,0,12.87-5.52c4.31,2.28,10.41-.27,11.82-4.95,3.41,2.37,9-1,8.51-5.07a8.43,8.43,0,0,0,9.16-5.06,9,9,0,0,0,11,5.06c-1.56,3.54,2.33,8.07,6.06,7,.27,2,1.72,4.07,3.76,4.28s4-2.26,2.9-4l3.22,1.82c-2,1.79-1.33,5.45,1,6.78a5.53,5.53,0,0,0,7-1.8,7.37,7.37,0,0,0,.17-7.57c4.36,1.43,9.55-2.38,9.5-7a10.81,10.81,0,0,0,10.47-4.26,7.63,7.63,0,0,0,8.87.11c1.55,2.7,3.9,5.82,7,5.28,1.13-.2,2.16-.9,3.3-.86s2.29.93,3.38,1.56c4.53,2.62,11.22-.2,12.51-5.28,5.42,2.28,12,0,15.62-4.57a4.36,4.36,0,0,0,3.59,2.32c1.19,0,2.56-.37,3.42.44s.64,1.81.78,2.79a5.42,5.42,0,0,0,6.61,4.22,7.91,7.91,0,0,0,3.07,6c2.38,1.81,5.54,2.11,8.53,2.33,3.24.25,6.57.49,9.71-.36s6.14-3,7.07-6.12a7.58,7.58,0,0,0,8.74-6.52,10.43,10.43,0,0,0,15.25-9.81,9.51,9.51,0,0,0,9-8A10.27,10.27,0,0,0,596,703.86c3.74,2.65,9.76.8,11.38-3.48a7.35,7.35,0,0,0,7,.77c0,.63,0,1.29.09,1.9a8.07,8.07,0,0,0,7.35,7.09c-1.47,3.61,2,7.72,5.88,8.25s10.9,2.55,14.84-3.59c1.11-1.73,3.46-2.5,4.13-4.45a5.33,5.33,0,0,0-2.27-6.12c2.1-2.19,4-6,1.95-8.22a29.57,29.57,0,0,1-5.36.74C642.93,699,641.7,702.81,639.1,704.17Z"/><path class="cls-4" d="M124,621.38c0-5.51-1.3-11.28-5-15.33a23.71,23.71,0,0,0-8.86-5.58c-11.35-4.49-24-4.63-36.09-3s-23.87,5-35.84,7.41c-13.23,2.62-26-1.24-38,4.72C-3.34,611.32-.57,657-.57,680c0,6.73,1.45,3.31,8.17,3.55a12.15,12.15,0,0,1,3.52.27,21.59,21.59,0,0,1,2.81,1.57,6.47,6.47,0,0,0,7.42-1.2,6.49,6.49,0,0,0,1-7.46l5.73.12c-.61,4.73,5.08,8.65,9.63,7.19s7-6.82,6.27-11.52a21.59,21.59,0,0,0,7.89.39c-4.13,3.23-3.87,10.31,0,13.79s10.3,3.3,14.54.23a10.61,10.61,0,0,0,19.19,7,13.6,13.6,0,0,0,19.47,10.58l17.5-14.76q-.47-13.63-.92-27.28c-.28-8.23-.56-16.5.41-24.68C122.75,632.32,124,626.89,124,621.38Z"/><path class="cls-1" d="M534.09,694.93a7.31,7.31,0,0,0,7.44,6.07c-3,1.4-4.28,5-4.51,8.28.06-.77-3.37-2.88-4-3.29a15.69,15.69,0,0,0-6.79-2.19,19.32,19.32,0,0,0,5.12-4.34A39.16,39.16,0,0,0,534.09,694.93Z"/><path class="cls-3" d="M606.73,675c-.5-.63-.16-1.56.27-2.23a10.41,10.41,0,0,1,2.22-2.46,3.58,3.58,0,0,1-3.69-2.36,6.09,6.09,0,0,1-4.11,1.43c1.49,1.41,4,4.09,5.31,5.62"/><path class="cls-4" d="M618.71,669c-.45,0,5.57-1.49,5.57-1.49l.74,5.35A7,7,0,0,0,618.71,669Z"/><path class="cls-7" d="M539.9,768.75c1-23.2,7-35.69,7.08-35.82l-1.8-.88-1.79-.88c-.24.48-5.27,10.93-7,30.7-2.59-20.74-6.69-28.35-7-28.87l-3.49,2c.08.15,5.73,10.86,7.81,41.72-.07-.7-.14-1.39-.22-2-1.83-15.38-9.47-30.63-12.05-35.42a41.82,41.82,0,0,1,3.66-5.43l-1.52-1.3-1.51-1.3c-.39.44-6.62,7.84-10.57,21.09,1.78-18.39,4-27.17,5.23-28.6l0,0-4.24-4.25c-2.14,2.15-3.81,8.74-5.11,17.1-1.89-11.22-4.6-15.87-4.75-16.13l-1.72,1c0,.07,3.77,6.54,5.45,22.59-.18,1.55-.36,3.12-.52,4.72-2.35-8-6.47-17.92-11.91-25l-1.29-1.68-1.6,1.39a50.27,50.27,0,0,0-14.46,26.6V721.14h-4v22.92c-4.22-12.48-10.44-19.27-10.82-19.67l-.92-1-1.08.81a50.81,50.81,0,0,0-16.1,25l-2.44-.13c.92-6.88,3-16.38,7.6-22.21l-1.56-1.24c-4.76,6-6.94,15.37-7.94,22.41-1.82-10.37-4-13.93-4.45-14.51l-4.95,3.38c.06.09,5.92,9.74,5.92,47.57,0,4.07,0,7.14.12,9.12.1,2.59.22,5.52,3.24,5.6h.1c2.8,0,3.17-2.9,3.39-4.64.15-1.26.34-3.09.53-5.45.33-3.92.71-9.39,1.13-16.24.41-6.64.79-13.33,1-17.88a50.12,50.12,0,0,1,15.11-27.47c2.54,3.21,9.64,13.37,12.09,29.27V810.4h3V813h4V797c1-25.84,13.5-51.14,17.89-59.3,4.14,9,6.58,18.66,6.58,22.62v11.43c-.86,15.47-1.12,32.07,0,39.48v7.1h4v-2.48l.28-4v22.35h4V774.65a72.64,72.64,0,0,1,6.38-30.13c.16-.34.32-.67.47-1,3.11,6.21,8.86,19,10.36,31.58,2.1,17.65,1.91,56.94,1.91,57.34l4,0c0-.35,0-2.41,0-5.6l.45,0c.13,6.67.26,11,.26,11.18l4-.11C540.1,837.5,538.85,792.37,539.9,768.75Z"/><path class="cls-1" d="M479.54,776V760.31a48.2,48.2,0,0,1,12.53-32.25,58.31,58.31,0,0,1,3.75,6.33A171.39,171.39,0,0,0,479.54,776Z"/><path class="cls-7" d="M402,745.28V723.49h-4v20.65c-2.92-13.52-6.86-21-7.07-21.44l-1.77.94c.06.12,6.22,11.87,8.79,32.15-3.45-17.19-11.15-24.13-11.57-24.5l-2.63,3s3,2.7,5.9,8.8c2.71,5.67,5.94,15.52,5.94,30.32H398v9.15h4v-6.82l1.61-.54,1.58-.14c-.09-.94,0-10.2,0-16.32,0-3.11,0-5.92,0-7.65,0-4.61,3.16-16.78,12.93-25l-2.57-3.07A42.59,42.59,0,0,0,402,745.28Z"/><path class="cls-7" d="M327.11,753.37V733.93h-8.83V746.8c-2.83-11.52-5.93-20.77-6-20.9l-3.79,1.28c0,.1,2.29,6.85,4.69,15.93a88.64,88.64,0,0,0-8-10.68,11.62,11.62,0,0,1,1.29-1l-2.2-3.34c-4.78,3.15-8.61,10.35-11.1,16.23v-20.5h-10v13.73c-4.11-9.27-9.35-13.89-9.61-14.12l-2.61,3c.06,0,6.71,5.95,10.48,17.72l1.74-.56v8h7.23c-.28.85-.44,1.4-.48,1.52l3.84,1.13c1.24-4.23,5.12-14.8,10-20.37,3.12,3.65,8.27,10.21,11.32,17.07.65,2.79,1.26,5.68,1.8,8.56l3.93-.73-.18-.92h5c-.45,1.54-.67,2.47-.68,2.5l1.95.45A93.9,93.9,0,0,1,336.8,737l-1.72-1A93.41,93.41,0,0,0,327.11,753.37Z"/><path class="cls-7" d="M262.45,743c.39-1.54,5.91-14.94,9.57-17.93l-2.52-3.1c-4.67,3.81-11,19.29-11,20.66h4a1.94,1.94,0,0,1,0,.37Z"/><path class="cls-7" d="M363.07,752.76V735.69H352.16v31.63h10.91v-2.13l.21,0c0-.14,1.34-13.85,9.52-25.1l-2.43-1.77A54.27,54.27,0,0,0,363.07,752.76Z"/><path class="cls-7" d="M699.32,737a10.81,10.81,0,0,0,18.08,11c.46-.5,1-1.08,1.63-1.12s1.41.71,2,1.32a9.75,9.75,0,0,0,13.42.71,17.37,17.37,0,0,0,27.68-17.21,17.43,17.43,0,0,0,15.81-10.52c1.46,3.59,5.3,5.77,9.14,6.32s7.74-.24,11.53-1c2.08,6.24,8,10.79,14.38,12.2s13.25,0,19.11-3c3,4.69,9.33,6.42,14.69,5S850.85,661,850.85,661s-124.52-13.16-137.51-.74c-.51.49-1.3,1-1.85.57s.81-1.21.63-.53Z"/><path class="cls-8" d="M853.89,323.14A12.66,12.66,0,0,0,835.52,335c-2.65-3-7.69.16-11.53-1a18.49,18.49,0,0,1-3.75-2,11.79,11.79,0,0,0-16.79,14.56,5.16,5.16,0,0,0-4.86,4.4,8.87,8.87,0,0,0-7.67,15.55,7,7,0,0,0-3.6,5.81,24.28,24.28,0,0,0-6.08-2c2.47-4.35,2.8-10.34-.62-14s-10.88-2.7-12.09,2.15c-4.38-1.46-9.84-.36-12.39,3.48s-.61,10.18,3.93,11a7.55,7.55,0,0,0,.26,7.68,9.17,9.17,0,0,0-5.59,3c-.13-5.08-6.76-8.66-11.08-6s-4.06,10.21.43,12.59a5.47,5.47,0,0,0-3.8,3.18,7.12,7.12,0,0,0-13.5,4.25c-3.64-.6-7.08,3.1-6.84,6.78s3.42,6.75,7,7.59a7.26,7.26,0,0,0-2.05,13.51,5.82,5.82,0,0,0,7.14,8.86,14,14,0,0,0-3.65,6.72c-2-4.19-8.33-5.79-11.76-2.63s-1.67,10.15,2.94,10.82A7.8,7.8,0,0,0,729.73,461a9.22,9.22,0,0,0,3.09,11,6.75,6.75,0,0,0-6.75,3.15c.94-4.45-3.3-9.19-7.84-8.75s-7.78,5.91-6,10.1c-2.23.73-3,3.59-2.65,5.91a11.59,11.59,0,0,0,4.44,7.18,7.79,7.79,0,0,0-1.77,3.69c-.77-4.58-4.48-8.81-9.12-9.19s-9.32,4.11-8.32,8.65a7.58,7.58,0,0,0,7.47,13.13,4.27,4.27,0,0,0,3.23,5.78,7.92,7.92,0,0,0-5.31,6,6.43,6.43,0,0,0-11.73,4.55,2.44,2.44,0,0,1-.07,1.71,2.39,2.39,0,0,1-1.29.74,7.06,7.06,0,0,0-4.27,4.35c-1.18-3.86-6.44-5.12-10.1-3.43a10.73,10.73,0,0,0-5.3,13.2c-3.79,1.61-4.23,7-2.76,10.79,0,.1.09.19.13.29a5.67,5.67,0,0,0-.71,1.09,8.92,8.92,0,0,0-.65,5.28,9.58,9.58,0,0,0,2.48,5.37,6.15,6.15,0,0,0,5.48,1.81c-1.45,4.58,1.46,9.8,5.79,11.88s9.61,1.42,13.91-.72c-2.23,2.45-4.19,5.6-4,8.83a10.92,10.92,0,0,0-6.47,4.28,11.2,11.2,0,0,0,1.29,13.85c-1.79.47-2.6,2.63-2.49,4.48.31,5.38,6.14,9.19,11.52,8.88a9.83,9.83,0,0,0-4.06,10.79c-1.56-1.44-3.25-2.91-5.32-3.32-3.1-.62-6.35,1.48-7.57,4.4a10.33,10.33,0,0,0,1,9.09,19.26,19.26,0,0,0,6.9,6.36A8.75,8.75,0,0,0,673,653c-2.3-.47-4.31,2.09-4.18,4.43a5.74,5.74,0,0,0,.22,1.25c-2.43-.11-7.87.48-9.86,1.88-3.9,2.75-5.4,8.64-2.83,12.66a11.27,11.27,0,0,0,2.12,21,13.51,13.51,0,0,0-.54,24.88c-1.85,4.14,4.72,8.57,8,11.66,3.92,3.66,8.39,7.45,13.75,7.58a15.23,15.23,0,0,0,6-1.2A13.38,13.38,0,0,0,699.71,742c6.58-1.9,11-8.62,11.57-15.44,6.8,0,12.91-6.44,12.51-13.23,7.75,3.1,17.56,1.12,22.71-5.45s4.25-17.4-2.51-22.3A8.5,8.5,0,0,0,748.06,674a14,14,0,0,0,9.16-11.63c-.21,2.37,1.51,4.57,3.63,5.67a18.25,18.25,0,0,0,6.92,1.51c-1.46,5.72,4.86,11.8,10.52,10.13a16.74,16.74,0,0,0,19,26.69A11.43,11.43,0,0,0,818,702c3.92,2.4,8.55,4,13.09,3.31s8.8-4.38,9.09-9c.81,1.62,4.91,4,11.11,2.33C850.64,613,853.89,323.14,853.89,323.14Z"/><path class="cls-8" d="M-.45,707.86c213.2-8.13,483.77,75.78,593.37,142.57-81.35.85-593,0-593,0Z"/><path class="cls-9" d="M681.75,850.21s54.8-44.09,168.46-48.37a294.62,294.62,0,0,1,.18,48.56Z"/><path class="cls-3" d="M542.87,576.77l-7.13-1.32a18.06,18.06,0,0,0,.81-8.09,11,11,0,0,0,3.77,1.13,10,10,0,0,0,2.62,0c0,.25-.09.49-.13.74A24.16,24.16,0,0,0,542.87,576.77Z"/></g><g id="grass"><circle class="cls-4" cx="308.65" cy="750.78" r="1.61"/><circle class="cls-4" cx="292.59" cy="745.32" r="1.61"/><circle class="cls-4" cx="273.33" cy="740.51" r="1.61"/><circle class="cls-4" cx="255.03" cy="736.66" r="1.61"/><path class="cls-4" d="M237.05,734.09a1.61,1.61,0,1,1-1.61-1.61,1.61,1.61,0,0,1,1.61,1.61"/><circle class="cls-4" cx="215.86" cy="732.48" r="1.61"/><circle class="cls-4" cx="198.84" cy="728.63" r="1.61"/><circle class="cls-4" cx="184.71" cy="726.38" r="1.61"/><circle class="cls-4" cx="168.33" cy="725.74" r="1.61"/><circle class="cls-4" cx="152.82" cy="723.71" r="1.61"/><circle class="cls-4" cx="87.1" cy="718.35" r="1.61"/><circle class="cls-4" cx="67.84" cy="717.5" r="1.61"/><circle class="cls-4" cx="53.07" cy="716.43" r="1.61"/><circle class="cls-4" cx="37.65" cy="716" r="1.61"/><circle class="cls-4" cx="23.1" cy="714.71" r="1.61"/><circle class="cls-4" cx="10.04" cy="713.86" r="1.61"/><circle class="cls-4" cx="6.83" cy="721.35" r="1.35"/><circle class="cls-4" cx="17.96" cy="720" r="1.35"/><circle class="cls-4" cx="30.59" cy="721.56" r="1.35"/><circle class="cls-4" cx="44.5" cy="721.56" r="1.35"/><circle class="cls-4" cx="57.56" cy="723.49" r="1.35"/><circle class="cls-4" cx="66.69" cy="723.49" r="1.35"/><circle class="cls-4" cx="78.68" cy="724.35" r="1.35"/><circle class="cls-4" cx="151.96" cy="729.63" r="1.35"/><circle class="cls-4" cx="160.95" cy="730.34" r="1.35"/><circle class="cls-4" cx="174.37" cy="733.34" r="1.35"/><circle class="cls-4" cx="205.54" cy="735.26" r="1.35"/><circle class="cls-4" cx="221.96" cy="740.69" r="1.35"/><circle class="cls-4" cx="238.87" cy="742.11" r="1.35"/><circle class="cls-4" cx="256.99" cy="745.97" r="1.35"/><circle class="cls-4" cx="273.05" cy="748.96" r="1.35"/><circle class="cls-4" cx="290.6" cy="753.67" r="1.35"/><circle class="cls-4" cx="306.29" cy="757.1" r="1.35"/><circle class="cls-4" cx="324.06" cy="762.02" r="1.35"/><circle class="cls-4" cx="338.12" cy="766.73" r="1.35"/><circle class="cls-4" cx="349.89" cy="768.66" r="1.35"/><circle class="cls-4" cx="374.15" cy="774.22" r="1.35"/><circle class="cls-4" cx="360.66" cy="771.01" r="1.35"/><circle class="cls-4" cx="389.49" cy="780.64" r="1.35"/><circle class="cls-4" cx="402.12" cy="784.5" r="1.35"/><circle class="cls-4" cx="422.03" cy="791.35" r="1.35"/><circle class="cls-4" cx="435.09" cy="796.27" r="1.35"/><circle class="cls-4" cx="453.78" cy="801.69" r="1.35"/><circle class="cls-4" cx="468.76" cy="807.9" r="1.35"/><circle class="cls-4" cx="482.89" cy="813.04" r="1.35"/><circle class="cls-4" cx="493.38" cy="816.18" r="1.35"/><circle class="cls-4" cx="507.08" cy="821.53" r="1.35"/><circle class="cls-4" cx="521.42" cy="826.45" r="1.35"/><circle class="cls-4" cx="537.19" cy="833.73" r="1.35"/><circle class="cls-4" cx="551.11" cy="841.22" r="1.35"/><circle class="cls-4" cx="561.81" cy="848.93" r="1.35"/><circle class="cls-4" cx="538.05" cy="844.22" r="1.13"/><circle class="cls-4" cx="523.78" cy="837.95" r="1.13"/><circle class="cls-4" cx="509.59" cy="832.45" r="1.13"/><circle class="cls-4" cx="496.32" cy="827.95" r="1.13"/><circle class="cls-4" cx="479.84" cy="822.6" r="1.13"/><circle class="cls-4" cx="466.99" cy="819.39" r="1.13"/><circle class="cls-4" cx="453.93" cy="813.61" r="1.13"/><circle class="cls-4" cx="441.42" cy="793.17" r="1.13"/><circle class="cls-4" cx="444.79" cy="804.56" r="1.13"/><circle class="cls-4" cx="426.81" cy="802.69" r="1.13"/><circle class="cls-4" cx="412.62" cy="798.84" r="1.13"/><circle class="cls-4" cx="398.07" cy="794.34" r="1.13"/><circle class="cls-4" cx="386.99" cy="789.91" r="1.13"/><circle class="cls-4" cx="375.86" cy="785.84" r="1.13"/><circle class="cls-4" cx="361.15" cy="781.5" r="1.13"/><circle class="cls-4" cx="345.53" cy="778.29" r="1.13"/><circle class="cls-4" cx="327.97" cy="773.37" r="1.13"/><circle class="cls-4" cx="310.21" cy="771.23" r="1.13"/><circle class="cls-4" cx="297.73" cy="765.51" r="1.13"/><circle class="cls-4" cx="286.54" cy="764.8" r="1.13"/><circle class="cls-4" cx="278.9" cy="761.38" r="1.13"/><circle class="cls-4" cx="264.18" cy="759.45" r="1.13"/><circle class="cls-4" cx="252.84" cy="754.1" r="1.13"/><circle class="cls-4" cx="245.23" cy="743.4" r="1.13"/><circle class="cls-4" cx="264.77" cy="745.38" r="1.13"/><circle class="cls-4" cx="283.6" cy="754.1" r="1.13"/><circle class="cls-4" cx="298.53" cy="751.32" r="1.13"/><circle class="cls-4" cx="312.66" cy="763.31" r="1.13"/><circle class="cls-4" cx="237.86" cy="751.32" r="1.13"/><circle class="cls-4" cx="219.17" cy="747.68" r="1.13"/><circle class="cls-4" cx="206.54" cy="746.61" r="1.13"/><circle class="cls-4" cx="193" cy="745.75" r="1.13"/><circle class="cls-4" cx="176.73" cy="744.68" r="1.13"/><circle class="cls-4" cx="162.72" cy="742.97" r="1.13"/><circle class="cls-4" cx="147.83" cy="739.97" r="1.13"/><circle class="cls-4" cx="71.53" cy="732" r="1.13"/><circle class="cls-4" cx="56.28" cy="731.36" r="1.13"/><circle class="cls-4" cx="42.64" cy="731.36" r="1.13"/><circle class="cls-4" cx="35.57" cy="738.58" r="0.9"/><circle class="cls-4" cx="21.76" cy="738.16" r="0.9"/><circle class="cls-4" cx="9.88" cy="738.1" r="0.9"/><circle class="cls-4" cx="52.04" cy="741.31" r="0.9"/><circle class="cls-4" cx="65.27" cy="743.5" r="0.9"/><circle class="cls-4" cx="139.06" cy="747.57" r="0.9"/><circle class="cls-4" cx="141.36" cy="736.66" r="0.9"/><circle class="cls-4" cx="154.53" cy="751.75" r="0.9"/><circle class="cls-4" cx="169.3" cy="755.38" r="0.9"/><circle class="cls-4" cx="186.96" cy="759.23" r="0.9"/><circle class="cls-4" cx="184.39" cy="749.66" r="0.9"/><circle class="cls-4" cx="198.68" cy="754.48" r="0.9"/><circle class="cls-4" cx="206.87" cy="760.47" r="0.9"/><circle class="cls-4" cx="215.69" cy="755.5" r="0.9"/><circle class="cls-4" cx="227.2" cy="765.87" r="0.9"/><circle class="cls-4" cx="239.56" cy="760.74" r="0.9"/><circle class="cls-4" cx="253.04" cy="764.59" r="0.9"/><circle class="cls-4" cx="262.84" cy="772.77" r="0.9"/><circle class="cls-4" cx="273.76" cy="766.57" r="0.9"/><circle class="cls-4" cx="289.76" cy="776.79" r="0.9"/><circle class="cls-4" cx="308.39" cy="782.89" r="0.9"/><circle class="cls-4" cx="332.15" cy="788.03" r="0.9"/><circle class="cls-4" cx="372.55" cy="802.1" r="0.9"/><circle class="cls-4" cx="387.26" cy="804.4" r="0.9"/><circle class="cls-4" cx="357.45" cy="797.4" r="0.9"/><circle class="cls-4" cx="408.24" cy="811.47" r="0.9"/><circle class="cls-4" cx="425.58" cy="816.61" r="0.9"/><circle class="cls-4" cx="437.78" cy="821.42" r="0.9"/><circle class="cls-4" cx="456.61" cy="825.92" r="0.9"/><circle class="cls-4" cx="472.34" cy="833.94" r="0.9"/><circle class="cls-4" cx="485.25" cy="839.02" r="0.9"/><circle class="cls-4" cx="486.85" cy="829.83" r="0.9"/><circle class="cls-4" cx="495.9" cy="843.9" r="0.9"/><circle class="cls-4" cx="517.62" cy="844.54" r="0.9"/><circle class="cls-4" cx="460.58" cy="846.79" r="0.9"/><circle class="cls-4" cx="504.77" cy="842.29" r="0.9"/><circle class="cls-4" cx="521.27" cy="849.36" r="0.9"/><circle class="cls-4" cx="482.41" cy="847.43" r="0.9"/><circle class="cls-4" cx="458.33" cy="840.04" r="0.9"/><circle class="cls-4" cx="437.08" cy="837.42" r="0.9"/><circle class="cls-4" cx="417.44" cy="824.63" r="0.9"/><circle class="cls-4" cx="393.8" cy="828.49" r="0.9"/><circle class="cls-4" cx="381.91" cy="817.25" r="0.9"/><circle class="cls-4" cx="362.21" cy="810.83" r="0.9"/><circle class="cls-4" cx="342.63" cy="813.72" r="0.9"/><circle class="cls-4" cx="349.75" cy="788.03" r="0.9"/><circle class="cls-4" cx="403.37" cy="819.44" r="0.9"/><circle class="cls-4" cx="415.57" cy="807.56" r="0.9"/><circle class="cls-4" cx="438.69" cy="812.75" r="0.9"/><circle class="cls-4" cx="446.39" cy="832.34" r="0.9"/><circle class="cls-4" cx="420.01" cy="836.51" r="0.9"/><circle class="cls-4" cx="341.34" cy="797.02" r="0.9"/><circle class="cls-4" cx="321.17" cy="799.85" r="0.9"/><circle class="cls-4" cx="318.22" cy="786.42" r="0.9"/><circle class="cls-4" cx="294.2" cy="794.13" r="0.9"/><circle class="cls-4" cx="278.09" cy="790.28" r="0.9"/><circle class="cls-4" cx="257.33" cy="787.71" r="0.9"/><circle class="cls-4" cx="215.21" cy="775.77" r="0.9"/><circle class="cls-4" cx="275.21" cy="779.36" r="0.9"/><circle class="cls-4" cx="247.21" cy="774.22" r="0.9"/><circle class="cls-4" cx="231.37" cy="778.08" r="0.9"/><circle class="cls-4" cx="195.68" cy="775.51" r="0.9"/><circle class="cls-4" cx="174.27" cy="768.01" r="0.9"/><circle class="cls-4" cx="159.29" cy="769.73" r="0.9"/><circle class="cls-4" cx="141.95" cy="757.53" r="0.9"/><circle class="cls-4" cx="130.6" cy="762.66" r="0.9"/><circle class="cls-4" cx="53.71" cy="752.77" r="0.9"/><circle class="cls-4" cx="36.31" cy="751.1" r="0.9"/><circle class="cls-4" cx="19.03" cy="753.03" r="0.9"/><circle class="cls-4" cx="11.32" cy="765.29" r="0.9"/><circle class="cls-4" cx="30.59" cy="764.33" r="0.9"/><circle class="cls-4" cx="47.29" cy="766.9" r="0.9"/><circle class="cls-4" cx="4" cy="748.86" r="0.9"/><circle class="cls-4" cx="228.54" cy="752.45" r="0.9"/><circle class="cls-4" cx="29.47" cy="730.23" r="1.13"/><circle class="cls-4" cx="16.31" cy="731.52" r="1.13"/><circle class="cls-4" cx="5.39" cy="730.23" r="1.13"/><circle class="cls-4" cx="190.56" cy="734.41" r="1.35"/><circle class="cls-4" cx="77.47" cy="718.14" r="1.35"/><circle class="cls-4" cx="150.35" cy="721.56" r="1.61"/><circle class="cls-4" cx="322.78" cy="753.03" r="1.61"/><circle class="cls-4" cx="334.66" cy="756.88" r="1.61"/><circle class="cls-4" cx="350.39" cy="760.74" r="1.61"/><circle class="cls-4" cx="367.73" cy="765.87" r="1.61"/><circle class="cls-4" cx="385.07" cy="770.69" r="1.61"/><circle class="cls-4" cx="401.6" cy="775.35" r="1.61"/><circle class="cls-4" cx="416.21" cy="781.29" r="1.61"/><circle class="cls-4" cx="430.34" cy="784.82" r="1.61"/><circle class="cls-4" cx="450.89" cy="790.92" r="1.61"/><circle class="cls-4" cx="468.23" cy="797.02" r="1.61"/><circle class="cls-4" cx="485.57" cy="803.44" r="1.61"/><circle class="cls-4" cx="501.94" cy="810.18" r="1.61"/><circle class="cls-4" cx="520.57" cy="817.25" r="1.61"/><circle class="cls-4" cx="536.62" cy="826.56" r="1.61"/><circle class="cls-4" cx="553.96" cy="834.91" r="1.61"/><circle class="cls-4" cx="570.65" cy="841.65" r="1.61"/><circle class="cls-4" cx="586.71" cy="849.04" r="1.61"/></g><g id="front_tree" data-name="front tree"><path class="cls-4" d="M-.45,456.13c42-11.55,55.66-43,137-42.59,77.07.4,146.84-2.14,197.36,61.22,14.55,6,134.85,76.63,133.57,114.3-1.3,38.09-82.2,44.1-134,45.38-48.06,1.19-80.06-17.55-141.71,50.52-27.34,30.19-71.28,47.2-92.47,147.7C91,840.69-8.15,810.4,1.69,798.41c60-23.22,53.62-34.78,71.92-59.51,22.23-30,46.88-52.33,28.69-101.46-34.17,3-37.8-4.78-46.36-4.78s-48.47,5.64-56.6.07C1.05,614.11-.45,456.13-.45,456.13Z"/><path class="cls-7" d="M288.21,632.94c-28,0-55.76,7.11-96.44,52C175.4,703,153.07,716.4,133.24,745.8,120,765.48,107.8,792.36,99.3,832.66,91,840.69-8.15,810.4,1.69,798.41c60-23.22,53.62-34.78,71.92-59.51,22.23-30,46.88-52.33,28.69-101.46l80.16-30.5Z"/><path class="cls-7" d="M-.66,779.15c47.16,1.16,198.19,43.86,292,71.68C218.1,851.07-.1,850.4-.1,850.4S-.88,816.18-.66,779.15Z"/><rect class="cls-7" x="594.08" y="765.37" width="22.67" height="36.8"/><rect class="cls-10" x="595.08" y="766.37" width="20.67" height="34.8"/><rect class="cls-7" x="594.58" y="776.93" width="21.67" height="1"/><rect class="cls-7" x="594.58" y="789.54" width="21.67" height="1"/><rect class="cls-7" x="605.39" y="765.87" width="1" height="35.8"/><circle class="cls-4" cx="142.84" cy="814.09" r="1.61"/><circle class="cls-4" cx="126.89" cy="808.33" r="1.61"/><circle class="cls-4" cx="107.72" cy="803.15" r="1.61"/><circle class="cls-4" cx="89.5" cy="798.95" r="1.61"/><path class="cls-4" d="M71.57,796A1.61,1.61,0,1,1,70,794.4,1.61,1.61,0,0,1,71.57,796"/><circle class="cls-4" cx="50.41" cy="794.03" r="1.61"/><circle class="cls-4" cx="33.47" cy="789.85" r="1.61"/><circle class="cls-4" cx="19.39" cy="787.33" r="1.61"/><circle class="cls-4" cx="3.03" cy="786.38" r="1.61"/><circle class="cls-4" cx="8.91" cy="794.09" r="1.35"/><circle class="cls-4" cx="40.05" cy="796.61" r="1.35"/><circle class="cls-4" cx="56.36" cy="802.35" r="1.35"/><circle class="cls-4" cx="73.24" cy="804.1" r="1.35"/><circle class="cls-4" cx="91.28" cy="808.29" r="1.35"/><circle class="cls-4" cx="107.28" cy="811.59" r="1.35"/><circle class="cls-4" cx="124.74" cy="816.64" r="1.35"/><circle class="cls-4" cx="140.37" cy="820.36" r="1.35"/><circle class="cls-4" cx="158.04" cy="825.62" r="1.35"/><circle class="cls-4" cx="172" cy="830.6" r="1.35"/><circle class="cls-4" cx="183.74" cy="832.75" r="1.35"/><circle class="cls-4" cx="207.88" cy="838.77" r="1.35"/><circle class="cls-4" cx="194.46" cy="835.31" r="1.35"/><circle class="cls-4" cx="223.1" cy="845.48" r="1.35"/><circle class="cls-4" cx="194.75" cy="845.8" r="1.13"/><circle class="cls-4" cx="179.19" cy="842.29" r="1.13"/><circle class="cls-4" cx="161.73" cy="837.04" r="1.13"/><circle class="cls-4" cx="144.01" cy="834.56" r="1.13"/><circle class="cls-4" cx="131.65" cy="828.6" r="1.13"/><circle class="cls-4" cx="120.47" cy="827.69" r="1.13"/><circle class="cls-4" cx="112.89" cy="824.12" r="1.13"/><circle class="cls-4" cx="98.22" cy="821.91" r="1.13"/><circle class="cls-4" cx="86.98" cy="816.35" r="1.13"/><circle class="cls-4" cx="79.57" cy="805.5" r="1.13"/><circle class="cls-4" cx="99.07" cy="807.86" r="1.13"/><circle class="cls-4" cx="117.74" cy="816.93" r="1.13"/><circle class="cls-4" cx="132.71" cy="814.43" r="1.13"/><circle class="cls-4" cx="146.61" cy="826.69" r="1.13"/><circle class="cls-4" cx="72.05" cy="813.28" r="1.13"/><circle class="cls-4" cx="53.44" cy="809.28" r="1.13"/><circle class="cls-4" cx="40.83" cy="807.97" r="1.13"/><circle class="cls-4" cx="27.31" cy="806.86" r="1.13"/><circle class="cls-4" cx="11.06" cy="805.48" r="1.13"/><circle class="cls-4" cx="3.43" cy="816.04" r="0.9"/><circle class="cls-4" cx="21.01" cy="820.22" r="0.9"/><circle class="cls-4" cx="18.62" cy="810.6" r="0.9"/><circle class="cls-4" cx="32.82" cy="815.69" r="0.9"/><circle class="cls-4" cx="40.89" cy="821.84" r="0.9"/><circle class="cls-4" cx="49.81" cy="817.04" r="0.9"/><circle class="cls-4" cx="61.11" cy="827.63" r="0.9"/><circle class="cls-4" cx="73.57" cy="822.73" r="0.9"/><circle class="cls-4" cx="86.98" cy="826.84" r="0.9"/><circle class="cls-4" cx="96.62" cy="835.2" r="0.9"/><circle class="cls-4" cx="107.66" cy="829.21" r="0.9"/><circle class="cls-4" cx="123.46" cy="839.73" r="0.9"/><circle class="cls-4" cx="141.97" cy="846.19" r="0.9"/><circle class="cls-4" cx="48.95" cy="837.29" r="0.9"/><circle class="cls-4" cx="108.86" cy="842.03" r="0.9"/><circle class="cls-4" cx="80.97" cy="836.36" r="0.9"/><circle class="cls-4" cx="65.06" cy="839.91" r="0.9"/><circle class="cls-4" cx="29.42" cy="836.66" r="0.9"/><circle class="cls-4" cx="8.16" cy="828.76" r="0.9"/><circle class="cls-4" cx="62.71" cy="814.23" r="0.9"/><circle class="cls-4" cx="25.08" cy="795.47" r="1.35"/><circle class="cls-4" cx="156.92" cy="816.61" r="1.61"/><circle class="cls-4" cx="168.73" cy="820.69" r="1.61"/><circle class="cls-4" cx="184.38" cy="824.84" r="1.61"/><circle class="cls-4" cx="201.62" cy="830.3" r="1.61"/><circle class="cls-4" cx="218.87" cy="835.45" r="1.61"/><circle class="cls-4" cx="235.31" cy="840.42" r="1.61"/><circle class="cls-4" cx="249.83" cy="845.03" r="1.61"/><path class="cls-8" d="M288.21,632.94c14.43,0,28.92,1.91,45.27,1.5,25.64-.63,58.42-2.43,85.14-8.7,27.25-6.39,48-17.45,48.86-36.68.43-9.84-4.37-17.17-7.8-21.88-1.59-2.18-10.72-12.9-28.34-27.79C463.09,635.19,349.11,569.05,297,561c-22.75-3.51-45-6-68-1-34,8-58,30-92,38l-.5.11C94.77,606.76,66,576.73,33,559c-12.36-6.65-22-9.22-33.23-9.75-.81,10.32.56,39.32,0,48.8-1.59,26.89-.22,28.9-.43,34.68,8.13,5.57,48-.07,56.6-.07s12.19,7.74,46.36,4.78c0,0,1.32-.05,2.9,0a27.61,27.61,0,0,0,8.87-.86,69.89,69.89,0,0,1,8.83-.91l22.21,1.66s49.45-5.16,51.59-5.46c2.27-.08,5.86.63,11.13,1.08a197.61,197.61,0,0,0,34-.22C254.39,632.73,288.21,632.94,288.21,632.94Z"/><path class="cls-4" d="M318.07,626.1s36.17,4.06,51.59.74c-8.57-1.39-12.85-3.17-22.69-3.74C338.3,622.6,330.48,624.6,318.07,626.1Z"/><path class="cls-4" d="M207.83,633c-3.21,3.63-5.78,15.62-5.35,20.12,19.48-9,37.67-17.77,39.38-20.34C229.23,633.59,212.32,633,207.83,633Z"/><path class="cls-4" d="M139.76,635.09c-9.87.11-15-1.1-25.69,1.49C134.83,669.33,122.63,679,137,686c23.44,11.55,58.22-36.17,59.72-54.16C151.32,630.8,158,634.87,139.76,635.09Z"/></g></svg>