<svg id="Places" xmlns="http://www.w3.org/2000/svg" xmlns:xlink="http://www.w3.org/1999/xlink" width="21.2cm" height="21.2cm" viewBox="0 0 601 601"><defs><style>.cls-1{fill:#96d0ef;}.cls-2{fill:#7fc3eb;}.cls-3{fill:#b6e1fa;}.cls-4{fill:#747d56;}.cls-5{fill:#6486c0;}.cls-6{fill:#78613b;}.cls-7{fill:#dfd4c7;}.cls-8{fill:url(#linear-gradient);}.cls-9{fill:#557aba;}.cls-10{fill:#5d88bf;}.cls-11{fill:#e2733e;}.cls-12{fill:#f0dac2;}.cls-13{fill:#efeff1;}.cls-14{fill:#efdac3;}.cls-15{fill:#a3b6c1;}.cls-16{fill:#81c7f0;}.cls-17{fill:#c2b8ad;}.cls-18{fill:#8e9fa8;}.cls-19{fill:#70633d;}.cls-20{fill:#6d6342;}.cls-21{fill:#d07c52;}.cls-22{fill:#757868;}.cls-23{fill:#c2886b;}.cls-24{fill:#809ca4;}.cls-25{fill:#a5a3a5;}.cls-26{opacity:0.2;}.cls-27{fill:#87adbf;}.cls-28{fill:#83a8ba;}.cls-29{fill:#9dadba;}.cls-30{fill:#8abada;}.cls-31{fill:#93bada;}.cls-32{fill:#7fc0e8;}.cls-33{fill:#83c9f2;}</style><linearGradient id="linear-gradient" x1="602.55" y1="365.84" x2="509.56" y2="269.23" gradientUnits="userSpaceOnUse"><stop offset="0" stop-color="#6b8bb4"/><stop offset="1" stop-color="#90a3c6"/></linearGradient></defs><g id="background"><path class="cls-1" d="M0,0V212.62c.16,4.49.36,9,.42,13.46A76.65,76.65,0,0,1,0,233.94v9.89a72.69,72.69,0,0,1,.27,7.79A4.69,4.69,0,0,1,0,253V601H601V0Z"/></g><g id="water"><polygon class="cls-2" points="600.65 601 0 601 0 253.45 505.57 253.45 600.65 358.96 600.65 601"/></g><g id="clouds"><path class="cls-3" d="M46.28,103.58c7.42-2.57,14.52-6.75,22.37-7,7.33-.25,14.82,3,21.83.82,2.53-.77,4.88-2.23,7.51-2.49s5.36.77,8.08.9,5.93-1.2,6.3-3.89-2.1-4.66-4.38-6a53,53,0,0,0-13-5.32c-3.07-.8-6.25-1.33-9.11-2.7-7.28-3.48-11-11.52-16.6-17.36A34.13,34.13,0,0,0,42.57,50.26c-5.86.41-12,2.32-17.41,0-3.33-1.43-5.81-4.26-8.48-6.72A47.37,47.37,0,0,0,0,33.63V98.8C13.86,106.71,31.14,108.81,46.28,103.58Z"/><path class="cls-3" d="M595.09,180.26c-15.57-4.06-33.79,5-47.4-3.54-4.3-2.71-7.46-6.86-11.12-10.37-11.19-10.72-27-15.3-42.39-16.88-24.77-2.55-52.4,3.07-68,22.48-4.61,5.73-8.22,12.66-14.59,16.32-6.76,3.88-15.08,3.22-22.75,4.56a43,43,0,0,0-25.23,14.55c-5.23,6.22-8.85,14.1-15.72,18.45-6,3.81-13.53,4.21-20.4,6.13s-14.09,6.58-14.7,13.69l25.46,7.84c6.73-8.3,248.32-4.35,262.74-2.1V182.5A29.86,29.86,0,0,0,595.09,180.26Z"/></g><g id="pool"><path class="cls-4" d="M601.05,113.25V86a64.4,64.4,0,0,0-16.71-2.48,47.67,47.67,0,0,0-19.06,3.61q5.12-1.1,10.3-1.83a16.78,16.78,0,0,0-4.84,1.78,43.68,43.68,0,0,1,9-1.26,12.14,12.14,0,0,0-5.32,2.33,69,69,0,0,1,12.46-1.83,23.86,23.86,0,0,0-5.35,1.53l8.08-.92a18.93,18.93,0,0,0-4.74,1.6,23.57,23.57,0,0,1,7.4-.31,51.12,51.12,0,0,0-8.08,1.86,62.72,62.72,0,0,1,8.67-.16,28,28,0,0,0-12,5.2,44.5,44.5,0,0,0-6.07,5.82,82.56,82.56,0,0,0-15.37,10.47l9.93-5.83a54.56,54.56,0,0,0-8.59,6.86,193.37,193.37,0,0,1,16.68-10.32,55.51,55.51,0,0,0-11.92,8.91q4.43-3.36,9-6.53l-3.41,3.3a34.83,34.83,0,0,1,4.1-2.47,15.72,15.72,0,0,0-3.64,3.73,106.8,106.8,0,0,1,10.94-7.31L574.66,108a81.69,81.69,0,0,1,11.19-6.53,39.86,39.86,0,0,0-6.77,5.07q3.23-2.07,6.6-3.92l-4.15,3.67c1.26-.74,2.54-1.43,3.84-2.11a45.71,45.71,0,0,0-7.1,8,33.94,33.94,0,0,0-4.19,8.6,47.75,47.75,0,0,1,5.59-7.87,26.4,26.4,0,0,0-2.95,5.2,64.93,64.93,0,0,0,6-7.75,24.74,24.74,0,0,1-1.85,4.1l4.84-6.62-2.11,3.92,3.36-3.5a20.09,20.09,0,0,0-1.32,2.36C579.52,117,575.1,125,570.91,132.8q3-4.11,6.26-8.06a28.88,28.88,0,0,0-2.58,6,54.19,54.19,0,0,0,4-6.22,43.09,43.09,0,0,0-1.6,5l3.17-5.86a15.59,15.59,0,0,0-.6,2.69,29.63,29.63,0,0,1,3.59-5.6,8.73,8.73,0,0,0-1.22,3.56,60.63,60.63,0,0,1,4-6.55,32.24,32.24,0,0,0-2.06,4.61Q587,118,590,113.65a21.45,21.45,0,0,0-2.55,5.69c1.57-2.55,3.41-4.94,5.18-7.36a44.87,44.87,0,0,0-1.43,13,44.1,44.1,0,0,1,1.5-8.87,22.23,22.23,0,0,0,.23,6,42.06,42.06,0,0,1,2.18-8.2,16.82,16.82,0,0,0-.49,5.91c.5-2,1-3.94,1.61-5.89l.6-2.08.15.74c.14,4.08.24,13.94-1.79,20.8-2.61,8.84-15.13,45.06-18.82,60.33-3.77,15.61-4.64,39.45-3.77,51.93,1.5,0,2.78,0,3.71,0-.4-5.71-.85-19,1.31-39.12,1.8-16.9,10.77-43.77,13.94-53.07,2-5.93,4.74-12.74,6.8-20.31a65.35,65.35,0,0,0,.87,9.28q.11-4.89.23-9.78a46.82,46.82,0,0,0,.55,6.48,44.83,44.83,0,0,0,.5-4.77c.13.93.31,1.85.52,2.76V119A24.82,24.82,0,0,0,601.05,113.25Z"/><path class="cls-1" d="M578.9,99q1.85-1.52,3.63-3.12l-3,2.83Z"/><path class="cls-1" d="M581.41,97.91a56.88,56.88,0,0,0,5.11-4.19l-3.92,3.72Z"/><path class="cls-1" d="M586.31,96.14l-1.28.41c.86-.55,1.71-1.11,2.55-1.7Z"/><path class="cls-1" d="M590.13,95c-.53.13-1.06.28-1.59.43l3.74-2.56Z"/><rect class="cls-5" x="562.33" y="197.01" width="1.02" height="49.89"/><path class="cls-6" d="M533.44,191.53a6.21,6.21,0,0,0-1.25,1.36,2,2,0,0,0-.21,1.77,2.75,2.75,0,0,0,1.18,1.16,17,17,0,0,0,2,1,1.5,1.5,0,0,0,.65.17c.82-.07.91-1.29,1.52-1.84-.36,1-.67,2.17.05,2.89a2.68,2.68,0,0,0,1.4.57,64.48,64.48,0,0,0,12.17,1.06,3.05,3.05,0,0,0,1.24-.2c.9-.43,1.14-1.59,1.27-2.6.37,1.07-.09,2.52.82,3.17a2.29,2.29,0,0,0,1.35.26l15.08-.23a2.46,2.46,0,0,0,1.26-.25,1.65,1.65,0,0,0,.67-1.41,4.78,4.78,0,0,0-.36-1.58,3.11,3.11,0,0,0-.85-1.46,3,3,0,0,0-1.52-.51c-4.5-.6-9.07-.32-13.61-.34a102.9,102.9,0,0,1-20.7-2.17"/><path class="cls-6" d="M571.54,195.28a14.66,14.66,0,0,0,1,3.42,2.1,2.1,0,0,0,.54.83,2.3,2.3,0,0,0,1.47.33,55.88,55.88,0,0,0,11.11-1.18,1.73,1.73,0,0,0,1.07-.52,1.5,1.5,0,0,0,.18-1,16.33,16.33,0,0,0-.94-3,19.81,19.81,0,0,0,1.69,2.23,1.51,1.51,0,0,0,.55.57,1.58,1.58,0,0,0,1.3-.13,12.28,12.28,0,0,0,2.5-1.41,1.88,1.88,0,0,0,.48-.45,1.59,1.59,0,0,0,.06-1.38,4.39,4.39,0,0,0-1.14-1.8.83.83,0,0,0-.38-.23,1,1,0,0,0-.53.12,28.66,28.66,0,0,1-8.19,2.07c-2.81.36-5.65.54-8.44,1a6.07,6.07,0,0,1-2.87.05"/><polygon class="cls-4" points="521.46 260.5 600.85 338.98 600.85 257.34 521.46 260.5"/><rect class="cls-7" y="245.55" width="600.02" height="15.71"/><polyline class="cls-8" points="600.85 344.16 600.85 384 492.32 269.47 492.32 260.44 543.23 295.93"/><rect class="cls-9" x="0.01" y="260.5" width="511.94" height="8.93"/><polygon class="cls-10" points="600.85 344.16 600.85 384 492.32 269.47 492.32 260.44 600.85 344.16"/><polygon class="cls-7" points="600.85 330.59 600.85 372.96 492.32 260.44 529.74 260.44 600.85 330.59"/><polygon class="cls-11" points="573.13 285.91 600.85 285.91 600.85 271.1 556.73 271.1 573.13 285.91"/><polygon class="cls-12" points="600.85 273.82 559.74 273.82 562.92 276.69 600.85 276.69 600.85 273.82"/><polygon class="cls-12" points="566.35 279.79 569.53 282.66 600.85 282.66 600.85 279.79 566.35 279.79"/><circle class="cls-13" cx="547.8" cy="51.46" r="20.56"/><polygon class="cls-14" points="563.08 177.28 540.77 184.09 544.63 185.98 563.08 177.28"/><polygon class="cls-11" points="537.14 194.31 533.16 191.68 540.77 184.09 544.63 185.98 537.14 194.31"/><polygon class="cls-11" points="563.08 177.28 544.63 185.98 556.27 186.96 563.08 177.28"/><polygon class="cls-14" points="537.14 194.31 554.13 195.99 556.27 186.96 544.63 185.98 537.14 194.31"/><polygon class="cls-14" points="563.08 177.28 556.27 186.96 568.65 186.81 563.08 177.28"/><polygon class="cls-11" points="554.13 195.99 571.83 195.88 568.65 186.81 556.27 186.96 554.13 195.99"/><polygon class="cls-11" points="563.08 177.28 568.65 186.81 581.69 186.3 563.08 177.28"/><polygon class="cls-14" points="571.83 195.88 586 194.35 581.69 186.3 568.65 186.81 571.83 195.88"/><polygon class="cls-14" points="563.08 177.28 581.69 186.3 585.72 185.11 563.08 177.28"/><polygon class="cls-11" points="586 194.35 591.44 191.85 585.72 185.11 581.69 186.3 586 194.35"/><polygon class="cls-15" points="484.97 245.54 600.85 357.3 600.85 356.6 485.69 245.54 484.97 245.54"/><polygon class="cls-15" points="471.26 245.54 470.54 245.54 486.05 260.5 486.77 260.5 471.26 245.54"/><polygon class="cls-15" points="455.3 245.54 470.82 260.5 471.54 260.5 456.02 245.54 455.3 245.54"/><polygon class="cls-15" points="440.69 245.54 456.2 260.5 456.92 260.5 441.41 245.54 440.69 245.54"/><polygon class="cls-15" points="426.7 245.54 442.21 260.5 442.93 260.5 427.42 245.54 426.7 245.54"/><polygon class="cls-15" points="411.68 245.54 427.19 260.5 427.91 260.5 412.39 245.54 411.68 245.54"/><polygon class="cls-15" points="396.42 245.54 411.94 260.5 412.65 260.5 397.14 245.54 396.42 245.54"/><polygon class="cls-15" points="379.93 245.54 395.44 260.5 396.16 260.5 380.65 245.54 379.93 245.54"/><polygon class="cls-15" points="363.41 245.54 378.93 260.5 379.65 260.5 364.13 245.54 363.41 245.54"/><polygon class="cls-15" points="347.54 245.54 363.05 260.5 363.77 260.5 348.26 245.54 347.54 245.54"/><polygon class="cls-15" points="331.66 245.54 347.18 260.5 347.89 260.5 332.38 245.54 331.66 245.54"/><polygon class="cls-15" points="315.79 245.54 331.3 260.5 332.02 260.5 316.51 245.54 315.79 245.54"/><polygon class="cls-15" points="299.91 245.54 315.43 260.5 316.14 260.5 300.63 245.54 299.91 245.54"/><polygon class="cls-15" points="284.04 245.54 299.55 260.5 300.27 260.5 284.76 245.54 284.04 245.54"/><polygon class="cls-15" points="268.16 245.54 283.68 260.5 284.39 260.5 268.88 245.54 268.16 245.54"/><polygon class="cls-15" points="252.29 245.54 267.8 260.5 268.52 260.5 253.01 245.54 252.29 245.54"/><polygon class="cls-15" points="236.41 245.54 251.92 260.5 252.64 260.5 237.13 245.54 236.41 245.54"/><polygon class="cls-15" points="220.54 245.54 236.05 260.5 236.77 260.5 221.26 245.54 220.54 245.54"/><polygon class="cls-15" points="204.66 245.54 220.17 260.5 220.89 260.5 205.38 245.54 204.66 245.54"/><polygon class="cls-15" points="188.79 245.54 204.3 260.5 205.02 260.5 189.51 245.54 188.79 245.54"/><polygon class="cls-15" points="172.91 245.54 188.42 260.5 189.14 260.5 173.63 245.54 172.91 245.54"/><polygon class="cls-15" points="157.04 245.54 172.55 260.5 173.27 260.5 157.76 245.54 157.04 245.54"/><polygon class="cls-15" points="141.16 245.54 156.67 260.5 157.39 260.5 141.88 245.54 141.16 245.54"/><polygon class="cls-15" points="125.29 245.54 140.8 260.5 141.52 260.5 126.01 245.54 125.29 245.54"/><polygon class="cls-15" points="109.41 245.54 124.92 260.5 125.64 260.5 110.13 245.54 109.41 245.54"/><polygon class="cls-15" points="93.54 245.54 109.05 260.5 109.77 260.5 94.26 245.54 93.54 245.54"/><polygon class="cls-15" points="77.66 245.54 93.17 260.5 93.89 260.5 78.38 245.54 77.66 245.54"/><polygon class="cls-15" points="61.79 245.54 77.3 260.5 78.02 260.5 62.51 245.54 61.79 245.54"/><polygon class="cls-15" points="45.91 245.54 61.42 260.5 62.14 260.5 46.63 245.54 45.91 245.54"/><polygon class="cls-15" points="30.04 245.54 45.55 260.5 46.27 260.5 30.76 245.54 30.04 245.54"/><polygon class="cls-15" points="14.16 245.54 29.67 260.5 30.39 260.5 14.88 245.54 14.16 245.54"/><polygon class="cls-15" points="0.02 247.23 13.8 260.5 14.52 260.5 0.02 246.53 0.02 247.23"/><polygon class="cls-15" points="500.29 245.54 600.85 343.08 600.85 342.38 501 245.54 500.29 245.54"/><polygon class="cls-15" points="514.35 245.54 531.2 261.89 530.56 261.26 531.27 261.26 515.06 245.54 514.35 245.54"/><polygon class="cls-15" points="527.95 245.54 544.16 261.26 544.88 261.26 528.67 245.54 527.95 245.54"/><polygon class="cls-15" points="541.56 245.54 557.76 261.26 558.48 261.26 542.28 245.54 541.56 245.54"/><polygon class="cls-15" points="555.17 245.54 571.37 261.26 572.09 261.26 555.89 245.54 555.17 245.54"/><polygon class="cls-15" points="568.77 245.54 584.98 261.26 585.7 261.26 569.49 245.54 568.77 245.54"/><polygon class="cls-15" points="582.38 245.54 598.59 261.26 599.3 261.26 583.1 245.54 582.38 245.54"/><polygon class="cls-15" points="600.85 249.56 596.71 245.54 595.99 245.54 600.85 250.26 600.85 249.56"/><polygon class="cls-15" points="501.73 261.81 531.12 261.81 530.62 261.31 501.73 261.31 501.73 261.81"/><polygon class="cls-15" points="509.21 268.93 538.33 268.93 537.83 268.43 509.21 268.43 509.21 268.93"/><polygon class="cls-15" points="516.58 276.01 545.52 276.01 545.01 275.51 516.58 275.51 516.58 276.01"/><polygon class="cls-15" points="524.07 283.33 552.93 283.33 552.43 282.83 524.07 282.83 524.07 283.33"/><polygon class="cls-15" points="531.59 290.42 560.12 290.42 559.61 289.92 531.59 289.92 531.59 290.42"/><polygon class="cls-15" points="538.81 297.28 567.07 297.28 566.57 296.78 538.81 296.78 538.81 297.28"/><polygon class="cls-15" points="547.09 305.5 575.41 305.5 574.9 305 547.09 305 547.09 305.5"/><polygon class="cls-15" points="556.46 314.27 584.3 314.27 583.79 313.77 556.46 313.77 556.46 314.27"/><polygon class="cls-15" points="565.68 323.34 593.5 323.34 592.99 322.84 565.68 322.84 565.68 323.34"/><rect class="cls-15" x="575.06" y="331.76" width="25.79" height="0.5"/><rect class="cls-15" x="584.88" y="341.13" width="15.97" height="0.5"/><rect class="cls-15" x="595.47" y="351.56" width="5.38" height="0.5"/><rect class="cls-15" x="-0.02" y="249.72" width="600.65" height="0.5"/><rect class="cls-15" x="0.02" y="255.61" width="600.83" height="0.5"/><path class="cls-16" d="M329.9,305.63c4.48.3,8.74-.79,13.05-1.45,17.08-2.61,30.05,1.19,42.82,11,2.11-7.73,20.19-14.4,38.94-8.59s17.85,17.5,28.31,19.47c18.66,3.5,9.89,16.47,20.53,15.32,7.88-.85,19.46,6.19,18.91,12.63-.76,9-14.48,9.36-15.89,9.46-4.66,3.16-1.81,4.07-11.3,6.61-11.68,3.12-14.82-10.07-28.26.56-9.62,7.6-30,4.37-40.63,2.31-27.37-5.31-27.86-4.21-36.24-1.81-3.3.95-12.63,5.77-25.39,4.3-3.16-.37-18.88-11.47-34.64-14.47-13.89-2.64-27.94,3.17-31.68-2.12-2.42-3.41-1.74-15.71,6.93-19,9-3.45,3.33-11.2,15.52-18.58,6.26-3.79,18.86,1.14,20.28-2.71C315,308.28,328.29,305.52,329.9,305.63Z"/><path class="cls-17" d="M531.67,250.27c0,3.76,12.77,6.8,28.52,6.8s28.52-3,28.52-6.8c0-1.83-3.07-3.5-8-4.72h-41C534.74,246.77,531.67,248.44,531.67,250.27Z"/><path class="cls-18" d="M588.71,250.22a1.71,1.71,0,0,0-.1-.5H587.4l-3.2-3.11-1.12-.39,3.6,3.5H573.8l-4.31-4.17h-.72l4.31,4.17H560.19l-4.3-4.17h-.72l4.3,4.17H546.58l-4.3-4.17h-.72l4.3,4.17H533l-.77-.75a2,2,0,0,0-.28.42l.34.33h-.49a1.71,1.71,0,0,0-.1.5h1.1l4.09,4c.34.12.69.23,1.07.34l-4.44-4.3h12.89l5.56,5.39h-9.38c1,.19,2,.35,3,.5h6.86l.77.76.76,0-.81-.8h12.89l.79.77.67,0-.75-.73h8c1.06-.15,2.08-.31,3-.5H566.27l-5.57-5.39h12.89l5.34,5.18.59-.13-5.21-5.05H587.2l1.16,1.12a2.54,2.54,0,0,0,.24-.46l-.68-.66Z"/><polygon class="cls-17" points="565.55 255.61 552.66 255.61 547.1 250.22 559.99 250.22 565.55 255.61"/><path class="cls-19" d="M540.44,382.44l.46.19v-.4l.59.65c1,.43,2.06.88,3.07,1.37a24.48,24.48,0,0,1,2.12,1.42l-5.78-6.44v-9.4l6.24,6.94a1,1,0,0,0,.74.33,1,1,0,0,0,.67-.26,1,1,0,0,0,.07-1.41l-7.72-8.59v-9.41l6.24,6.94a1,1,0,0,0,.74.33,1,1,0,0,0,.67-.25,1,1,0,0,0,.07-1.42l-7.72-8.59V345l6.24,6.94a1,1,0,0,0,.74.33,1,1,0,0,0,.74-1.66L540.9,342v-9.4l6.24,6.93a1,1,0,0,0,.74.34,1,1,0,0,0,.67-.26,1,1,0,0,0,.07-1.41l-7.72-8.6v-4.46c0-6.1,1.29-8.43,3.42-11.54a75.28,75.28,0,0,1,5.67-7.07c.77-.89,1.62-1.86,2.56-3,1.34-1.57,2.09-1.23,2.63-1s.46,2,.46,3.64v15.27a1.25,1.25,0,1,0,2.5,0V306.28c0-2.81,0-5-1.91-5.91s-3.85-.41-5.58,1.62l-2.54,2.94a75.52,75.52,0,0,0-5.86,7.3c-2.32,3.41-3.85,6.15-3.85,12.95v56A20,20,0,0,1,540.44,382.44Z"/><path class="cls-11" d="M564.54,307.22c-2-.94-3.86-.41-5.59,1.62l-2.54,2.94a75.83,75.83,0,0,0-5.86,7.3c-2.32,3.4-3.84,6.15-3.84,12.95v53.65a25.53,25.53,0,0,1,2.5,2.13V332c0-6.1,1.28-8.43,3.41-11.55a76.54,76.54,0,0,1,5.67-7.06c.78-.89,1.62-1.86,2.56-3,1.34-1.57,2.09-1.23,2.63-1s.46,2,.46,3.64V328.4a1.25,1.25,0,0,0,2.5,0V313.13C566.44,310.32,566.44,308.11,564.54,307.22Z"/><path class="cls-20" d="M540.9,364.29v-6.86l6.24,6.94a1,1,0,0,0,.74.33,1,1,0,0,0,.67-.25,1,1,0,0,0,.07-1.42l-7.72-8.59v-5.69c-.85-1.08-1.69-2.2-2.5-3.34V363.8A13.82,13.82,0,0,1,540.9,364.29Z"/><path class="cls-21" d="M549.21,369.85V356.71a14.61,14.61,0,0,1-2.5-1.57v12.23A18.89,18.89,0,0,1,549.21,369.85Z"/><path class="cls-22" d="M547.29,387.28l.31.47c.42.33.83.68,1.22,1a1,1,0,0,0-.2-.95l-7.72-8.6v-9.4l6.24,6.94a1,1,0,0,0,.74.33,1,1,0,0,0,.67-.26,1,1,0,0,0,.07-1.41l-7.72-8.59v-5.65c-.84-.8-1.68-1.6-2.5-2.41V380.1A21.29,21.29,0,0,1,547.29,387.28Z"/><path class="cls-23" d="M547.29,387.28l.31.47c.57.45,1.09.91,1.61,1.39V368.86a14.43,14.43,0,0,1-2.08-1.74l-.42-.42v19.83C546.9,386.78,547.1,387,547.29,387.28Z"/><path class="cls-24" d="M540.9,398.3v-3.68l3.65,4.07a18.08,18.08,0,0,1,2.51-.21l-6.16-6.85v-9.4l6.24,6.94a1,1,0,0,0,1.41.07,1,1,0,0,0,.07-1.41l-7.72-8.6v-1a22.83,22.83,0,0,1-2.5-3.64V398A16.13,16.13,0,0,1,540.9,398.3Z"/><path class="cls-25" d="M549.21,398.6v-14a26.69,26.69,0,0,1-2.5-1.41V398.5A17.25,17.25,0,0,1,549.21,398.6Z"/><g class="cls-26"><path class="cls-2" d="M547.14,401.56a1,1,0,0,0,.74.33,1,1,0,0,0,.74-1.66l-4.81-5.37c-1.84-1.35-3.66-2.68-5.41-4.08v72.13a1.25,1.25,0,0,0,2.5,0V445.58l6.24,6.93a1,1,0,0,0,.74.34,1,1,0,0,0,.67-.26,1,1,0,0,0,.07-1.41l-7.72-8.6V432.27l6.24,6.94a1,1,0,0,0,.74.33,1,1,0,0,0,.67-.25,1,1,0,0,0,.07-1.42l-7.72-8.59v-9.86l6.24,6.94a1,1,0,0,0,.74.33,1,1,0,0,0,.67-.26,1,1,0,0,0,.07-1.41l-7.72-8.59V407l6.24,6.94a1,1,0,0,0,.74.33,1,1,0,0,0,.67-.25,1,1,0,0,0,.07-1.42L540.9,404v-9.41Z"/><path class="cls-2" d="M546.71,396.92v72.84a1.25,1.25,0,0,0,2.5,0V398A11.91,11.91,0,0,1,546.71,396.92Z"/></g><path class="cls-27" d="M538.4,448.58v14.58a1.25,1.25,0,1,0,2.5,0V448.83A17.21,17.21,0,0,1,538.4,448.58Z"/><path class="cls-27" d="M540.9,414.54V407l6.24,7a1,1,0,0,0,.74.33,1,1,0,0,0,.74-1.68L540.9,404v-6.55a15,15,0,0,1-2.5-.84v18.17A17.53,17.53,0,0,1,540.9,414.54Z"/><path class="cls-27" d="M545.76,448.18a17.35,17.35,0,0,1-2.25.49l3.63,4.05a1,1,0,0,0,.74.33,1,1,0,0,0,.67-.25,1,1,0,0,0,.07-1.42Z"/><path class="cls-28" d="M546.46,397.8c-.46.05-.93.1-1.4.12s-.79,0-1.19,0l3.27,3.65a1,1,0,0,0,.74.33,1,1,0,0,0,.74-1.68Z"/><path class="cls-29" d="M549.21,416.52V397.26a19.09,19.09,0,0,1-2.5.51v17.66A15.89,15.89,0,0,1,549.21,416.52Z"/><path class="cls-29" d="M546.71,447.88V470a1.25,1.25,0,1,0,2.5,0V446.79A18.37,18.37,0,0,1,546.71,447.88Z"/><path class="cls-30" d="M547.14,426.36a1,1,0,0,0,.74.33,1,1,0,0,0,.67-.26,1,1,0,0,0,.07-1.41l-7.72-8.59V411.5c-.4-.31-.8-.64-1.17-1l-1.33-1.15v53.54a1.25,1.25,0,0,0,2.5,0V445.58l6.24,6.93a1,1,0,0,0,.74.34,1,1,0,0,0,.67-.26,1,1,0,0,0,.07-1.41l-7.72-8.6V432.27l6.24,6.94a1,1,0,0,0,.74.33,1,1,0,0,0,.67-.25,1,1,0,0,0,.07-1.42l-7.72-8.59v-9.86Z"/><path class="cls-31" d="M546.71,414.52v55.24a1.25,1.25,0,0,0,2.5,0V415.13A19.39,19.39,0,0,1,546.71,414.52Z"/><path class="cls-32" d="M547.14,439.21a1,1,0,0,0,.74.33,1,1,0,0,0,.67-.25,1,1,0,0,0,.07-1.42l-7.72-8.59V422a20.72,20.72,0,0,1-2.5-1.35v42.24a1.25,1.25,0,0,0,2.5,0V445.58l6.24,6.93a1,1,0,0,0,.74.34,1,1,0,0,0,.67-.26,1,1,0,0,0,.07-1.41l-7.72-8.6V432.27Z"/><path class="cls-32" d="M547.54,423.82a13.32,13.32,0,0,1-3.11-.48l2.71,3a1,1,0,0,0,.74.33,1,1,0,0,0,.67-.26,1,1,0,0,0,.07-1.41Z"/><path class="cls-32" d="M546.71,423.76v46a1.25,1.25,0,0,0,2.5,0v-46A13.05,13.05,0,0,1,546.71,423.76Z"/><path class="cls-33" d="M601.11,599.86l-.46-154V421.54c-43.58-8.59-92.73,16.06-109.72,57.59-4,9.84-7.27,21.39-16.67,26.35-4.49,2.37-16.65,2.46-21.58,3.67-23,5.64-32.21,28.54-55.38,33.62-23.42,5.14-46.34-8.87-69.88-13.47a90.75,90.75,0,0,0-54.32,6.3c-19.13,8.64-35,23.84-54.89,30.55-20.3,6.85-42.49,4.12-63.65,7.44A112.88,112.88,0,0,0,97.1,601Z"/><path class="cls-16" d="M19.63,401.94c6.08-.43,11.65-3.36,17.36-5.51,22.61-8.52,40.7-4.39,59.49,10.79,1.61-14.62,24.91-30.8,51.12-24.25s26.88,28.19,41.29,29.5c25.73,2.33,16,28,30.15,23.59,10.49-3.28,27.23,7.1,27.53,19,.42,16.67-18,20.31-19.91,20.81-5.77,6.81-14.61,24.46-27,31.19-15.23,8.28-28.66,2.68-39.84,7.82-18,8.31-29.63,2.05-44.28.59-37.76-3.74-33.69-6.33-44.61-.09-4.29,2.45-16.1,13.32-33.53,13.41S2.3,516.84,0,505.55V401.28c1.89-.41,1-.77,3-.75C8.58,400.57,14.07,402.33,19.63,401.94Z"/></g></svg>