<svg id="Celebration" xmlns="http://www.w3.org/2000/svg" viewBox="0 0 216 216"><defs><style>.cls-1{fill:#fa6e64;}.cls-2{fill:#ffa291;}.cls-3{fill:#e1444c;}</style></defs><g id="background"><rect class="cls-1" x="-511.13" y="-441.93" width="850.39" height="850.39"/></g><g id="stars"><path class="cls-2" d="M38,206.75a1.64,1.64,0,1,1-1.5-1.51A1.64,1.64,0,0,1,38,206.75Z"/><path class="cls-2" d="M52.46,177.53A1.64,1.64,0,1,1,51,176,1.64,1.64,0,0,1,52.46,177.53Z"/><path class="cls-2" d="M45.49,46.07A1.64,1.64,0,1,1,44,44.56,1.64,1.64,0,0,1,45.49,46.07Z"/><path class="cls-2" d="M35.62,20.07a1.64,1.64,0,0,1-3.27,0,1.64,1.64,0,0,1,3.27,0Z"/><path class="cls-2" d="M133,9.51a1.64,1.64,0,1,1-1.64-1.64A1.63,1.63,0,0,1,133,9.51Z"/><path class="cls-2" d="M168.53,28.58a1.64,1.64,0,1,1-1.64-1.64A1.63,1.63,0,0,1,168.53,28.58Z"/><path class="cls-2" d="M213.92,60.16a1.64,1.64,0,1,1-1.5-1.51A1.64,1.64,0,0,1,213.92,60.16Z"/><path class="cls-2" d="M196.87,196.69a1.64,1.64,0,1,1-1.64-1.64A1.63,1.63,0,0,1,196.87,196.69Z"/><path class="cls-2" d="M216.23,164.45a1.64,1.64,0,1,1-1.5-1.51A1.64,1.64,0,0,1,216.23,164.45Z"/></g><g id="fireworks"><path class="cls-2" d="M190.13,16.49c0,3-4.68,3-4.63,0S190.18,13.48,190.13,16.49Z"/><path class="cls-2" d="M178.49,11.94c0,3-4.68,3-4.64,0S178.54,8.93,178.49,11.94Z"/><path class="cls-2" d="M182.81,7.85c0,3-4.68,3-4.64,0S182.87,4.84,182.81,7.85Z"/><path class="cls-2" d="M198.46,11.48c0,3-4.69,3-4.64,0S198.5,8.47,198.46,11.48Z"/><path class="cls-2" d="M191.87-1.7c0,3-4.69,3-4.64,0S192-4.71,191.87-1.7Z"/><path class="cls-2" d="M214.19,12.17c0,3-4.68,3-4.64,0S214.23,9.16,214.19,12.17Z"/><path class="cls-2" d="M161.55.12c0,3-4.69,3-4.64,0S161.59-2.93,161.55.12Z"/><path class="cls-2" d="M170.23,6.38c0,3-4.68,3-4.64,0S170.28,3.37,170.23,6.38Z"/><path class="cls-2" d="M201.87,18.76c0,3-4.69,3-4.64,0S201.87,15.75,201.87,18.76Z"/><path class="cls-2" d="M140.57,95.37c6,.28,8.86,0,14.64.12s10.59,1.45,14.13,1.93C164.52,91.76,145.87,91.83,140.57,95.37Z"/><path class="cls-2" d="M108.44,286.07c2.8-25.15,3.85-149.6.46-174.35C106.77,123.57,106,275.2,108.44,286.07Z"/><path class="cls-2" d="M83.12,153.13c3.74-9,12.61-37.75,21.62-43.4C94.42,112.89,81.47,147.47,83.12,153.13Z"/><path class="cls-2" d="M72.56,129.28c6.07-6.55,11.53-16.4,31-21.8C94.1,104.07,71.7,122.49,72.56,129.28Z"/><path class="cls-2" d="M54.93,128.55c.9.66,1.74-1,4.54-3.39,8.21-10.46,21-16.44,32.53-18.64C81.58,101.84,54.55,120.76,54.93,128.55Z"/><path class="cls-2" d="M38.66,115.53c14.79-7.39,48.52-15.42,65-9.88C91.3,94.45,43,104.78,38.66,115.53Z"/><path class="cls-2" d="M54.3,97.07c.42,1,2,.49,5.57-.17,13.46-2.51,26.79-1.25,36.93,3C90.67,91,58.42,90.91,54.3,97.07Z"/><path class="cls-2" d="M77.92,54.38C90.25,67,99.46,75.94,106.17,96.82,108.58,85.07,82.38,51.29,77.92,54.38Z"/><path class="cls-2" d="M136.41,53.07c-6.35,4.84-22.45,29.44-22.12,37.2C114.43,75.26,126.63,53.59,136.41,53.07Z"/><path class="cls-2" d="M75.46,71A122.88,122.88,0,0,1,90.59,82.33c5.56,3.93,14.8,17.86,15.13,20.69C104,88.14,81.94,69.48,75.46,71Z"/><path class="cls-2" d="M139.65,64.31c-6.45,3.81-22.32,23.6-24.91,30.19C117.49,83.89,133.5,63.49,139.65,64.31Z"/><path class="cls-2" d="M154.27,67.39c.13,1.27-1.87,1.63-5.55,4.07a144.08,144.08,0,0,0-14.21,9.69c-7.68,4.79-19.25,17.3-20.12,21.24C118.23,85,147,67.07,154.27,67.39Z"/><path class="cls-2" d="M156.63,87.07c-5.11,1.25-9.34,1.22-17.15,3.7C133,91.83,124.22,96.83,120,99.4,123.87,91,151.53,83.07,156.63,87.07Z"/><path class="cls-2" d="M153.62,104.58c-2.75.06-8.37-1.06-17-1.22a123.37,123.37,0,0,0-21.72,1.32C121.07,98.2,150.7,98.79,153.62,104.58Z"/><path class="cls-2" d="M138.81,137.18c-2.6-5-4.22-7.06-9.13-14.66s-12-13.27-14.74-15.76C123.81,107.59,141.58,131.31,138.81,137.18Z"/><path class="cls-2" d="M129.43,148.15C127,141,121.09,125,116.6,118.29c-3.13-5-4.15-6.05-4.5-7.31C120.42,112.73,133.52,143.07,129.43,148.15Z"/><path class="cls-2" d="M72.87,82.18C88,90.31,93,90,105.62,105.18,104.12,95.92,79,79.67,72.87,82.18Z"/><path class="cls-2" d="M109.12,106.77c1.55-1.56,1.55-23.16,1.92-34.15-.15-12.33.67-27.34-1.44-26.8S107.87,101.07,109.12,106.77Z"/><path class="cls-2" d="M115,67.14c.25.33,1.69-2.63,6-9.27,2.06-3.19,6.83-7.31,7.78-10.62C122.65,48.31,114.75,61.8,115,67.14Z"/><path class="cls-2" d="M104.36,81c-.33.25-.89-3-3.16-10.56a123.82,123.82,0,0,0-4.53-12.38C102.28,60.81,106.12,76,104.36,81Z"/><path class="cls-2" d="M126,107.37c3.85,2.09,9.1,4.79,13.16,7.39s7.6,6.58,10.75,9.42C149.15,116.78,132.57,106.73,126,107.37Z"/></g><g id="palm_trees" data-name="palm trees"><path class="cls-3" d="M11.23,98.28c-19.48-5.45-43.37-4.89-60.12,7.43,10.37-12.15,24.33-14.2,38.28-16.56-6.33-1.32-13.86-.41-20,1.57,6.8-5.06,1-4.12-2.77-1,.77-2,1.82-5,.87-7,6.79-2.94,11.89-8.41,18.11-12.16,1.76-1.2,5.07-1.49,5.8-3.61-3.13-1.4-7.59,2.25-11.31,1.56,7.36-5.94-9.67.21-11,2.87-7.7,3.61-12,13.2-18.64,18.82,2-11.39,16.4-29.61,15.57-30.29s-9,7.93-11.9,11.5c1-3.89,6.77-9.55,6.17-10.31s-7.12,5.35-9.72,8.93c2-5.84,8.37-7.79,10.81-13,2.14-9.89,3.33-14.65-5.26-4.19-1.34,1.61-.44,4.32-1.8,5.91,1.35-7.65-3.48,1.64-5.74,3-.22-2.84.26-7.4-3-8.57-.42-6-5.32,3.08-4.86,7C-65.4,51-55.18,74-56.9,80.51-60.31,71-66.11,62.21-71,53c-.74-1.46-2.2-.52-3.25-2.61-.32-.64-1.28-1.54-1.79-1-2.41,4.8,7.12,17.14,8.29,23.44C-76,65.68-64,84-62.84,86.36c-2.86-.65,2.7,6.64,3,8.06-2.63.18-2.33-4.37-5.1-4.28-.57-.34-.57-1.14-.85-1.73-.57-1.27-2.3-1.54-3.15-2.64-.57-1-1.86-2.45-1.56-.65-2-2.31-3.67-4.65-6.88-5.43-4.68-1.82-15-10.55-12.88-5.25-2.86-2.52-4.15-.71-1.37,1.43,7.21,5.46,16.67,8.41,22.1,16-7.79-5.45-16.42-12.16-26.1-11.69-.71-.45-2.44-.81-2.27.49C-86,87-68.4,89.59-62.84,103.76c-7.38-6.62-35.59-8.23-37.73-6.35-3.37.16-9.23-.13-9.39,1.12,3.82,2.23,23.29.57,28.9,1.53,4.33,0-.88.72,8.67,1.44a16.33,16.33,0,0,1,7.06,2.25c-11.14-1.84-28.51-2.6-42,1.61-10.52,1.76-9.31,4.17-9.31,4.17-30.63,16.32,39.63-17.93,56.16-1-10.17-6-23.88,2-24.86,2-5.78.08-4.74,1.92-5.21,2-2.65.48-1.48,1.6-2.33,1.77-6.58,1.28-5,2.79-5.78,3.29-6.66,4.25-6.26,5.62-7.14,8.91-.69,2.54-6.59,5.94-5.62,6.82,7.69-3.91,29.51-30.77,49-25.21-2.25-1.62-32.61,10.22-33,14.93-.08.89-5.54,3.38-8.11,5.06s-2.65,4.5-3.69,6.91-4.33,5.69-3.69,5.94c.53.74,23.4-25.9,29.94-25.45-2.52.5-20.73,15.94-18.7,19.59,1,.8,5.29-6.35,9.31-10.68s10.59-7.79,10.59-7.79c.54,0-19.73,18.38-15,20.23-3.57,5.75-.58,5.66,2.25-1.28,3-6.08,6.81-7.19,10.09-12.92-1,7.44,11.34-20.33,22.81-12.67-8.65,1-21.75,39-21.26,40.68,1.28.56,1.85-3.21,3.37-5.62,7.7-9.84,5.59-27.1,17.91-34.32,10,52.78-1.92,228.78,1.12,277.14-.64,12.19,7.06,5.14,7.06,5.14C-54,334.65-50,169.74-51.07,112.54c5.12,6.55,5.09,15.51,9.31,22.6,1.13,5.46,1.13,10.87,4.67,15.24,5.4,4.78-3-23.19-4.7-24.86a144.88,144.88,0,0,0-8.54-14.13c.43-3.18,4.45-.81,6.43.7C-39.66,115-39,120.64-36,124.43c3.29,2,3.46,6.57,6.64,8.48,4.39,3.18,2.85-.35,1.39-3.08-3-8.86-8.93-18-18.64-20.65,12.54-.59,24.46,2.86,36.35,6.36,12.29,4-4.63-3.8-8-3.85,2.63-3-29.15-4.55-32-3,15-9.11,34.84-2.93,48.87,5.43,1.22,1,1.55-.24.43-1-3.39-3.81-8.52-4.22-12.31-7.06-2-.85-3.28-3.51-5.31-3.72-3.2-.2-3.19-2-5-1.81-3.61.33-2.65-1.09-4.29-1.08-4.51,1.42-9.33,1.14-13.66,3.16,10.09-6.52,23.61-2.35,34.82-5.4C-4.51,96.44,14.14,101.29,11.23,98.28Z"/><path class="cls-3" d="M319.87,98.28c-19.48-5.45-43.37-4.89-60.12,7.43,10.38-12.15,24.34-14.2,38.28-16.56-6.33-1.32-13.86-.41-20,1.57,6.81-5.06,1-4.12-2.77-1,.78-2,1.83-5,.88-7,6.78-2.94,11.88-8.41,18.1-12.16,1.77-1.2,5.07-1.49,5.81-3.61-3.14-1.4-7.6,2.25-11.32,1.56,7.37-5.94-9.66.21-11,2.87-7.71,3.61-12,13.2-18.65,18.82,2.06-11.39,16.4-29.61,15.57-30.29s-9,7.93-11.9,11.5c1-3.89,6.78-9.55,6.17-10.31s-7.12,5.35-9.71,8.93c2-5.84,8.37-7.79,10.81-13,2.14-9.89,3.33-14.65-5.27-4.19-1.34,1.61-.44,4.32-1.8,5.91,1.35-7.65-3.47,1.64-5.73,3-.22-2.84.26-7.4-3-8.57-.43-6-5.33,3.08-4.87,7C243.24,51,253.46,74,251.74,80.51c-3.42-9.51-9.22-18.3-14.08-27.5-.74-1.46-2.2-.52-3.24-2.61-.32-.64-1.29-1.54-1.79-1-2.42,4.8,7.12,17.14,8.29,23.44-8.31-7.16,3.72,11.18,4.88,13.52-2.87-.65,2.7,6.64,3,8.06-2.63.18-2.33-4.37-5.11-4.28-.56-.34-.57-1.14-.84-1.73-.58-1.27-2.31-1.54-3.15-2.64-.57-1-1.87-2.45-1.57-.65-2-2.31-3.67-4.65-6.87-5.43-4.69-1.82-15-10.55-12.88-5.25-2.86-2.52-4.16-.71-1.37,1.43,7.2,5.46,16.66,8.41,22.1,16-7.8-5.45-16.43-12.16-26.11-11.69-.71-.45-2.43-.81-2.26.49,11.86,6.3,29.5,8.92,35,23.09-7.38-6.62-35.59-8.23-37.72-6.35-3.37.16-9.23-.13-9.39,1.12,3.81,2.23,23.28.57,28.89,1.53,4.34,0-.88.72,8.67,1.44a16.38,16.38,0,0,1,7.07,2.25c-11.15-1.84-28.52-2.6-42,1.61-10.51,1.76-9.31,4.17-9.31,4.17-30.62,16.32,39.63-17.93,56.16-1-10.17-6-23.88,2-24.85,2-5.78.08-4.75,1.92-5.22,2-2.65.48-1.48,1.6-2.33,1.77-6.58,1.28-5,2.79-5.78,3.29-6.66,4.25-6.26,5.62-7.14,8.91-.68,2.54-6.58,5.94-5.62,6.82,7.7-3.91,29.52-30.77,49-25.21-2.26-1.62-32.61,10.22-33,14.93-.08.89-5.53,3.38-8.1,5.06s-2.65,4.5-3.7,6.91S197,140.7,197.68,141c.54.74,23.4-25.9,29.94-25.45-2.51.5-20.73,15.94-18.7,19.59,1,.8,5.3-6.35,9.31-10.68s10.6-7.79,10.6-7.79c.54,0-19.74,18.38-15,20.23-3.58,5.75-.59,5.66,2.24-1.28,3-6.08,6.81-7.19,10.09-12.92-1,7.44,11.34-20.33,22.81-12.67-8.65,1-21.74,39-21.26,40.68,1.29.56,1.85-3.21,3.37-5.62,7.7-9.84,5.6-27.1,17.91-34.32,10,52.78-1.91,228.78,1.12,277.14-.64,12.19,7.06,5.14,7.06,5.14-2.56-58.35,1.44-223.26.36-280.46,5.11,6.55,5.09,15.51,9.3,22.6C268,140.6,268,146,271.5,150.38c5.41,4.78-3-23.19-4.7-24.86a141.78,141.78,0,0,0-8.54-14.13c.43-3.18,4.45-.81,6.43.7,4.24,2.94,4.86,8.55,7.9,12.34,3.28,2,3.45,6.57,6.64,8.48,4.38,3.18,2.85-.35,1.38-3.08-3-8.86-8.93-18-18.63-20.65,12.53-.59,24.46,2.86,36.35,6.36,12.28,4-4.64-3.8-8-3.85,2.63-3-29.15-4.55-32.05-3,15.05-9.11,34.85-2.93,48.87,5.43,1.22,1,1.55-.24.43-1-3.38-3.81-8.51-4.22-12.31-7.06-2-.85-3.28-3.51-5.31-3.72-3.19-.2-3.19-2-5-1.81-3.61.33-2.66-1.09-4.3-1.08-4.51,1.42-9.33,1.14-13.65,3.16,10.08-6.52,23.61-2.35,34.82-5.4C304.15,96.44,322.8,101.29,319.87,98.28Z"/></g></svg>