<svg id="Places" xmlns="http://www.w3.org/2000/svg" xmlns:xlink="http://www.w3.org/1999/xlink" viewBox="0 0 265 265"><defs><style>.cls-1{fill:#eee7d6;}.cls-2{fill:#b0bb95;}.cls-3{fill:#929b7c;}.cls-4{fill:#e8a13c;}.cls-5{fill:#b8552f;}.cls-6{fill:#ba5730;}.cls-7{fill:#c25a32;}.cls-8{fill:#c95d34;}.cls-9{fill:#898e4b;}.cls-10{fill:#969c52;}.cls-11{fill:#848a48;}.cls-12{fill:url(#radial-gradient);}.cls-13{fill:#de822c;}.cls-14{fill:#cc6339;}.cls-15{fill:#b5bd5a;}.cls-16{fill:#bbc267;}.cls-17{fill:#cf6035;}.cls-18{fill:#b2ba57;}.cls-19{fill:#efb056;}</style><radialGradient id="radial-gradient" cx="94.99" cy="-519.59" r="89.29" gradientTransform="matrix(1, 0, 0, -1, 0, -318.79)" gradientUnits="userSpaceOnUse"><stop offset="0" stop-color="#e69a4e"/><stop offset="0.37" stop-color="#e3903c"/><stop offset="1" stop-color="#db7c16"/></radialGradient></defs><g id="background"><rect class="cls-1" x="-508.82" y="-585.36" width="850.39" height="850.39"/></g><g id="tree"><path class="cls-2" d="M115.36-86.32c-.42-2.21-1-4.6-2.78-6s-5.09-.69-5.33,1.54a145.34,145.34,0,0,0-4.7-19.77c-1.13-3.6-3.33-8.74-5.58-7.94-1.44.52-.48,8.83-3.85,15.54-1.28,2.53-.78,5.61-1.2,8.41a40.63,40.63,0,0,1-6.76,17.15c-.29-8.08-.56-16.32,1.61-24.11,2-7.08,5.34-14.74,7.21-21.85,2.76-10.53,5.35-29.65.85-34.36-1.42-1.48.21-6.61-1.17-13.8-2.57-13.38-10.17-27.4-10.17-21.19,0,4.06-2.57,5.24-.84,14.27-1.94.71-5.37,2.64-11.13,17.15,4.68-10.5,9.48-22.11,6.21-33.11-1.43-4.85-4.37-9.26-5-14.28-.57-4.34-.1-10-4.16-11.67a1.76,1.76,0,0,0-1.61,0,2.17,2.17,0,0,0-.71,1.7c-.3,3.4-.26,6.83-.38,10.24a104.73,104.73,0,0,1-3.44,23.21c.52-4.94-2.5-14.18-4.76-13.61s-1.91,5-1.41,7.58c-.14-1.2-1.84-1.63-2.88-1a5.34,5.34,0,0,0-1.93,3c-.84,2.29-1.63,4.59-2.4,6.9-.12-1-.25-1.93-.4-2.89-.39-2.43-1-5-2.57-6.83a6.74,6.74,0,0,1-.84-1.09,4.3,4.3,0,0,1-.34-1.53q-.43-4.72-.88-9.46a34.76,34.76,0,0,0-1.81-9.59,2.82,2.82,0,0,0-1.05-1.48,2,2,0,0,0-2.56.86,5.76,5.76,0,0,0-.7,2.85,145.18,145.18,0,0,0,0,17.7,11.91,11.91,0,0,1,0,2.6,22.49,22.49,0,0,1-.7,2.39,20.54,20.54,0,0,0-.44,6.86c.16,3.06.29,6.37-.78,9.15l-1.14-.66a30,30,0,0,0-.64-11.49c-.26-.87-.59-1.73-.77-2.62a20.81,20.81,0,0,1-.28-2.36,54.24,54.24,0,0,0-2.78-13.22,11.61,11.61,0,0,0-1.41-3,1.53,1.53,0,0,0-.79-.65c-.76-.2-1.34.64-1.64,1.36-2.17,5.23-2.46,11-2.51,16.68,0,2.94,0,5.87.09,8.8a3.21,3.21,0,0,0-3.26.84c-1.2,1.31-1.39,3.23-1.52,5l-1.11,15A11.5,11.5,0,0,0,14-166.49a7.87,7.87,0,0,1-1.51-1.37,20.34,20.34,0,0,1-1.1-2.43,2,2,0,0,0-2.14-1.2,2,2,0,0,0-1,1c-1.13,1.94-.93,4.36-.56,6.57.57,3.55,1.48,7.06,1.72,10.65s-.23,7.35-2.19,10.37a31.12,31.12,0,0,0-2.5-8,4.32,4.32,0,0,0-1.52-2,3.06,3.06,0,0,0-3.67,1A8.45,8.45,0,0,0-2-148.18c-.6,2.61-1.12,5.24-1.63,7.88-.68-4.44-4.23-8.45-5.86-12.86-2.1-5.66-1-11.92-.63-17.94a5.84,5.84,0,0,0-.81-4.08c-1.4-1.76-4.37-1.39-6,.16s-2.27,3.85-2.84,6A55.09,55.09,0,0,0-24-188.59a4.66,4.66,0,0,0-1.44-2.15,1.71,1.71,0,0,0-2.34.2,41.38,41.38,0,0,0-5-13.1c-1.22-2-3.16-4.2-5.48-3.75-1.32,3.87.51,8,1.88,11.87a53.57,53.57,0,0,1,2.71,11.73c-.67-.53-1.61-1.92-2.42-.23.1,4,2,8,1.05,11.93-1.35,5.41-7.79,8.59-8.71,14,0-.09-.11-.17-.15-.26-1.73-3.26-1.35-7.17-1.38-10.86A44.84,44.84,0,0,0-47-181.29c-.68-2.38-2.53-5.23-4.89-4.47a48,48,0,0,0-9.63-19.32c-.92-1.12-2.47-2.28-3.66-1.46a3,3,0,0,0-.9,2.33,29.05,29.05,0,0,0,1.3,10.31,8.65,8.65,0,0,1,.67,3.44c-.07.74-.36,1.44-.5,2.17a11,11,0,0,0,.29,4.23q1.47,7.22,2.93,14.43c-1.91-3.66-3.85-7.31-5.78-11-1.11-2.1-3.87-5.49-4.78-7.68-4.5-10.81-5.25-6.1-10.87-15.61a1.38,1.38,0,0,0-1.47-.55c-.88.21-1,1.4-.89,2.3a116.82,116.82,0,0,0,3.88,18.3,68.06,68.06,0,0,0-10.49-10.36c-2.45-2-5-4.06-8.09-4.92-1.32-.37-2.7-.51-4-.91-2.49-.75-4.63-2.37-7.1-3.17-1.63-.53-4-.32-4.36,1.35-.26,1.1.53,2.15,1.3,3,2.79,3,6,5.59,9,8.38a89.39,89.39,0,0,1,11.32,12.79c-5.86-1-10.46-5.89-16.28-7.12a1.32,1.32,0,0,0-1.16.13,1.11,1.11,0,0,0-.33.77,5.33,5.33,0,0,0,1.16,3.4c7,10.75,19.9,16.08,28.71,25.41,1,1.09,2,2.25,3,3.41l-19.78-11.6a5.52,5.52,0,0,0-2.87-1,2,2,0,0,0-2,1.9,72,72,0,0,0-9.69-4.48c-1.11-.43-2.54-.76-3.34.12s-.42,2,0,3c2,4.3,6.27,7.05,10.3,9.57-1,1.74.41,3.89,1.94,5.21a22.89,22.89,0,0,0,6,3.74c2.49,1.05,5.15,1.66,7.64,2.69a24,24,0,0,1,10.59,8.63,5.08,5.08,0,0,0,1.59,4.9,23.61,23.61,0,0,0,4.47,3c3.2,2,5.94,4.63,9,6.84-.35,3.9.9,7.87,2.65,11.42,1.42,2.87,3.16,5.57,4.73,8.35a13.94,13.94,0,0,0-7.49-4.51,8.66,8.66,0,0,1-3.15-.91,6.57,6.57,0,0,1-1.52-1.68,137.18,137.18,0,0,0-12-14.66,23.16,23.16,0,0,0-6.89-5.56c-3-1.39-6.68-1.69-8.9-4.15-1.21-1.34-1.78-3.13-2.65-4.73s-2.56-3.43-4.09-3.2,0,5.14.43,7.68a66.4,66.4,0,0,0,5,16.41c-6.53-8.26-11-18.33-19.14-25a5.16,5.16,0,0,0-3.33-1.5c-2.47.12-3.56,3.18-3.7,5.65a29.11,29.11,0,0,0,2.38,13.21c.78,1.78,1.75,3.5,2.36,5.35.52,1.6.76,3.28,1.18,4.91,1.37,5.33,4.55,10,7.66,14.54a7.14,7.14,0,0,0-3-1.61,2.53,2.53,0,0,0-2.87,1.41,3.59,3.59,0,0,0,.56,2.7A36.3,36.3,0,0,0-99-78.81c4.2,1.8,8.75,2.81,12.72,5.08s7.23,5.76,11.44,7.56A52,52,0,0,0-67-64a43.13,43.13,0,0,1,6.35,2.15A53.21,53.21,0,0,1-44-48.55c2.6,3.25,4.68,6.88,7,10.33A85.33,85.33,0,0,0-17-17.39,31.2,31.2,0,0,1-35.52-30.67,11.82,11.82,0,0,0-37.6-33.4a3.16,3.16,0,0,0-3.19-.72q-3.47-4.08-7.13-8c-2.86-3-5.93-6.08-9.84-7.52-1.43-.53-2.94-.82-4.35-1.39a29.25,29.25,0,0,1-5.73-3.51,74.9,74.9,0,0,0-8.74-5.32c-1-.52-2.49-.87-3,.14a2.06,2.06,0,0,0,0,1.3c.79,3.46,2.88,6.47,5.18,9.17,5.18,6.09,11.53,11,17.41,16.46q1.68,1.56,3.34,3.15c-6.51-.89-12.44-4.83-17.06-9.6C-75.9-44.6-79.82-51-84.43-56.89c-.88-1.13-2.4-2.33-3.55-1.49-.94.67-.72,2.11-.35,3.2a36.6,36.6,0,0,0,6.65,11.83c-4.71-2.87-7.67-8-12.27-11a42.41,42.41,0,0,1-4.46-2.88c-2.77-2.38-4-6.24-7-8.34a2.07,2.07,0,0,0-1.28-.48c-1.24.09-1.48,1.81-1.25,3a32.74,32.74,0,0,0,2.6,7.63,63.06,63.06,0,0,0,11.54,17,13.54,13.54,0,0,0-5.06-1.84,1.3,1.3,0,0,0-.87.08c-.59.35-.36,1.25,0,1.83,1.54,2.35,4.14,3.74,6.4,5.41,3.75,2.76,6.75,6.44,10.55,9.12a41.18,41.18,0,0,0,11.17,5.19,102,102,0,0,0,17.75,4l1,.14c-1,.28-2,.62-3.06,1a5.26,5.26,0,0,0-2.42,1.41c-.39.46-.61,1-1,1.53A6.66,6.66,0,0,1-61-9.09a116.24,116.24,0,0,0-15.85,13A19.64,19.64,0,0,0-81.57,10a2.85,2.85,0,0,0,0,2.85c.87,1,2.55.59,3.77,0C-69.8,9-62.64,3.25-54,1.39a2.31,2.31,0,0,0,2.16,2.28,6.52,6.52,0,0,0,3.34-.85c10.92-5,21.55-11.5,33.48-13.07l.8-.09C-8.17-7,3.23.89,12,17,39.61,67.73,63.15,143.72,70.43,192.52s12.84,11.56,12.84,11.56-2.08-11.26-5.87-28.36a1.67,1.67,0,0,0,1,.4c1.29,0,1.81-1.66,2-3l3.12-26.77a23.22,23.22,0,0,0,.16-6.23,33.31,33.31,0,0,0-.79-3.28c-1.25-4.72-1.24-9.67-2-14.49-8-48-17-96.22-29-143.62a25.09,25.09,0,0,0,2.53-1,17.92,17.92,0,0,0,8.34-8c2.15,3.64,5.07,6.8,9.08,7.75l7.67,11.13c6.41.18,11.51-5.46,14.2-11.28s4-12.35,7.8-17.52c2.57-3.48,6.11-6.13,8.82-9.5C118.31-59.6,117.75-73.81,115.36-86.32Z"/><path class="cls-1" d="M45.39,64.47C33.83,35.14,20.75,12,21.39-14.4c1.19,2.74,3.4,5.14,6.3,5.78,1.56.35,3.29.2,4.64,1s2,2.43,2.52,3.91A718.31,718.31,0,0,1,73.51,158.61C66.85,130.54,57.12,94.24,45.39,64.47Z"/><path class="cls-3" d="M306-78.91c-1.39-1.16-8.55,5.84-12.71,11.37.11-.57-.14-1.18-1.21-1.83C289.48-70.93,270-55,258.94-47.76c5.61-5.46,11.36-11.14,14.27-18.4.62-1.53,1-3.55-.31-4.59-1.59-1.29-3.87.27-5.28,1.76a194.88,194.88,0,0,0-15.89,19.11c1.07-2.14-1.29-4.77-3.68-4.69s-4.35,2-5.54,4.06-1.86,4.43-3.12,6.46c-5.55,8.9-19.17,7.92-27.26,14.58-5.55,4.57-6,12-12.92,13.77-1.47.38-5.12,1.23-6.1.11a6.56,6.56,0,0,1-1.66-4.78c.25-3.73,2.77-7,5.83-9.15s6.66-3.39,10.15-4.74a142.79,142.79,0,0,0,42.21-25.38c1.35-1.17,2.78-2.57,2.87-4.36s-2.17-3.54-3.51-2.35a45.76,45.76,0,0,0,8.58-11.89,4.77,4.77,0,0,0,.58-3,32,32,0,0,0,12.09-6.55c.95-.88,1.88-2.11,1.5-3.34-.48-1.57-2.58-1.79-4.22-1.68A112.41,112.41,0,0,0,251-90.49l1.39-1.44c4.29-4.53,8.59-9,12.7-13.75,1.47-1.67,3-3.5,3.22-5.7s-1.38-4.76-3.6-4.59l3.51-6.3c2.23-4,4.49-8.09,5.22-12.61a6.63,6.63,0,0,0-.57-4.27,17.44,17.44,0,0,0,4-5,3.42,3.42,0,0,0,.48-2c-.31-1.79-2.74-2.1-4.55-1.88a59.39,59.39,0,0,0-18.12,5.24c4.19-3.7,8.42-7.34,12.75-10.86,2-1.67,4.19-3.4,5.29-5.81.84-1.82.65-4.52-1.24-5.2a123.33,123.33,0,0,0,9.67-10c1.22-1.42,2.46-3,2.68-4.85a2.06,2.06,0,0,0-.51-1.81,2.48,2.48,0,0,0-2.39-.13c-5.17,1.59-9.76,4.63-14.27,7.64l-10.72,7.15a19.75,19.75,0,0,0,.82-6.74,3.31,3.31,0,0,0-.48-1.82,2.42,2.42,0,0,0-2.85-.65,5.28,5.28,0,0,0-2.29,2.1,29.45,29.45,0,0,0-2.73,5.89,158.64,158.64,0,0,1-16.76,32,32,32,0,0,0,.54-6.76c-.09-2.54-.85-5.5-3.21-6.4.64-2.41,1.28-4.93.81-7.38s-2.41-4.81-4.91-4.89l-.12-3.63a1.77,1.77,0,0,0-.6-1.55,1.42,1.42,0,0,0-1.07-.06c-2,.49-3.26,2.42-4.24,4.23a74.11,74.11,0,0,0-4.76,10.6,3.12,3.12,0,0,0-3.66.81,9.57,9.57,0,0,0-1.86,3.56,102.91,102.91,0,0,1-7.63,16.26c-.35.44-.69.89-1,1.36a39.29,39.29,0,0,0-10.6,5,59.78,59.78,0,0,0,9.39-11.12,5.5,5.5,0,0,0,1.12-2.76,2,2,0,0,0-1.7-2.12,31,31,0,0,0,8.44-9.81c1-1.88,1.59-4.73-.29-5.75-1.25-.68-2.78,0-4,.67a63.44,63.44,0,0,0-21.94,20.4,29.67,29.67,0,0,0,.5-11.68c-.13-.85-.42-1.83-1.24-2.1-1.19-.38-2.1,1.06-2.52,2.24q-2.19,6.13-4.37,12.28l-1.22,3.41c-.34,1-.68,1.92-1,2.9-1.33,4.13-2.09,8.42-3.19,12.61-.72,2.72-1.59,5.4-2.53,8a51.49,51.49,0,0,1,0-10.82c.28-2.66.72-5.56-.65-7.86a13.94,13.94,0,0,1-1.14-1.83c-.53-1.31-.12-2.78.09-4.18a15.11,15.11,0,0,0-.24-5.84,3,3,0,0,0-.87-1.68,2.23,2.23,0,0,0-2.77.31,6.57,6.57,0,0,0-1.49,2.6l-3,7.8a62.11,62.11,0,0,0-3.46,10.67c-1.22,6.65-.21,13.5,1,20.16a10.56,10.56,0,0,0-6.09,6.35c-.14.37-.27.74-.39,1.12a4,4,0,0,0-4.62-.43c-1.83,1.11-2.73,3.26-3.36,5.3a45.52,45.52,0,0,0-1.68,8c-2.39-5.94-1.39-13-2.92-19.39-.49-2-1.46-4.25-3.43-5a17.89,17.89,0,0,0-1.48-9.89,2.33,2.33,0,0,0-.87-1.13c-1.07-.6-2.27.57-2.84,1.65-2.83,5.28-2.83,11.55-3,17.54a205.68,205.68,0,0,1-2.28,24.4,70.18,70.18,0,0,0-1.3,11.1c0,.84.06,1.66.14,2.49A18.72,18.72,0,0,1,114.37-62c-1-2.74-1.83-6.41-4.72-6.84-2.25-.33-4.16,1.78-4.9,3.92-.59,1.72-.75,3.57-1.27,5.29-.14-.28-.27-.57-.41-.86A42.86,42.86,0,0,1,100.79-65c-1.8-4.77-.5-10.55-3.32-14.8a3.36,3.36,0,0,0-2-1.6c-1.73-.36-3.1,1.46-3.65,3.14C90.67-74.73,91-70.71,89-67.52c-.75,1.23-1.78,2.26-2.61,3.42-2.54,3.54-3.12,8.16-2.76,12.5S85.23-43,85.92-38.74a56,56,0,0,1,.21,16.66A56.83,56.83,0,0,1,81.64-38.8c-1.46-13.27,1.75-26.7.6-40A17.78,17.78,0,0,0,80-86.86C78.51-89.24,75.73-91,73-90.57A6.35,6.35,0,0,0,69-88.24c-1.34-3.08-2.58-6.2-3.93-9.3l-1.63-3.76a66.45,66.45,0,0,0-5.22-10.35,33.73,33.73,0,0,0-4.66-5.59,6.56,6.56,0,0,0-3.23-2,5.11,5.11,0,0,0-4.72,2.35c-3.32,4.6-1.18,10.92-1.06,16.59.07,3.4-.64,6.77-.9,10.17a38.36,38.36,0,0,0,1.82,14.81,2.67,2.67,0,0,0-3.36.67,6.36,6.36,0,0,0-1.27,3.46A23.83,23.83,0,0,0,42.1-60.12c-2.21-.45-3.7,2.26-4,4.49a25.53,25.53,0,0,0,1.9,13l-9.91-9.76c-1.28-1.26-3.26-2.58-4.67-1.48-1,.8-1,2.36-.73,3.65a61.25,61.25,0,0,0,4.6,14.88c-.93-1-2.84-.13-3.19,1.22s.31,2.73,1,4A80.5,80.5,0,0,0,44.71-8.23a33.8,33.8,0,0,0-9.78-4.26,7.42,7.42,0,0,0-3.34-.28,3,3,0,0,0-2.39,2.12c-.3,1.46.86,2.77,2,3.77A62.69,62.69,0,0,0,45.79,3a3.41,3.41,0,0,0-3.1,2.67A8.4,8.4,0,0,0,43,10a34.78,34.78,0,0,0,3.56,8.44l-4.2-.9a1.84,1.84,0,0,0-1.09,0,1.52,1.52,0,0,0-.77.88c-1,2.32.75,4.81,2.36,6.74,8.28,9.9,16.94,19.75,22.41,31.44a5.91,5.91,0,0,0-2.51-2,2.06,2.06,0,0,0-2.64,1.21,3,3,0,0,0,.6,2.06l12.6,21.45c1.61,2.74,3.22,5.48,4.93,8.15h-.07a70.1,70.1,0,0,1-8-7A99.58,99.58,0,0,0,54.4,68.27c-6-3.74-12.55-6.9-19.58-7.6a1.71,1.71,0,0,0-1,.09,1.62,1.62,0,0,0-.64,1.68c.26,3.29,2.85,5.86,5.35,8Q43.8,75,49.42,79a1.74,1.74,0,0,0-.57,2.39A4.43,4.43,0,0,0,51,83.08C55.17,85,59.81,85.7,64.3,86.79s9,2.74,12.19,6.12c2.71,2.91,4,6.65,5.08,10.53q-.54,11.6-2,23.13c-.64,4.93-1.41,9.84-2.18,14.76-1.45,9.22-2.9,18.48-5.61,27.42-1.88,6.21-4.41,12.31-8.4,17.43l17.65,2a37.19,37.19,0,0,1,9.73,2c-3.39-8.65-2.09-18.33-.75-27.52,2.74-18.77,5.48-37.61,10.51-55.88,3.4-4.15,7-8.16,10.69-12,3.08-3.17,6.45-6.33,10.69-7.6,5.6-1.66,11.56.29,17.06,2.26,2.2.8,4.54,1.61,6.85,1.2s4.49-2.53,4.08-4.84c-.39-2.13-2.68-3.36-4.81-3.75s-4.4-.27-6.38-1.16l23-2.17c1.75-.16,3.72-.44,4.77-1.85s-.07-4.11-1.76-3.59c12.3-7.1,27.54-7.52,40-14.34a86.43,86.43,0,0,0,10.49-7.33c3.82-2.91,11.32-8.42,10.36-9.91s-6,2-8.48,4.08a52.13,52.13,0,0,1-28.49,12,21.49,21.49,0,0,0,6.35-7.41c.5-1,.87-2.25.09-3s-1.95-.35-2.9,0l-16.65,7.07a4.61,4.61,0,0,0,.08-3.91,4.75,4.75,0,0,0-5.12-.19,17.05,17.05,0,0,0-4.12,3.5,48.91,48.91,0,0,1-20,12.18,13.54,13.54,0,0,0,5.74-5.84,2.35,2.35,0,0,0,.35-1.61c-.36-1.51-2.61-1.18-4-.43a42.27,42.27,0,0,0-9.33,7l5.49-13.29c.89-2.14,1.79-4.45,1.34-6.73s-2.89-4.31-5-3.43a4,4,0,0,0-.12-3.59,13,13,0,0,1,4.49-1.73c4.13-.65,8.11,1.48,12.09,2.77,13.75,4.46,28.54-1,41.95-6.4,10.68-4.26,28.27-19,26.68-20.41s-16.64,9.26-26,10.51c3.15-2.64,8.68-8.62,6.92-10a1.57,1.57,0,0,0-1.22-.05c9.55-3.44,23.38-11.42,22.39-13.51C227-3,211.9,0,204.56,3.28,238.23-15,249.86-22,248.46-24.44s-10.29,1.34-15.43,2A167.94,167.94,0,0,0,304.17-70.8C306.17-73.15,307.56-77.58,306-78.91Z"/><path class="cls-1" d="M117.16,43.32c1.37-3.24,2.39-6.63,3.56-10a95.49,95.49,0,0,1,10.9-21.87c.78-1.14,1.58-2.22,2.41-3.28,1.81,5.19,4.12,10.26,6.43,15.25Q128.58,33.13,117.16,43.32Z"/><path class="cls-1" d="M180.9-3.62c1.76-1.5,4.36-1.26,6.66-1.67A41.6,41.6,0,0,1,178.44,2C179,0,179.3-2.27,180.9-3.62Z"/><path class="cls-1" d="M98.38-5c1.21-8.94,4.33-17.5,6.33-26.29l.12.24c1.22,2.21,2.82,4.22,3.71,6.58,1.18,3.09,1,6.53,1.93,9.72,1.32,4.75,4.75,8.6,6.88,13a10.19,10.19,0,0,1,1.21,4.93,12.42,12.42,0,0,1-1,3.57L108.41,31A77.43,77.43,0,0,0,105,41.72C100.19,26.55,96.25,10.72,98.38-5Z"/><path class="cls-1" d="M75-1.58c1.54-1,3.75,0,4.63,1.64s1.92,5.49.68,5.41S76.2,1.68,74-.39A3.29,3.29,0,0,1,75-1.58Z"/><path class="cls-1" d="M69.59,37.61c-2.44-7.41-3.08-15.25-3.8-23a13.83,13.83,0,0,0,4.29,2.19c3.27,1,6.75,1.13,10,2a21.78,21.78,0,0,1,8.62,4.67,16,16,0,0,0,2.86,2.1,103.19,103.19,0,0,1,6.55,20.75c.46,2.3.86,4.63,1.32,6.93-2.23,11.38-5.71,22.52-9.2,33.6-.48,1.53-1.07,3.19-2.46,4a3.79,3.79,0,0,1-2.56.37A30.32,30.32,0,0,1,86.8,76.66c1-2.64,2.35-5.16,3-7.91a2.24,2.24,0,0,0-.23-2c-.75-.87-2.17-.27-3.06.45a20.36,20.36,0,0,0-4.77,5.48,94.11,94.11,0,0,1,3.78-21.12c1.06-3.58,2.34-7.36,1.36-11a3.69,3.69,0,0,0-1.28-2.13,3.12,3.12,0,0,0-3.68.33,7.76,7.76,0,0,0-2.16,3.29,33.36,33.36,0,0,0-2.44,14.58C75.23,50.16,71.74,44.16,69.59,37.61Z"/><path class="cls-1" d="M124.61,60.94c-.62,8.85-6.51,16.49-13.18,22.35-2.54,2.23-5.23,4.3-7.92,6.35,1.31-9.78,3.18-19.69,8.84-27.67,3.23-4.55,7.53-8.21,11.88-11.69.36-.28.73-.55,1.08-.83a9,9,0,0,0-.25.89C124.26,53.79,124.86,57.4,124.61,60.94Z"/><path class="cls-1" d="M128.78,46.77c1.51-1.16,3-2.31,4.57-3.43-1.06,1.67-2,3.37-2.93,5.12A1.85,1.85,0,0,0,128.78,46.77Z"/><path class="cls-1" d="M181,25.16a5.46,5.46,0,0,0-6.2-4.23c9.24-3.13,19-4.58,28.33-7.29l.53-.16C198.18,15.69,187.57,22,181,25.16Z"/><path class="cls-2" d="M108,25.47a7.07,7.07,0,0,0-.64-2.25,1.67,1.67,0,0,0-2-.85c-.91.41-.77,1.57-2.91,2.16,2.08,1,1.6,2.49,1.38,3.77a29.17,29.17,0,0,0-.37,10.12,25.78,25.78,0,0,0,1.44,4c1.59-5.18,3-9.31,4.42-13.62A10.41,10.41,0,0,1,108,25.47Z"/></g><g id="fruit"><path class="cls-4" d="M341.39,146.61a1171.37,1171.37,0,0,0-133.64,5C132.94,159,80.28,190.14,80.28,190.14L283.54,265h57.85Z"/><path class="cls-5" d="M164.07,206.71s-4.23-22.9-.36-42.16,12.45-40.29,12.3-42.71-7.11-6.12-8.59-4.51-15.22,56.87-9.59,88.49S164.07,206.71,164.07,206.71Z"/><path class="cls-5" d="M261.55,214.68c-.71-21-40.73-48.32-91-48.32s-91,23.94-91,48.32,40.72,44.15,91,44.15S262.36,239.05,261.55,214.68Z"/><path class="cls-6" d="M147.09,170.74c-20,1.46-36.23,7-50.42,16.53,65.12-9.49,85.3,33.38,91.76,56,8.93,31.24,32.52,4.5,23.61,19.57h30.69a58.49,58.49,0,0,0,4.19-21.62C246.92,198.91,205.59,166.48,147.09,170.74Z"/><path class="cls-7" d="M169,166.26c-20.91,0-39.33,4.18-55.78,11.69,70.26-23,105.36-.14,120.89,11,29.42,21,32,57.86,23.27,75.37h13.77a56.86,56.86,0,0,0,4.22-21.35C275.41,200.61,227.79,166.26,169,166.26Z"/><path class="cls-8" d="M169,166.26c-20.91,0-38.85,4.06-55.29,11.57,71.1-24.87,111.41-.13,126.83,11.07,29.31,21.26,32.28,39.32,34.83,54C275.41,200.61,227.79,166.26,169,166.26Z"/><path class="cls-9" d="M77.07,207.13c-.68-21-38.25-53.62-86-53.62s-85.52,27.8-85.52,52.18,38.75,44.15,86.55,44.15S77.85,231.51,77.07,207.13Z"/><path class="cls-10" d="M-19.95,156.83c-12.76.67-26.43,2.08-40.27,8.39,52.36-12.82,76,5.22,82.22,14.18,13.36,19.11,6.32,58-1.17,70.72,12,0,38.26-13.58,38.26-13.58a49,49,0,0,0,3.53-18.17C62.62,182.78,29.36,154.23-19.95,156.83Z"/><path class="cls-11" d="M-10.93,154.14a113.13,113.13,0,0,0-47.3,10.09c13.83-4.47,24.55-7.29,35.3-8.1,36.25-2.72,54.29,9.34,65.12,18.18,7.46,6.08,20.56,22.77,20.42,37.5-.13,13.28-12.9,23.39-16.37,30.37,11.1-.05,28.83-5.66,28.83-5.66a47.85,47.85,0,0,0,3.54-17.91C78.61,183,38.52,154.14-10.93,154.14Z"/><path class="cls-12" d="M74.13,180.53c-39.25,0-71.06,28.85-71.06,64.44,0,6.23,1.7,13.5,3.52,19.19l137.74.55c1.3-5.78,2-15.5,1-25.2C142.1,206.87,113.38,180.53,74.13,180.53Z"/><path class="cls-13" d="M88.8,181.89A80.77,80.77,0,0,0,74,180.53c-27.21,0-52.83,13.16-64.86,36.91,7.3,2.76,5.52,5.47,13.62.32s11.6-9.82,25.41-21S70.5,184.16,88.8,181.89Z"/><path class="cls-14" d="M161.26,169.34c19.39.5,28.1,6.68,42.1,11.76,11.8,4.29,17,9.32,27.22,17,5.41,1.56,16.9.73,19.41,2.54-5.14-7.31-23.37-19.85-41.92-25.59C196.9,171.61,175.11,167.07,161.26,169.34Z"/><path class="cls-15" d="M341.39,255.31c-19.67-35.72-71-56.81-120.91-49.57-40.86,5.94-68.24,29.36-79.15,59.26H341.39Z"/><path class="cls-16" d="M289.81,216.06c-17-8.35-42.81-10.66-59.81-6.45,34.81.39,87.25,23.78,94,29.21C317.07,230.32,311.74,226.83,289.81,216.06Z"/><path class="cls-17" d="M259.81,244.13S262,221,270.93,203.47s23-35.38,23.46-37.76-5.18-7.82-7-6.68-30.15,50.58-33.34,82.58S259.81,244.13,259.81,244.13Z"/><path class="cls-18" d="M37.4,253.09c-7.11-49-61.24-81.63-120.91-73-51.67,7.52-90.49,43.59-95.41,84.91H38.16A73,73,0,0,0,37.4,253.09Z"/><path class="cls-16" d="M-6.77,200.38C-22.38,189.61-47.53,183.61-65,185.3c34.39,5.46,83.94,35.41,89.78,41.75C16.33,217.4,13.35,214.23-6.77,200.38Z"/><path class="cls-9" d="M-178.92,265H38.16a74.08,74.08,0,0,0-.76-11.91,74.49,74.49,0,0,0-3.29-13.58,78.84,78.84,0,0,0-15.8-26.69A59.94,59.94,0,0,0-26,203.61c-10,2-19,5.26-28,8s-18,5-27.95,5c-17-1-33-6-50-5-14.72,1.34-25.85,9.84-34.3,21a89,89,0,0,0-6.29,9.56A79.45,79.45,0,0,0-178.92,265Z"/><path class="cls-19" d="M85.4,240.61c-28.31,1.7-56.75-1.08-85,.91-25.75,1.8-52.21,8.1-72.67,23.49H116.21C124.18,236,91.29,240.25,85.4,240.61Z"/><path class="cls-9" d="M141.33,265H341.39v-7.12a35.48,35.48,0,0,0-5.36-5.39,40.54,40.54,0,0,0-4-2.88c-8.59-5.73-18.07-7.61-27.75-8-17.38-.61-35.43,3.78-50.2-.08-11.06-3.09-20.56-7.16-30.06-10.48-12-4.18-23.93-7.16-39-5.49-11.18,1.6-20.09,7.16-27.63,14.57a96.78,96.78,0,0,0-9.75,11.35c-1,1.72-1.93,3.48-2.8,5.26A82.18,82.18,0,0,0,141.33,265Z"/></g></svg>