<svg id="music" xmlns="http://www.w3.org/2000/svg" xmlns:xlink="http://www.w3.org/1999/xlink" viewBox="0 0 325 325"><defs><style>.cls-1{fill:#4d6666;}.cls-2{fill:#bdcfd6;}.cls-3{fill:url(#linear-gradient);}.cls-4{fill-rule:evenodd;fill:url(#linear-gradient-2);}.cls-5{fill:#f2e6da;}.cls-6{fill:#eda174;}.cls-7{fill:#dd8b66;}.cls-8{fill:#95bfd8;}.cls-9{fill:#adcadb;}</style><linearGradient id="linear-gradient" x1="51.72" y1="-360.02" x2="51.72" y2="-274.01" gradientTransform="matrix(1, 0, 0, -1, 0, -136)" gradientUnits="userSpaceOnUse"><stop offset="0" stop-color="#f2e6da"/><stop offset="1" stop-color="#bdcfd6"/></linearGradient><linearGradient id="linear-gradient-2" x1="232.1" y1="-378.12" x2="232.1" y2="-248.33" gradientTransform="matrix(1, 0, 0, -1, 0, -136)" gradientUnits="userSpaceOnUse"><stop offset="0.23" stop-color="#eaba9b"/><stop offset="0.49" stop-color="#ebb492"/><stop offset="0.94" stop-color="#eda478"/><stop offset="1" stop-color="#eda174"/></linearGradient></defs><g id="sky"><rect class="cls-1" x="-373.39" y="-494" width="850.39" height="704.6"/><rect class="cls-2" x="-373.39" y="-494" width="850.39" height="704.6"/><rect class="cls-3" x="-373.7" y="136.39" width="850.85" height="82.46"/></g><g id="sun"><path class="cls-4" d="M232.11,32a177.52,177.52,0,0,1,140.3,286.24c-32.47,41.84-243.85,44-276.41,5.2A177.51,177.51,0,0,1,232.11,32Z"/><circle class="cls-5" cx="230.11" cy="210.5" r="55"/><circle class="cls-6" cx="230.11" cy="210.5" r="3.5"/><path class="cls-7" d="M76.61,209c0-84.92,69.08-154,154-154s154,69.08,154,154c0,21.47-4.42,40.3-12.4,56.45h2.23c7.83-16.21,12.17-35,12.17-56.45,0-86-70-156-156-156s-156,70-156,156c0,21.4,4.34,40.24,12.17,56.45H89C81,249.3,76.61,230.47,76.61,209Z"/><path class="cls-7" d="M102.86,209a127.75,127.75,0,1,1,242.33,56.45h2.23A129,129,0,0,0,360.36,209c0-71.54-58.21-129.75-129.75-129.75S100.86,137.46,100.86,209a128.82,128.82,0,0,0,12.94,56.45H116A126.91,126.91,0,0,1,102.86,209Z"/><path class="cls-7" d="M129.11,209a101.5,101.5,0,1,1,185.81,56.45h2.4a103.5,103.5,0,1,0-173.42,0h2.4A100.82,100.82,0,0,1,129.11,209Z"/></g><g id="water"><rect class="cls-8" x="-373.39" y="210" width="850.39" height="146.39"/><path class="cls-9" d="M285.22,210H175c-.68,48.8-1,97.6-.7,146.39H285.66C286.28,270.5,285.52,228.48,285.22,210Z"/></g></svg>