<svg id="Notes" xmlns="http://www.w3.org/2000/svg" viewBox="0 0 150.39 150.39"><defs><style>.cls-1{fill:#fff0c7;}.cls-2{fill:#fee8aa;}.cls-3{fill:#fce399;}.cls-4{fill:#ffdb82;}.cls-5{fill:#f7cd6c;}.cls-6{fill:#dc8c47;}.cls-7{fill:#fad568;}.cls-8{fill:#ffefc7;}.cls-9{fill:#f4b44e;}.cls-10{fill:#f6a450;}.cls-11{fill:none;}.cls-12{fill:#ffd992;}.cls-13{fill:#ffbc7c;}.cls-14{fill:#ffc886;}.cls-15{fill:#dd8d48;}</style></defs><g id="sky"><rect class="cls-1" x="-700" y="-494" width="850.39" height="850.39"/></g><g id="mountain"><path class="cls-2" d="M-699.37,119.57h850v-60c0-19.91.25-76.7.25-96.61,0-18.44-.25,0-.25-18.44-40,27-206,48-275,25s-86-22-127-22-157.28-20.83-222-59c-17.42-10.27-31.85-14.76-45.25-15.24-16.59-.6-31.6,4.94-48.75,13.24-19.39,9.39-132,53-132,53V119.57Z"/></g><g id="hills"><path class="cls-3" d="M-700,73s120,9,222,0,178,14,306,13S64.39,73,150.39,91v50.55L-700,141Z"/><path class="cls-4" d="M-700,175l302.4,2.87,12.6.13q267.5,0,535.39.35V113.11C75.39,124.11-97,132-254,115c-50.31-5.45-114.27-8.43-178-10-135.1-3.26-268,.09-268,.09Z"/><path class="cls-5" d="M-700,249.08c184.7,8.39,368.91,16.37,553.61,24.77L-99,276c85.67-10.33,163.73-20.2,249.39-30.54V152.69S127,155,22,157c-36.85.7-84.79-1.43-140-3.84-102-4.47-228.83-9.9-356-.16-207.86,15.91-226-9-226-9,.12,24.3-.12,22.34,0,46.64C-699.95,201.23-700,238.48-700,249.08Z"/></g><g id="shadow"><path class="cls-6" d="M-82.57,261.06S-44,206-26,184,0,157,9,157s39.5-.5,39.5-.5,8-19,28-35c0,0-8.5,9.5-15.5,34.5l-12.5.5s-19.67,3.88-66.67,99.88c0,0-26.25,2.24-45.25,3.24Z"/></g><g id="pencil"><path class="cls-7" d="M77-494V44.43A14.77,14.77,0,0,1,89,38a13,13,0,0,1,12,8V-494Z"/><polygon class="cls-8" points="100.96 45.84 99.46 -253.81 99.46 -494.16 100.96 -494.16 100.96 45.84"/><path class="cls-9" d="M53-494V43s4-7,12-6,11,9,11,9a13.46,13.46,0,0,1,1-1.57V-494Z"/><path class="cls-10" d="M77-494H53v345.21C55.74-132.6,67.63-52.68,77,44Z"/><rect class="cls-10" x="53.03" y="-493.97" width="1.5" height="537"/><polygon class="cls-11" points="87.38 88 67.03 88 77 120 87.38 88"/><path class="cls-12" d="M101,46s-2-8-12-8-12,6-12,6-4.54-6.36-12-7c-8-.69-11,4-12,6L67,88H87.35Z"/><path class="cls-13" d="M65,37c-8-.69-11,4-12,6L67,88h8.7c.11-14.7,1.13-29.13,1.25-44C76.81,43.73,72.31,37.63,65,37Z"/><path class="cls-12" d="M101,46s-2-8-12-8-12,6-12,6h0c-.12,14.89-1.14,29.32-1.25,44H87.4Z"/><path class="cls-14" d="M83.84,88h3.54L101,46S88.53,73,83.84,88Z"/><polygon class="cls-15" points="87.38 88 67.03 88 77 120 87.38 88"/><path class="cls-10" d="M91.25,37.93a16.38,16.38,0,0,0-5.5,0,14.09,14.09,0,0,0-5.2,1.92A11.45,11.45,0,0,0,77,43.39,20.46,20.46,0,0,0,71.87,39,15.39,15.39,0,0,0,65,36.73a14,14,0,0,0-7.09,1.18A10.64,10.64,0,0,0,53,43a10.76,10.76,0,0,1,5.06-4.78A13.87,13.87,0,0,1,65,37.28a15.72,15.72,0,0,1,6.57,2.27,19.39,19.39,0,0,1,5.18,4.67.4.4,0,0,0,.12.1.38.38,0,0,0,.51-.15h0a10.69,10.69,0,0,1,3.59-3.73,13.49,13.49,0,0,1,4.93-1.86,20.18,20.18,0,0,1,5.32-.17A13.78,13.78,0,0,1,96.3,40,11.89,11.89,0,0,0,91.25,37.93Z"/></g></svg>