<svg id="Places" xmlns="http://www.w3.org/2000/svg" viewBox="0 0 176.02 176"><defs><style>.cls-1{fill:#f1e4de;}.cls-2{fill:#bfd6a9;}.cls-3{fill:#93ae78;}.cls-4{fill:#a6bf8d;}</style></defs><g id="background"><rect class="cls-1" x="-409.08" y="-657" width="850.49" height="850.4"/></g><g id="trees"><path class="cls-2" d="M235.46,47.23c2.19-2.28,4-6.39,1.69-8.5a8.11,8.11,0,0,0-2-15.41c.77-8.33-7.41-10.34-10.32-9.13,3.54-1.61,5.46-5.87,4.86-9.71a12.66,12.66,0,0,0-6.86-8.89,9.24,9.24,0,0,0-1.72-12.94,9.23,9.23,0,0,0-11.85.53,6.42,6.42,0,0,0-2.35-6.47c4.08-2.39,6.86-7.2,6.14-11.88S207.61-43.77,203-43c1.19-3.56-2.47-7.13-6.18-7.69a11.37,11.37,0,0,0-11.45,5.76,5.22,5.22,0,0,0-6.82,2.23,7.64,7.64,0,0,0-10.72,1.35,7.62,7.62,0,0,0-.69,8.31,4.53,4.53,0,0,0-3.68.69c-.52-2.66-1.53-5.49-4-6.22A11.83,11.83,0,0,0,166-44.8a8.72,8.72,0,0,0-1.16-8.85c-1.6-1.85-4.76-2.72-6.43-.93a9.33,9.33,0,0,0-10.9-7.15c1.64-2.58,3-5.51,2.82-8.56s-2.52-6.13-5.58-6.24a9.29,9.29,0,0,0,5-11.26A9.84,9.84,0,0,0,142.06-94a7.49,7.49,0,0,0-3.76-6,11,11,0,0,0-8.77-1.07c-.27-7.25-1.73-11.31-9.32-13.8.65-5.14.32-10.16-4.08-14.76a18.47,18.47,0,0,0-17.52-5A13.53,13.53,0,0,0,87.14-150a13.52,13.52,0,0,0-9.73,2.33c-.45-3.88-1.79-7.84-4.71-10.44S65-161.42,62-159a10.47,10.47,0,0,0-12.09-8.55A10.47,10.47,0,0,0,42-161.21c.05-6.23-6.81-11.3-12.89-9.93s-10.1,8.28-8.84,14.39c-2.57-2.48-6.89-1.43-9.91.48A14.88,14.88,0,0,0,4-149c-1.09,3.13-.52,7,1.94,9.18-4.33.65-16,27.77-24.4,48l-149.53,2a758.29,758.29,0,0,0-99.06,10c-51.74,8.83-69.4-.31-111.24,31.38-9,6.79-37.81,108.27-19.7,113.26,46.71,12.88,96.05,11,144.48,9.06,2.66-.11,5.44-.3,8.19-.67,19.37,4.56,39.22,7.54,59,6.24,5.85-.38,11.79-1.17,17.05-3.75l.19-.11c.25.32.51.63.79.93,4.05,4.23,12.16,3.18,15-2,4.48,2.73,11.23.18,12.79-4.83a15.7,15.7,0,0,0,19-.54c-1.34,3.72,1.94,7.87,5.8,8.79s7.86-.51,11.42-2.26c.84,4.36,7,6.6,10.41,3.81a6.14,6.14,0,0,0,8,3.24c4.95,6.24,15.06,7,21.36,2.43a7.87,7.87,0,0,0,2.91,6.07,8.19,8.19,0,0,0,11.41-2.08l.16-.24a10.89,10.89,0,0,0,12.87-5.52c4.31,2.28,10.41-.27,11.82-5,3.41,2.37,9-1,8.51-5.07a8.43,8.43,0,0,0,9.16-5.06,9,9,0,0,0,11,5.06c-1.56,3.54,2.33,8.07,6.06,7,.27,2,1.72,4.07,3.76,4.28s4-2.26,2.9-4l3.22,1.82c-2,1.79-1.33,5.45,1,6.78a5.53,5.53,0,0,0,7-1.8,7.37,7.37,0,0,0,.17-7.57c4.36,1.43,9.55-2.38,9.5-7a10.81,10.81,0,0,0,10.47-4.26,7.63,7.63,0,0,0,8.87.11c1.55,2.7,3.9,5.82,7,5.28,1.13-.2,2.16-.9,3.3-.86s2.29.93,3.38,1.56c4.53,2.62,11.22-.2,12.51-5.28,5.42,2.28,12,0,15.62-4.57a4.35,4.35,0,0,0,3.59,2.32c1.19,0,2.56-.37,3.42.44s.64,1.81.78,2.79a5.41,5.41,0,0,0,6.36,4.27l.25-.05a7.9,7.9,0,0,0,3.07,6c2.38,1.81,5.54,2.11,8.53,2.33,3.24.25,6.57.49,9.71-.36s6.14-3,7.07-6.12a7.58,7.58,0,0,0,8.7-6.26,2.34,2.34,0,0,0,0-.26,10.43,10.43,0,0,0,15.25-9.81,9.52,9.52,0,0,0,9-8A10.28,10.28,0,0,0,187,46.86c3.74,2.65,9.76.8,11.38-3.48a7.35,7.35,0,0,0,7,.77,13.29,13.29,0,0,0,.09,1.9,8.07,8.07,0,0,0,7.35,7.09c-1.47,3.61,2,7.72,5.88,8.25s10.68-2.61,13.91-4.78a6.84,6.84,0,0,0,2.93-4.15C236.36,50.23,237.49,48.42,235.46,47.23Z"/><path class="cls-3" d="M230.12,47.17c-2.59,1.36-9.89.66-12.31-1a10.42,10.42,0,0,1-4.41-6.49,3.58,3.58,0,0,1-4.92-1.2,3.64,3.64,0,0,1-.48-1.35,20.75,20.75,0,0,1-7.2,3c-2.58.38-5.49-.34-7.06-2.44S192.63,32.06,195,31a18.71,18.71,0,0,1-15.41.43,6.22,6.22,0,0,0,5.59,5.17,8.33,8.33,0,0,1-7.52,5.66,8.64,8.64,0,0,1-15.08.41c-3.62,3.83-9.72,5.52-14.39,3.09a9.63,9.63,0,0,1-4.87-8.08,15.58,15.58,0,0,1-3.79.44c-6,0-12.94-4-12.35-9.94A12.68,12.68,0,0,1,116,33.86,11.54,11.54,0,0,1,100.6,48.37c-3,5.22-11.95,5.22-14.95,0-5.43,2.94-13.24-1.54-13.43-7.72a8.08,8.08,0,0,1-9,7c-.27,0-.53-.08-.79-.14a8.87,8.87,0,0,1-15.79,4.82,6.46,6.46,0,0,1-8.75,1.75A12.68,12.68,0,0,1,22.75,52a9,9,0,0,1-16.4-2.33,5,5,0,0,1-5.29-8.55,7,7,0,0,1-6-7.69c-.71,6.1-6.89,10.34-13,11.12-2.14.28-4.61.1-6-1.55-.54,4.2-2.89,8.54-6.9,9.89s-9.31-1.84-8.78-6.05A8.56,8.56,0,0,1-45.33,48a7.64,7.64,0,0,1-4.09,10,7.67,7.67,0,0,1-5.91,0c-.8,3.42-5.14,5-8.52,4s-6-3.59-8.41-6.13l-2.24-2.34c-5.33,1-10.5-5.26-8.5-10.31a6.08,6.08,0,0,1-4.32-7.44,6.07,6.07,0,0,1,5-4.46l.15-.35a10,10,0,0,1-7.25-.26,10.59,10.59,0,0,1-5.21,6,7.41,7.41,0,0,1-.13,10.48,7.42,7.42,0,0,1-6.53,2,10,10,0,0,1-11.32,8.48,10,10,0,0,1-6.25-3.48c-1.69,3.35-6.32,4.34-9.82,3s-6.05-4.39-8.13-7.52c-2.31-3.48-4.23-8.18-1.9-11.66-5.61,4.2-14.63,2.59-18.44-3.28.15,4.7-6.21,8.08-10,5.34a5.68,5.68,0,0,1-7,4,5.68,5.68,0,0,1-4.16-5.69,7.92,7.92,0,0,1-9.32-6.21,5.19,5.19,0,0,1-.12-.79c-3.35,2.29-7.87-.08-10.93-2.75s-6.47-5.91-10.48-5.32a11.66,11.66,0,0,1,6.21,12.17A7.36,7.36,0,0,1-193.5,40l0,0c4.18-3.79,12.28.61,11.38,6.18s-10,7.2-12.75,2.29a12,12,0,0,1-16.72,2.91,12,12,0,0,1-5-8.22c-6.4,4.19-16.44.18-18.2-7.27-2.07-8.82,5.85-16.53,13-22.14,21-16.56,42.52-33.38,67.65-42.57,3.81-1.38-8.87-26.06-28.34-60.3A743.12,743.12,0,0,0-267-79.77C-318.8-70.9-410.21-52.3-410.21-52.3l1,114.81S-302,75.93-253.52,74c2.66-.11,5.44-.3,8.19-.67,19.37,4.56,39.22,7.54,59,6.24,5.85-.38,11.79-1.17,17.05-3.75l.19-.11c.25.32.51.63.79.93,4.05,4.23,12.16,3.18,15-2,4.48,2.73,11.23.18,12.79-4.83a15.7,15.7,0,0,0,19-.54c-1.34,3.72,1.94,7.87,5.8,8.79s7.86-.51,11.42-2.26c.84,4.36,7,6.6,10.41,3.81a6.14,6.14,0,0,0,8,3.24c4.95,6.24,15.06,7,21.36,2.43a7.87,7.87,0,0,0,2.91,6.07A8.19,8.19,0,0,0-50.2,89.27L-50,89a10.89,10.89,0,0,0,12.87-5.52c4.31,2.28,10.41-.27,11.82-5,3.41,2.37,9-1,8.51-5.07a8.43,8.43,0,0,0,9.16-5.06,9,9,0,0,0,11,5.06c-1.56,3.54,2.33,8.07,6.06,7,.27,2,1.72,4.07,3.76,4.28s4-2.26,2.9-4l3.22,1.82c-2,1.79-1.33,5.45,1,6.78a5.53,5.53,0,0,0,7-1.8A7.37,7.37,0,0,0,27.43,80c4.36,1.43,9.55-2.38,9.5-7A10.81,10.81,0,0,0,47.4,68.74a7.63,7.63,0,0,0,8.87.11c1.55,2.7,3.9,5.82,7,5.28,1.13-.2,2.16-.9,3.3-.86s2.29.93,3.38,1.56c4.53,2.62,11.22-.2,12.51-5.28,5.42,2.28,12,0,15.62-4.57a4.35,4.35,0,0,0,3.59,2.32c1.19,0,2.56-.37,3.42.44s.64,1.81.78,2.79a5.41,5.41,0,0,0,6.36,4.27l.25,0a7.9,7.9,0,0,0,3.07,6c2.38,1.81,5.54,2.11,8.53,2.33,3.24.25,6.57.49,9.71-.36s6.14-3,7.07-6.12a7.58,7.58,0,0,0,8.7-6.26,2.34,2.34,0,0,0,0-.26,10.43,10.43,0,0,0,15.25-9.81,9.52,9.52,0,0,0,9-8A10.27,10.27,0,0,0,187,46.86c3.74,2.65,9.76.8,11.38-3.48a7.35,7.35,0,0,0,7,.77,13.29,13.29,0,0,0,.09,1.9,8.07,8.07,0,0,0,7.35,7.09c-1.47,3.61,2,7.72,5.88,8.25s10.9,2.55,14.84-3.59c1.11-1.73,3.46-2.5,4.13-4.45a5.33,5.33,0,0,0-2.27-6.12c2.1-2.19,4-6,2-8.22a29.42,29.42,0,0,1-5.36.74C234,42,232.72,45.81,230.12,47.17Z"/><path class="cls-1" d="M125.11,37.93A7.31,7.31,0,0,0,132.55,44c-3,1.4-4.28,5-4.51,8.28.06-.77-3.37-2.88-4-3.29a15.75,15.75,0,0,0-6.79-2.19,19.4,19.4,0,0,0,5.12-4.34A40.1,40.1,0,0,0,125.11,37.93Z"/><path class="cls-3" d="M130.92,111.75c1-23.2,7-35.69,7.08-35.82l-1.8-.88-1.79-.88c-.24.48-5.27,10.93-7,30.7-2.59-20.74-6.69-28.35-7-28.87l-3.49,2c.08.15,5.73,10.86,7.81,41.72-.07-.7-.14-1.39-.22-2-1.83-15.38-9.47-30.63-12.05-35.42a42.3,42.3,0,0,1,3.66-5.43l-1.52-1.3-1.51-1.3c-.39.44-6.62,7.84-10.57,21.09,1.78-18.39,4-27.17,5.23-28.6h0l-4.24-4.25c-2.14,2.15-3.81,8.74-5.11,17.1-1.89-11.22-4.6-15.87-4.75-16.13l-1.72,1c0,.07,3.77,6.54,5.45,22.59-.18,1.55-.36,3.12-.52,4.72-2.35-8-6.47-17.92-11.91-25l-1.29-1.68-1.6,1.39A50.26,50.26,0,0,0,67.6,93.1v-29h-4V87.06C59.38,74.58,53.16,67.79,52.78,67.39l-.92-1-1.08.81a50.79,50.79,0,0,0-16.1,25l-2.44-.13c.92-6.88,3-16.38,7.6-22.21l-1.56-1.24C33.52,74.62,31.34,84,30.34,91c-1.82-10.37-4-13.93-4.45-14.51L20.94,79.9c.06.09,5.92,9.74,5.92,47.57,0,4.07,0,7.14.12,9.12.1,2.59.22,5.52,3.24,5.6h.1c2.8,0,3.17-2.9,3.39-4.64.15-1.26.34-3.09.53-5.45.33-3.92.71-9.39,1.13-16.24.41-6.64.79-13.33,1-17.88A50.1,50.1,0,0,1,51.48,70.51C54,73.72,61.12,83.88,63.57,99.78V153.4h3V156h4V140c1-25.84,13.5-51.14,17.89-59.3C92.6,89.7,95,99.36,95,103.32v11.43c-.86,15.47-1.12,32.07,0,39.48v7.1h4v-2.48l.28-4V177.2h4V117.65a72.6,72.6,0,0,1,6.38-30.13c.16-.34.32-.67.47-1,3.11,6.21,8.86,19,10.36,31.58,2.1,17.65,1.91,56.94,1.91,57.34h4v-5.6h.45c.13,6.67.26,11,.26,11.18l4-.11C131.12,180.5,129.87,135.37,130.92,111.75Z"/><path class="cls-1" d="M70.56,119V103.31A48.17,48.17,0,0,1,83.09,71.06a59.17,59.17,0,0,1,3.75,6.33A171.46,171.46,0,0,0,70.56,119Z"/><path class="cls-3" d="M-7,88.28V66.49h-4V87.14c-2.92-13.52-6.86-21-7.07-21.44l-1.77.94c.06.12,6.22,11.87,8.79,32.15C-14.48,81.6-22.18,74.66-22.6,74.29l-2.63,3s3,2.7,5.9,8.8c2.71,5.67,5.94,15.52,5.94,30.32H-11v9.15h4v-6.82l1.61-.54,1.58-.14c-.09-.94,0-10.2,0-16.32V94.09c0-4.61,3.16-16.78,12.93-25L6.57,66A42.61,42.61,0,0,0-7,88.28Z"/><path class="cls-4" d="M-409.43,50.86c213.2-8.13,483.77,75.78,593.37,142.57-81.35.85-593,0-593,0Z"/></g><g id="grass"><circle class="cls-2" cx="13.05" cy="134.35" r="1.35"/><circle class="cls-2" cx="26.11" cy="139.27" r="1.35"/><circle class="cls-2" cx="44.8" cy="144.69" r="1.35"/><circle class="cls-2" cx="59.78" cy="150.9" r="1.35"/><circle class="cls-2" cx="73.91" cy="156.04" r="1.35"/><circle class="cls-2" cx="84.4" cy="159.18" r="1.35"/><circle class="cls-2" cx="98.1" cy="164.53" r="1.35"/><circle class="cls-2" cx="112.44" cy="169.45" r="1.35"/><circle class="cls-2" cx="128.21" cy="176.73" r="1.35"/><circle class="cls-2" cx="100.61" cy="175.45" r="1.13"/><circle class="cls-2" cx="87.34" cy="170.95" r="1.13"/><circle class="cls-2" cx="70.86" cy="165.6" r="1.13"/><circle class="cls-2" cx="58.01" cy="162.39" r="1.13"/><circle class="cls-2" cx="44.95" cy="156.61" r="1.13"/><circle class="cls-2" cx="32.44" cy="136.17" r="1.13"/><circle class="cls-2" cx="35.81" cy="147.56" r="1.13"/><circle class="cls-2" cx="17.83" cy="145.69" r="1.13"/><circle class="cls-2" cx="3.64" cy="141.84" r="1.13"/><circle class="cls-2" cx="-0.74" cy="154.47" r="0.9"/><circle class="cls-2" cx="16.6" cy="159.61" r="0.9"/><circle class="cls-2" cx="28.8" cy="164.42" r="0.9"/><circle class="cls-2" cx="47.63" cy="168.92" r="0.9"/><circle class="cls-2" cx="77.87" cy="172.83" r="0.9"/><circle class="cls-2" cx="8.46" cy="167.63" r="0.9"/><circle class="cls-2" cx="6.59" cy="150.56" r="0.9"/><circle class="cls-2" cx="29.71" cy="155.75" r="0.9"/><circle class="cls-2" cx="37.41" cy="175.34" r="0.9"/><circle class="cls-2" cx="7.23" cy="124.29" r="1.61"/><circle class="cls-2" cx="21.36" cy="127.82" r="1.61"/><circle class="cls-2" cx="41.91" cy="133.92" r="1.61"/><circle class="cls-2" cx="59.25" cy="140.02" r="1.61"/><circle class="cls-2" cx="76.59" cy="146.44" r="1.61"/><circle class="cls-2" cx="92.96" cy="153.18" r="1.61"/><circle class="cls-2" cx="111.59" cy="160.25" r="1.61"/><circle class="cls-2" cx="127.64" cy="169.56" r="1.61"/></g><g id="front_tree" data-name="front tree"><path class="cls-2" d="M-409.43-200.87c42-11.55,55.66-43,137-42.59,77.07.4,146.84-2.14,197.36,61.22,14.55,6,134.85,76.63,133.57,114.3-1.3,38.09-82.2,44.1-134,45.38C-123.56-21.37-155.56-40.11-217.21,28c-27.34,30.19-71.28,47.2-92.47,147.7-8.3,8-107.45-22.26-97.61-34.25,60-23.22,53.62-34.78,71.92-59.51,22.23-30,46.88-52.33,28.69-101.46-34.17,3-37.8-4.78-46.36-4.78s-48.47,5.64-56.6.07C-407.93-42.89-409.43-200.87-409.43-200.87Z"/></g></svg>