<svg id="Places" xmlns="http://www.w3.org/2000/svg" viewBox="0 0 76.87 76.87"><defs><style>.cls-1{fill:#96d0ef;}.cls-2{fill:#b6e1fa;}.cls-3{fill:#747d56;}.cls-4{fill:#6486c0;}.cls-5{fill:#78613b;}.cls-6{fill:#efdac3;}.cls-7{fill:#e2733e;}</style></defs><g id="background"><path class="cls-1" d="M-523.49-152.94V59.66c.16,4.49.36,9,.42,13.46a73.77,73.77,0,0,1-.42,7.86v9.89a72.34,72.34,0,0,1,.27,7.79,4.69,4.69,0,0,1-.27,1.38V448h601V-152.94Z"/></g><g id="clouds"><path class="cls-2" d="M71.55,27.3c-15.57-4.06-33.79,5-47.4-3.54C19.86,21.05,16.7,16.9,13,13.39,1.85,2.67-14-1.9-29.35-3.48-54.12-6-81.75-.42-97.34,19c-4.61,5.73-8.22,12.66-14.59,16.32-6.76,3.88-15.08,3.22-22.75,4.56a43,43,0,0,0-25.23,14.55c-5.23,6.22-8.85,14.1-15.72,18.45-6,3.81-13.53,4.21-20.4,6.13s-14.08,6.58-14.69,13.69l25.45,7.84c6.73-8.3,248.3-4.35,262.72-2.1V29.54A30.25,30.25,0,0,0,71.55,27.3Z"/></g><g id="pool"><path class="cls-3" d="M78.29-39.65V-66.9a64.77,64.77,0,0,0-16.71-2.48,47.87,47.87,0,0,0-19.06,3.61q5.11-1.1,10.3-1.83A16.67,16.67,0,0,0,48-65.82a44.06,44.06,0,0,1,9-1.26,12.25,12.25,0,0,0-5.32,2.33,69,69,0,0,1,12.46-1.83A24.09,24.09,0,0,0,58.77-65L66.85-66a18.79,18.79,0,0,0-4.74,1.6,23.86,23.86,0,0,1,7.4-.31,50.62,50.62,0,0,0-8.08,1.86A64.32,64.32,0,0,1,70.1-63a28,28,0,0,0-12,5.2A44,44,0,0,0,52-52,82.41,82.41,0,0,0,36.66-41.49l9.93-5.83A54.1,54.1,0,0,0,38-40.46,194.32,194.32,0,0,1,54.68-50.78a55.26,55.26,0,0,0-11.92,8.91q4.43-3.36,9-6.53l-3.41,3.3a34.83,34.83,0,0,1,4.1-2.47,15.73,15.73,0,0,0-3.64,3.73,105.72,105.72,0,0,1,10.94-7.31L51.9-44.9a81.69,81.69,0,0,1,11.19-6.53,40.39,40.39,0,0,0-6.77,5.07q3.23-2.07,6.6-3.92l-4.15,3.67c1.26-.74,2.54-1.43,3.84-2.11a45.76,45.76,0,0,0-7.1,8,33.61,33.61,0,0,0-4.19,8.6A47.17,47.17,0,0,1,56.91-40,26.19,26.19,0,0,0,54-34.79a65.17,65.17,0,0,0,6-7.75,24.74,24.74,0,0,1-1.85,4.1L63-45.06l-2.11,3.92,3.36-3.5a18.21,18.21,0,0,0-1.32,2.36C56.76-35.9,52.34-27.9,48.15-20.1q3-4.11,6.26-8.06a28.44,28.44,0,0,0-2.58,6,54.83,54.83,0,0,0,4-6.22,41.55,41.55,0,0,0-1.6,5l3.17-5.86a15.59,15.59,0,0,0-.6,2.69,29.15,29.15,0,0,1,3.59-5.6,8.68,8.68,0,0,0-1.22,3.56,60,60,0,0,1,4-6.55,31.17,31.17,0,0,0-2.06,4.61q3.12-4.36,6.13-8.72a20.94,20.94,0,0,0-2.55,5.69c1.57-2.55,3.41-4.94,5.18-7.36a44.86,44.86,0,0,0-1.43,13,43.07,43.07,0,0,1,1.5-8.87,21.94,21.94,0,0,0,.23,6A40.83,40.83,0,0,1,72.35-39a16.6,16.6,0,0,0-.49,5.91c.5-2,1-3.94,1.61-5.89l.6-2.08.15.74c.14,4.08.24,13.94-1.79,20.8C69.82-10.67,57.3,25.54,53.61,40.81,49.84,56.42,49,80.26,49.84,92.74h3.71c-.4-5.71-.85-19,1.31-39.12C56.66,36.72,65.63,9.86,68.8.56c2-5.93,4.74-12.74,6.8-20.31a62.8,62.8,0,0,0,.87,9.28q.11-4.89.23-9.78a45.45,45.45,0,0,0,.55,6.48,47.59,47.59,0,0,0,.5-4.77c.13.93.31,1.85.52,2.76V-33.9A25.71,25.71,0,0,0,78.29-39.65Z"/><rect class="cls-4" x="39.57" y="44.1" width="1.02" height="49.89"/><path class="cls-5" d="M10.68,38.62A6.46,6.46,0,0,0,9.43,40a2,2,0,0,0-.21,1.77,2.75,2.75,0,0,0,1.18,1.16,17,17,0,0,0,2,1,1.34,1.34,0,0,0,.65.17c.82-.07.91-1.29,1.52-1.84-.36,1-.67,2.17,0,2.89a2.67,2.67,0,0,0,1.4.57,64.48,64.48,0,0,0,12.17,1.06,3.11,3.11,0,0,0,1.24-.2c.9-.43,1.14-1.59,1.27-2.6.37,1.07-.09,2.52.82,3.17a2.25,2.25,0,0,0,1.35.26L48,47.16a2.4,2.4,0,0,0,1.26-.25,1.69,1.69,0,0,0,.67-1.41,4.78,4.78,0,0,0-.36-1.58,3.23,3.23,0,0,0-.85-1.46A3.06,3.06,0,0,0,47.15,42c-4.5-.6-9.07-.32-13.61-.34a102.82,102.82,0,0,1-20.7-2.17"/><path class="cls-5" d="M48.78,42.37a14.45,14.45,0,0,0,1,3.42,2,2,0,0,0,.54.83,2.29,2.29,0,0,0,1.47.33A55.38,55.38,0,0,0,62.9,45.77,1.73,1.73,0,0,0,64,45.25a1.57,1.57,0,0,0,.18-1,16.57,16.57,0,0,0-.94-3,19.22,19.22,0,0,0,1.69,2.23,1.51,1.51,0,0,0,.55.57,1.56,1.56,0,0,0,1.3-.13,12.34,12.34,0,0,0,2.5-1.41,2,2,0,0,0,.48-.45,1.62,1.62,0,0,0,.06-1.38,4.5,4.5,0,0,0-1.14-1.8.89.89,0,0,0-.38-.23,1,1,0,0,0-.53.12,28.75,28.75,0,0,1-8.19,2.07c-2.81.36-5.65.54-8.44,1a5.93,5.93,0,0,1-2.87,0"/><polygon class="cls-6" points="40.32 24.37 18.01 31.18 21.87 33.07 40.32 24.37"/><polygon class="cls-7" points="14.38 41.4 10.4 38.77 18.01 31.18 21.87 33.07 14.38 41.4"/><polygon class="cls-7" points="40.32 24.37 21.87 33.07 33.51 34.05 40.32 24.37"/><polygon class="cls-6" points="14.38 41.4 31.37 43.08 33.51 34.05 21.87 33.07 14.38 41.4"/><polygon class="cls-6" points="40.32 24.37 33.51 34.05 45.89 33.9 40.32 24.37"/><polygon class="cls-7" points="31.37 43.08 49.07 42.97 45.89 33.9 33.51 34.05 31.37 43.08"/><polygon class="cls-7" points="40.32 24.37 45.89 33.9 58.93 33.39 40.32 24.37"/><polygon class="cls-6" points="49.07 42.97 63.24 41.44 58.93 33.39 45.89 33.9 49.07 42.97"/><polygon class="cls-6" points="40.32 24.37 58.93 33.39 62.96 32.2 40.32 24.37"/><polygon class="cls-7" points="63.24 41.44 68.68 38.94 62.96 32.2 58.93 33.39 63.24 41.44"/></g></svg>